G04 Layer_Color=65535*
%FSLAX25Y25*%
%MOIN*%
G70*
G01*
G75*
%ADD14C,0.00800*%
%ADD15C,0.01000*%
%ADD16C,0.00787*%
%ADD17C,0.00700*%
%ADD18C,0.00500*%
%ADD19C,0.00400*%
%ADD20R,0.02059X0.01500*%
D14*
X12814Y65600D02*
G03*
X12814Y65600I-1200J0D01*
G01*
X18504Y6504D02*
X81500D01*
X18504Y69500D02*
X81500D01*
X37500Y54499D02*
X38833D01*
X38166D01*
Y50500D01*
X37500D01*
X38833D01*
X43498Y53832D02*
X42832Y54499D01*
X41499D01*
X40832Y53832D01*
Y51166D01*
X41499Y50500D01*
X42832D01*
X43498Y51166D01*
D15*
X31500Y62000D02*
X49500D01*
Y44500D02*
Y62000D01*
X48500Y43500D02*
X49500Y44500D01*
X47000Y42000D02*
X48500Y43500D01*
X31500Y42000D02*
X47000D01*
X31500D02*
Y62000D01*
D16*
X0Y0D02*
X10000D01*
X0D02*
Y80000D01*
X10000D01*
Y0D02*
Y80000D01*
X90000D02*
X100000D01*
Y0D02*
Y80000D01*
X90000Y0D02*
X100000D01*
X90000D02*
Y80000D01*
D17*
X39000Y72000D02*
Y76998D01*
X41499D01*
X42332Y76165D01*
Y74499D01*
X41499Y73666D01*
X39000D01*
X40666D02*
X42332Y72000D01*
X47331Y76998D02*
X43998D01*
Y74499D01*
X45665D01*
X43998D01*
Y72000D01*
X48997D02*
Y76998D01*
X50663Y75332D01*
X52329Y76998D01*
Y72000D01*
X53995Y72833D02*
X54828Y72000D01*
X56494D01*
X57327Y72833D01*
Y76165D01*
X56494Y76998D01*
X54828D01*
X53995Y76165D01*
Y75332D01*
X54828Y74499D01*
X57327D01*
X58994Y75332D02*
X62326Y72000D01*
X60660Y73666D01*
X62326Y75332D01*
X58994Y72000D01*
D18*
X85000Y2667D02*
X85666Y2000D01*
X86999D01*
X87666Y2667D01*
Y5332D01*
X86999Y5999D01*
X85666D01*
X85000Y5332D01*
Y4666D01*
X85666Y3999D01*
X87666D01*
X12000Y74000D02*
X13333D01*
X12666D01*
Y77999D01*
X12000Y77332D01*
X52571Y16499D02*
Y12500D01*
X52762Y16499D02*
Y12500D01*
X52000Y16499D02*
X54285D01*
X54856Y16309D01*
X55047Y16118D01*
X55237Y15737D01*
Y15357D01*
X55047Y14976D01*
X54856Y14785D01*
X54285Y14595D01*
X52762D01*
X54285Y16499D02*
X54666Y16309D01*
X54856Y16118D01*
X55047Y15737D01*
Y15357D01*
X54856Y14976D01*
X54666Y14785D01*
X54285Y14595D01*
X52000Y12500D02*
X53333D01*
X53714Y14595D02*
X54095Y14404D01*
X54285Y14214D01*
X54856Y12881D01*
X55047Y12690D01*
X55237D01*
X55428Y12881D01*
X54095Y14404D02*
X54285Y14024D01*
X54666Y12690D01*
X54856Y12500D01*
X55237D01*
X55428Y12881D01*
Y13071D01*
X56513Y16499D02*
Y12500D01*
X56704Y16499D02*
Y12500D01*
X57846Y15357D02*
Y13833D01*
X55942Y16499D02*
X58989D01*
Y15357D01*
X58798Y16499D01*
X56704Y14595D02*
X57846D01*
X55942Y12500D02*
X57275D01*
X60113Y16499D02*
Y12500D01*
X60303Y16499D02*
X61446Y13071D01*
X60113Y16499D02*
X61446Y12500D01*
X62779Y16499D02*
X61446Y12500D01*
X62779Y16499D02*
Y12500D01*
X62969Y16499D02*
Y12500D01*
X59541Y16499D02*
X60303D01*
X62779D02*
X63540D01*
X59541Y12500D02*
X60684D01*
X62207D02*
X63540D01*
X66473Y15166D02*
X66283Y14595D01*
X65902Y14214D01*
X65330Y14024D01*
X65140D01*
X64569Y14214D01*
X64188Y14595D01*
X63997Y15166D01*
Y15357D01*
X64188Y15928D01*
X64569Y16309D01*
X65140Y16499D01*
X65521D01*
X66092Y16309D01*
X66473Y15928D01*
X66663Y15357D01*
Y14214D01*
X66473Y13452D01*
X66283Y13071D01*
X65902Y12690D01*
X65330Y12500D01*
X64759D01*
X64378Y12690D01*
X64188Y13071D01*
Y13262D01*
X64378Y13452D01*
X64569Y13262D01*
X64378Y13071D01*
X65140Y14024D02*
X64759Y14214D01*
X64378Y14595D01*
X64188Y15166D01*
Y15357D01*
X64378Y15928D01*
X64759Y16309D01*
X65140Y16499D01*
X65521D02*
X65902Y16309D01*
X66283Y15928D01*
X66473Y15357D01*
Y14214D01*
X66283Y13452D01*
X66092Y13071D01*
X65711Y12690D01*
X65330Y12500D01*
X67635Y15166D02*
X69730Y12500D01*
X67825Y15166D02*
X69920Y12500D01*
Y15166D02*
X67635Y12500D01*
X67254Y15166D02*
X68397D01*
X69158D02*
X70301D01*
X67254Y12500D02*
X68397D01*
X69158D02*
X70301D01*
D19*
X31500Y4499D02*
Y1500D01*
X33214D01*
X34257Y3500D02*
X33971Y3357D01*
X33685Y3071D01*
X33542Y2643D01*
Y2357D01*
X33685Y1929D01*
X33971Y1643D01*
X34257Y1500D01*
X34685D01*
X34971Y1643D01*
X35256Y1929D01*
X35399Y2357D01*
Y2643D01*
X35256Y3071D01*
X34971Y3357D01*
X34685Y3500D01*
X34257D01*
X36056Y4499D02*
Y1500D01*
Y4499D02*
X37342D01*
X37770Y4357D01*
X37913Y4214D01*
X38056Y3928D01*
Y3642D01*
X37913Y3357D01*
X37770Y3214D01*
X37342Y3071D01*
X36056D01*
X37056D02*
X38056Y1500D01*
X40441Y3500D02*
Y1500D01*
Y3071D02*
X40155Y3357D01*
X39870Y3500D01*
X39441D01*
X39156Y3357D01*
X38870Y3071D01*
X38727Y2643D01*
Y2357D01*
X38870Y1929D01*
X39156Y1643D01*
X39441Y1500D01*
X39870D01*
X40155Y1643D01*
X40441Y1929D01*
X41241Y4499D02*
X41955Y1500D01*
X42669Y4499D02*
X41955Y1500D01*
X42669Y4499D02*
X43383Y1500D01*
X44097Y4499D02*
X43383Y1500D01*
X46411Y3500D02*
Y1500D01*
Y3071D02*
X46126Y3357D01*
X45840Y3500D01*
X45411D01*
X45126Y3357D01*
X44840Y3071D01*
X44697Y2643D01*
Y2357D01*
X44840Y1929D01*
X45126Y1643D01*
X45411Y1500D01*
X45840D01*
X46126Y1643D01*
X46411Y1929D01*
X47211Y3500D02*
Y1500D01*
Y2928D02*
X47639Y3357D01*
X47925Y3500D01*
X48353D01*
X48639Y3357D01*
X48782Y2928D01*
Y1500D01*
X52924Y4499D02*
Y1500D01*
X51924Y4499D02*
X53924D01*
X54281D02*
Y1500D01*
Y2928D02*
X54709Y3357D01*
X54995Y3500D01*
X55423D01*
X55709Y3357D01*
X55852Y2928D01*
Y1500D01*
X58351Y3500D02*
Y1500D01*
Y3071D02*
X58066Y3357D01*
X57780Y3500D01*
X57352D01*
X57066Y3357D01*
X56780Y3071D01*
X56638Y2643D01*
Y2357D01*
X56780Y1929D01*
X57066Y1643D01*
X57352Y1500D01*
X57780D01*
X58066Y1643D01*
X58351Y1929D01*
X59437Y4499D02*
X59580Y4357D01*
X59723Y4499D01*
X59580Y4642D01*
X59437Y4499D01*
X59580Y3500D02*
Y1500D01*
X60251Y4499D02*
Y1500D01*
X62593Y3500D02*
Y1500D01*
Y3071D02*
X62308Y3357D01*
X62022Y3500D01*
X61594D01*
X61308Y3357D01*
X61022Y3071D01*
X60879Y2643D01*
Y2357D01*
X61022Y1929D01*
X61308Y1643D01*
X61594Y1500D01*
X62022D01*
X62308Y1643D01*
X62593Y1929D01*
X63393Y3500D02*
Y1500D01*
Y2928D02*
X63822Y3357D01*
X64107Y3500D01*
X64536D01*
X64821Y3357D01*
X64964Y2928D01*
Y1500D01*
X67464Y4499D02*
Y1500D01*
Y3071D02*
X67178Y3357D01*
X66892Y3500D01*
X66464D01*
X66178Y3357D01*
X65893Y3071D01*
X65750Y2643D01*
Y2357D01*
X65893Y1929D01*
X66178Y1643D01*
X66464Y1500D01*
X66892D01*
X67178Y1643D01*
X67464Y1929D01*
X68406Y1786D02*
X68264Y1643D01*
X68406Y1500D01*
X68549Y1643D01*
X68406Y1786D01*
X85201Y32500D02*
X87500D01*
X85201D02*
Y33266D01*
X85310Y33595D01*
X85529Y33814D01*
X85748Y33924D01*
X86076Y34033D01*
X86624D01*
X86953Y33924D01*
X87172Y33814D01*
X87391Y33595D01*
X87500Y33266D01*
Y32500D01*
X85201Y35643D02*
X86734Y34548D01*
Y36190D01*
X85201Y35643D02*
X87500D01*
X85201Y24500D02*
X87500D01*
X85201D02*
Y25267D01*
X85310Y25595D01*
X85529Y25814D01*
X85748Y25923D01*
X86076Y26033D01*
X86624D01*
X86953Y25923D01*
X87172Y25814D01*
X87391Y25595D01*
X87500Y25267D01*
Y24500D01*
X85201Y26767D02*
Y27971D01*
X86076Y27314D01*
Y27643D01*
X86186Y27862D01*
X86295Y27971D01*
X86624Y28081D01*
X86843D01*
X87172Y27971D01*
X87391Y27752D01*
X87500Y27424D01*
Y27095D01*
X87391Y26767D01*
X87281Y26657D01*
X87062Y26548D01*
X85201Y64000D02*
X87500D01*
X85201D02*
Y64767D01*
X85310Y65095D01*
X85529Y65314D01*
X85748Y65424D01*
X86076Y65533D01*
X86624D01*
X86953Y65424D01*
X87172Y65314D01*
X87391Y65095D01*
X87500Y64767D01*
Y64000D01*
X85748Y66157D02*
X85638D01*
X85419Y66267D01*
X85310Y66376D01*
X85201Y66595D01*
Y67033D01*
X85310Y67252D01*
X85419Y67362D01*
X85638Y67471D01*
X85857D01*
X86076Y67362D01*
X86405Y67143D01*
X87500Y66048D01*
Y67581D01*
X85201Y56500D02*
X87500D01*
X85201D02*
Y57266D01*
X85310Y57595D01*
X85529Y57814D01*
X85748Y57924D01*
X86076Y58033D01*
X86624D01*
X86953Y57924D01*
X87172Y57814D01*
X87391Y57595D01*
X87500Y57266D01*
Y56500D01*
X85638Y58548D02*
X85529Y58767D01*
X85201Y59095D01*
X87500D01*
X12700Y16500D02*
X15000D01*
X12700D02*
Y17266D01*
X12810Y17595D01*
X13029Y17814D01*
X13248Y17923D01*
X13577Y18033D01*
X14124D01*
X14453Y17923D01*
X14672Y17814D01*
X14890Y17595D01*
X15000Y17266D01*
Y16500D01*
X12700Y19862D02*
Y18767D01*
X13686Y18657D01*
X13577Y18767D01*
X13467Y19095D01*
Y19424D01*
X13577Y19752D01*
X13795Y19971D01*
X14124Y20081D01*
X14343D01*
X14672Y19971D01*
X14890Y19752D01*
X15000Y19424D01*
Y19095D01*
X14890Y18767D01*
X14781Y18657D01*
X14562Y18548D01*
X85476Y17128D02*
X85286Y17033D01*
X85096Y16843D01*
X85000Y16652D01*
Y16271D01*
X85096Y16081D01*
X85286Y15890D01*
X85476Y15795D01*
X85762Y15700D01*
X86238D01*
X86524Y15795D01*
X86714Y15890D01*
X86905Y16081D01*
X87000Y16271D01*
Y16652D01*
X86905Y16843D01*
X86714Y17033D01*
X86524Y17128D01*
X86238D01*
Y16652D02*
Y17128D01*
X85000Y17585D02*
X87000D01*
X85000D02*
X87000Y18918D01*
X85000D02*
X87000D01*
X85000Y19471D02*
X87000D01*
X85000D02*
Y20137D01*
X85096Y20423D01*
X85286Y20613D01*
X85476Y20708D01*
X85762Y20804D01*
X86238D01*
X86524Y20708D01*
X86714Y20613D01*
X86905Y20423D01*
X87000Y20137D01*
Y19471D01*
X12977Y9328D02*
X12786Y9233D01*
X12596Y9043D01*
X12500Y8852D01*
Y8471D01*
X12596Y8281D01*
X12786Y8090D01*
X12977Y7995D01*
X13262Y7900D01*
X13738D01*
X14024Y7995D01*
X14214Y8090D01*
X14405Y8281D01*
X14500Y8471D01*
Y8852D01*
X14405Y9043D01*
X14214Y9233D01*
X14024Y9328D01*
X13738D01*
Y8852D02*
Y9328D01*
X12500Y9785D02*
X14500D01*
X12500D02*
X14500Y11118D01*
X12500D02*
X14500D01*
X12500Y11671D02*
X14500D01*
X12500D02*
Y12337D01*
X12596Y12623D01*
X12786Y12813D01*
X12977Y12908D01*
X13262Y13004D01*
X13738D01*
X14024Y12908D01*
X14214Y12813D01*
X14405Y12623D01*
X14500Y12337D01*
Y11671D01*
X14477Y64428D02*
X14286Y64333D01*
X14096Y64143D01*
X14000Y63952D01*
Y63571D01*
X14096Y63381D01*
X14286Y63190D01*
X14477Y63095D01*
X14762Y63000D01*
X15238D01*
X15524Y63095D01*
X15714Y63190D01*
X15905Y63381D01*
X16000Y63571D01*
Y63952D01*
X15905Y64143D01*
X15714Y64333D01*
X15524Y64428D01*
X15238D01*
Y63952D02*
Y64428D01*
X14000Y64885D02*
X16000D01*
X14000D02*
X16000Y66218D01*
X14000D02*
X16000D01*
X14000Y66771D02*
X16000D01*
X14000D02*
Y67437D01*
X14096Y67723D01*
X14286Y67913D01*
X14477Y68009D01*
X14762Y68104D01*
X15238D01*
X15524Y68009D01*
X15714Y67913D01*
X15905Y67723D01*
X16000Y67437D01*
Y66771D01*
X85201Y48000D02*
X87500D01*
X85201D02*
Y48766D01*
X85310Y49095D01*
X85529Y49314D01*
X85748Y49424D01*
X86076Y49533D01*
X86624D01*
X86953Y49424D01*
X87172Y49314D01*
X87391Y49095D01*
X87500Y48766D01*
Y48000D01*
X85201Y50705D02*
X85310Y50376D01*
X85638Y50157D01*
X86186Y50048D01*
X86515D01*
X87062Y50157D01*
X87391Y50376D01*
X87500Y50705D01*
Y50924D01*
X87391Y51252D01*
X87062Y51471D01*
X86515Y51581D01*
X86186D01*
X85638Y51471D01*
X85310Y51252D01*
X85201Y50924D01*
Y50705D01*
X12700Y32000D02*
X15000D01*
X12700D02*
X15000Y33533D01*
X12700D02*
X15000D01*
X13029Y35701D02*
X12810Y35482D01*
X12700Y35154D01*
Y34716D01*
X12810Y34387D01*
X13029Y34168D01*
X13248D01*
X13467Y34278D01*
X13577Y34387D01*
X13686Y34606D01*
X13905Y35263D01*
X14015Y35482D01*
X14124Y35592D01*
X14343Y35701D01*
X14672D01*
X14890Y35482D01*
X15000Y35154D01*
Y34716D01*
X14890Y34387D01*
X14672Y34168D01*
X13029Y40533D02*
X12810Y40314D01*
X12700Y39985D01*
Y39548D01*
X12810Y39219D01*
X13029Y39000D01*
X13248D01*
X13467Y39110D01*
X13577Y39219D01*
X13686Y39438D01*
X13905Y40095D01*
X14015Y40314D01*
X14124Y40424D01*
X14343Y40533D01*
X14672D01*
X14890Y40314D01*
X15000Y39985D01*
Y39548D01*
X14890Y39219D01*
X14672Y39000D01*
X13248Y42690D02*
X13029Y42581D01*
X12810Y42362D01*
X12700Y42143D01*
Y41705D01*
X12810Y41486D01*
X13029Y41267D01*
X13248Y41157D01*
X13577Y41048D01*
X14124D01*
X14453Y41157D01*
X14672Y41267D01*
X14890Y41486D01*
X15000Y41705D01*
Y42143D01*
X14890Y42362D01*
X14672Y42581D01*
X14453Y42690D01*
X12700Y43336D02*
X15000D01*
X12700Y44869D02*
X14233Y43336D01*
X13686Y43884D02*
X15000Y44869D01*
X12700Y48000D02*
X15000D01*
X12700D02*
X15000Y48876D01*
X12700Y49752D02*
X15000Y48876D01*
X12700Y49752D02*
X15000D01*
X12700Y51066D02*
X12810Y50847D01*
X13029Y50628D01*
X13248Y50519D01*
X13577Y50409D01*
X14124D01*
X14453Y50519D01*
X14672Y50628D01*
X14890Y50847D01*
X15000Y51066D01*
Y51504D01*
X14890Y51723D01*
X14672Y51942D01*
X14453Y52052D01*
X14124Y52161D01*
X13577D01*
X13248Y52052D01*
X13029Y51942D01*
X12810Y51723D01*
X12700Y51504D01*
Y51066D01*
Y56500D02*
X15000D01*
X12700D02*
X15000Y57376D01*
X12700Y58252D02*
X15000Y57376D01*
X12700Y58252D02*
X15000D01*
X12700Y58909D02*
X15000D01*
X12700Y23500D02*
X15000D01*
X12700D02*
Y24486D01*
X12810Y24814D01*
X12920Y24924D01*
X13138Y25033D01*
X13358D01*
X13577Y24924D01*
X13686Y24814D01*
X13795Y24486D01*
Y23500D01*
Y24266D02*
X15000Y25033D01*
X13029Y27081D02*
X12810Y26862D01*
X12700Y26533D01*
Y26095D01*
X12810Y25767D01*
X13029Y25548D01*
X13248D01*
X13467Y25657D01*
X13577Y25767D01*
X13686Y25986D01*
X13905Y26643D01*
X14015Y26862D01*
X14124Y26971D01*
X14343Y27081D01*
X14672D01*
X14890Y26862D01*
X15000Y26533D01*
Y26095D01*
X14890Y25767D01*
X14672Y25548D01*
X12700Y28362D02*
X15000D01*
X12700Y27595D02*
Y29128D01*
X85201Y39000D02*
X87500Y39876D01*
X85201Y40752D02*
X87500Y39876D01*
X85748Y42690D02*
X85529Y42581D01*
X85310Y42362D01*
X85201Y42143D01*
Y41705D01*
X85310Y41486D01*
X85529Y41267D01*
X85748Y41157D01*
X86076Y41048D01*
X86624D01*
X86953Y41157D01*
X87172Y41267D01*
X87391Y41486D01*
X87500Y41705D01*
Y42143D01*
X87391Y42362D01*
X87172Y42581D01*
X86953Y42690D01*
X85748Y44979D02*
X85529Y44869D01*
X85310Y44650D01*
X85201Y44431D01*
Y43993D01*
X85310Y43774D01*
X85529Y43555D01*
X85748Y43446D01*
X86076Y43336D01*
X86624D01*
X86953Y43446D01*
X87172Y43555D01*
X87391Y43774D01*
X87500Y43993D01*
Y44431D01*
X87391Y44650D01*
X87172Y44869D01*
X86953Y44979D01*
X87500Y9252D02*
X85201Y8376D01*
X87500Y7500D01*
X86734Y7829D02*
Y8924D01*
X85201Y9789D02*
X87500D01*
X85201D02*
X87500Y11322D01*
X85201D02*
X87500D01*
X85201Y12723D02*
X87500D01*
X85201Y11957D02*
Y13490D01*
D20*
X11569Y65650D02*
D03*
M02*
