G04 Layer_Color=65535*
%FSLAX25Y25*%
%MOIN*%
G70*
G01*
G75*
%ADD14C,0.00800*%
%ADD15C,0.00787*%
%ADD16C,0.01000*%
%ADD17C,0.00500*%
%ADD18C,0.00400*%
%ADD19R,0.02059X0.01500*%
D14*
X90086Y10400D02*
G03*
X90086Y10400I-1200J0D01*
G01*
X19000Y6500D02*
X81996D01*
X19000Y69496D02*
X81996D01*
X57000Y25499D02*
X58333D01*
X57666D01*
Y21500D01*
X57000D01*
X58333D01*
X62998Y24832D02*
X62332Y25499D01*
X60999D01*
X60332Y24832D01*
Y22166D01*
X60999Y21500D01*
X62332D01*
X62998Y22166D01*
D15*
X90000Y80000D02*
X100000D01*
Y0D02*
Y80000D01*
X90000Y0D02*
X100000D01*
X90000D02*
Y80000D01*
X0Y0D02*
X10000D01*
X0D02*
Y80000D01*
X10000D01*
Y0D02*
Y80000D01*
D16*
X69000Y14000D02*
Y34000D01*
X53500D02*
X69000D01*
X52000Y32500D02*
X53500Y34000D01*
X51000Y31500D02*
X52000Y32500D01*
X51000Y14000D02*
Y31500D01*
Y14000D02*
X69000D01*
X42000Y72500D02*
Y77498D01*
X44499D01*
X45332Y76665D01*
Y74999D01*
X44499Y74166D01*
X42000D01*
X43666D02*
X45332Y72500D01*
X50331Y77498D02*
X46998D01*
Y74999D01*
X48665D01*
X46998D01*
Y72500D01*
X51997D02*
Y77498D01*
X53663Y75832D01*
X55329Y77498D01*
Y72500D01*
X56995Y73333D02*
X57828Y72500D01*
X59494D01*
X60327Y73333D01*
Y76665D01*
X59494Y77498D01*
X57828D01*
X56995Y76665D01*
Y75832D01*
X57828Y74999D01*
X60327D01*
X61993Y75832D02*
X65326Y72500D01*
X63660Y74166D01*
X65326Y75832D01*
X61993Y72500D01*
D17*
X85000Y2000D02*
X86333D01*
X85666D01*
Y5999D01*
X85000Y5332D01*
X28571Y65499D02*
Y61500D01*
X28762Y65499D02*
Y61500D01*
X28000Y65499D02*
X30285D01*
X30856Y65309D01*
X31047Y65118D01*
X31237Y64737D01*
Y64356D01*
X31047Y63976D01*
X30856Y63785D01*
X30285Y63595D01*
X28762D01*
X30285Y65499D02*
X30666Y65309D01*
X30856Y65118D01*
X31047Y64737D01*
Y64356D01*
X30856Y63976D01*
X30666Y63785D01*
X30285Y63595D01*
X28000Y61500D02*
X29333D01*
X29714Y63595D02*
X30095Y63404D01*
X30285Y63214D01*
X30856Y61881D01*
X31047Y61690D01*
X31237D01*
X31428Y61881D01*
X30095Y63404D02*
X30285Y63024D01*
X30666Y61690D01*
X30856Y61500D01*
X31237D01*
X31428Y61881D01*
Y62071D01*
X32513Y65499D02*
Y61500D01*
X32704Y65499D02*
Y61500D01*
X33846Y64356D02*
Y62833D01*
X31942Y65499D02*
X34989D01*
Y64356D01*
X34798Y65499D01*
X32704Y63595D02*
X33846D01*
X31942Y61500D02*
X33275D01*
X36112Y65499D02*
Y61500D01*
X36303Y65499D02*
X37446Y62071D01*
X36112Y65499D02*
X37446Y61500D01*
X38779Y65499D02*
X37446Y61500D01*
X38779Y65499D02*
Y61500D01*
X38969Y65499D02*
Y61500D01*
X35541Y65499D02*
X36303D01*
X38779D02*
X39540D01*
X35541Y61500D02*
X36684D01*
X38207D02*
X39540D01*
X42473Y64166D02*
X42283Y63595D01*
X41902Y63214D01*
X41331Y63024D01*
X41140D01*
X40569Y63214D01*
X40188Y63595D01*
X39997Y64166D01*
Y64356D01*
X40188Y64928D01*
X40569Y65309D01*
X41140Y65499D01*
X41521D01*
X42092Y65309D01*
X42473Y64928D01*
X42663Y64356D01*
Y63214D01*
X42473Y62452D01*
X42283Y62071D01*
X41902Y61690D01*
X41331Y61500D01*
X40759D01*
X40378Y61690D01*
X40188Y62071D01*
Y62262D01*
X40378Y62452D01*
X40569Y62262D01*
X40378Y62071D01*
X41140Y63024D02*
X40759Y63214D01*
X40378Y63595D01*
X40188Y64166D01*
Y64356D01*
X40378Y64928D01*
X40759Y65309D01*
X41140Y65499D01*
X41521D02*
X41902Y65309D01*
X42283Y64928D01*
X42473Y64356D01*
Y63214D01*
X42283Y62452D01*
X42092Y62071D01*
X41711Y61690D01*
X41331Y61500D01*
X43635Y64166D02*
X45730Y61500D01*
X43825Y64166D02*
X45920Y61500D01*
Y64166D02*
X43635Y61500D01*
X43254Y64166D02*
X44396D01*
X45158D02*
X46301D01*
X43254Y61500D02*
X44396D01*
X45158D02*
X46301D01*
X12000Y74666D02*
X12666Y74000D01*
X13999D01*
X14666Y74666D01*
Y77332D01*
X13999Y77999D01*
X12666D01*
X12000Y77332D01*
Y76666D01*
X12666Y75999D01*
X14666D01*
D18*
X31500Y4499D02*
Y1500D01*
X33214D01*
X34257Y3500D02*
X33971Y3357D01*
X33685Y3071D01*
X33542Y2643D01*
Y2357D01*
X33685Y1929D01*
X33971Y1643D01*
X34257Y1500D01*
X34685D01*
X34971Y1643D01*
X35256Y1929D01*
X35399Y2357D01*
Y2643D01*
X35256Y3071D01*
X34971Y3357D01*
X34685Y3500D01*
X34257D01*
X36056Y4499D02*
Y1500D01*
Y4499D02*
X37342D01*
X37770Y4357D01*
X37913Y4214D01*
X38056Y3928D01*
Y3642D01*
X37913Y3357D01*
X37770Y3214D01*
X37342Y3071D01*
X36056D01*
X37056D02*
X38056Y1500D01*
X40441Y3500D02*
Y1500D01*
Y3071D02*
X40155Y3357D01*
X39870Y3500D01*
X39441D01*
X39156Y3357D01*
X38870Y3071D01*
X38727Y2643D01*
Y2357D01*
X38870Y1929D01*
X39156Y1643D01*
X39441Y1500D01*
X39870D01*
X40155Y1643D01*
X40441Y1929D01*
X41241Y4499D02*
X41955Y1500D01*
X42669Y4499D02*
X41955Y1500D01*
X42669Y4499D02*
X43383Y1500D01*
X44097Y4499D02*
X43383Y1500D01*
X46411Y3500D02*
Y1500D01*
Y3071D02*
X46126Y3357D01*
X45840Y3500D01*
X45411D01*
X45126Y3357D01*
X44840Y3071D01*
X44697Y2643D01*
Y2357D01*
X44840Y1929D01*
X45126Y1643D01*
X45411Y1500D01*
X45840D01*
X46126Y1643D01*
X46411Y1929D01*
X47211Y3500D02*
Y1500D01*
Y2928D02*
X47639Y3357D01*
X47925Y3500D01*
X48353D01*
X48639Y3357D01*
X48782Y2928D01*
Y1500D01*
X52924Y4499D02*
Y1500D01*
X51924Y4499D02*
X53924D01*
X54281D02*
Y1500D01*
Y2928D02*
X54709Y3357D01*
X54995Y3500D01*
X55423D01*
X55709Y3357D01*
X55852Y2928D01*
Y1500D01*
X58351Y3500D02*
Y1500D01*
Y3071D02*
X58066Y3357D01*
X57780Y3500D01*
X57352D01*
X57066Y3357D01*
X56780Y3071D01*
X56638Y2643D01*
Y2357D01*
X56780Y1929D01*
X57066Y1643D01*
X57352Y1500D01*
X57780D01*
X58066Y1643D01*
X58351Y1929D01*
X59437Y4499D02*
X59580Y4357D01*
X59723Y4499D01*
X59580Y4642D01*
X59437Y4499D01*
X59580Y3500D02*
Y1500D01*
X60251Y4499D02*
Y1500D01*
X62593Y3500D02*
Y1500D01*
Y3071D02*
X62308Y3357D01*
X62022Y3500D01*
X61594D01*
X61308Y3357D01*
X61022Y3071D01*
X60879Y2643D01*
Y2357D01*
X61022Y1929D01*
X61308Y1643D01*
X61594Y1500D01*
X62022D01*
X62308Y1643D01*
X62593Y1929D01*
X63393Y3500D02*
Y1500D01*
Y2928D02*
X63822Y3357D01*
X64107Y3500D01*
X64536D01*
X64821Y3357D01*
X64964Y2928D01*
Y1500D01*
X67464Y4499D02*
Y1500D01*
Y3071D02*
X67178Y3357D01*
X66892Y3500D01*
X66464D01*
X66178Y3357D01*
X65893Y3071D01*
X65750Y2643D01*
Y2357D01*
X65893Y1929D01*
X66178Y1643D01*
X66464Y1500D01*
X66892D01*
X67178Y1643D01*
X67464Y1929D01*
X68406Y1786D02*
X68264Y1643D01*
X68406Y1500D01*
X68549Y1643D01*
X68406Y1786D01*
X12700Y40500D02*
X15000D01*
X12700D02*
Y41267D01*
X12810Y41595D01*
X13029Y41814D01*
X13248Y41923D01*
X13577Y42033D01*
X14124D01*
X14453Y41923D01*
X14672Y41814D01*
X14890Y41595D01*
X15000Y41267D01*
Y40500D01*
X12700Y43643D02*
X14233Y42548D01*
Y44190D01*
X12700Y43643D02*
X15000D01*
X12700Y48000D02*
X15000D01*
X12700D02*
Y48766D01*
X12810Y49095D01*
X13029Y49314D01*
X13248Y49424D01*
X13577Y49533D01*
X14124D01*
X14453Y49424D01*
X14672Y49314D01*
X14890Y49095D01*
X15000Y48766D01*
Y48000D01*
X12700Y50267D02*
Y51471D01*
X13577Y50814D01*
Y51143D01*
X13686Y51362D01*
X13795Y51471D01*
X14124Y51581D01*
X14343D01*
X14672Y51471D01*
X14890Y51252D01*
X15000Y50924D01*
Y50595D01*
X14890Y50267D01*
X14781Y50157D01*
X14562Y50048D01*
X12700Y8500D02*
X15000D01*
X12700D02*
Y9267D01*
X12810Y9595D01*
X13029Y9814D01*
X13248Y9923D01*
X13577Y10033D01*
X14124D01*
X14453Y9923D01*
X14672Y9814D01*
X14890Y9595D01*
X15000Y9267D01*
Y8500D01*
X13248Y10657D02*
X13138D01*
X12920Y10767D01*
X12810Y10876D01*
X12700Y11095D01*
Y11533D01*
X12810Y11752D01*
X12920Y11862D01*
X13138Y11971D01*
X13358D01*
X13577Y11862D01*
X13905Y11643D01*
X15000Y10548D01*
Y12081D01*
X12700Y17000D02*
X15000D01*
X12700D02*
Y17766D01*
X12810Y18095D01*
X13029Y18314D01*
X13248Y18424D01*
X13577Y18533D01*
X14124D01*
X14453Y18424D01*
X14672Y18314D01*
X14890Y18095D01*
X15000Y17766D01*
Y17000D01*
X13138Y19048D02*
X13029Y19267D01*
X12700Y19595D01*
X15000D01*
X85701Y56000D02*
X88000D01*
X85701D02*
Y56766D01*
X85810Y57095D01*
X86029Y57314D01*
X86248Y57424D01*
X86576Y57533D01*
X87124D01*
X87453Y57424D01*
X87672Y57314D01*
X87890Y57095D01*
X88000Y56766D01*
Y56000D01*
X85701Y59362D02*
Y58267D01*
X86686Y58157D01*
X86576Y58267D01*
X86467Y58595D01*
Y58924D01*
X86576Y59252D01*
X86796Y59471D01*
X87124Y59581D01*
X87343D01*
X87672Y59471D01*
X87890Y59252D01*
X88000Y58924D01*
Y58595D01*
X87890Y58267D01*
X87781Y58157D01*
X87562Y58048D01*
X13248Y56643D02*
X13029Y56533D01*
X12810Y56314D01*
X12700Y56095D01*
Y55657D01*
X12810Y55438D01*
X13029Y55219D01*
X13248Y55110D01*
X13577Y55000D01*
X14124D01*
X14453Y55110D01*
X14672Y55219D01*
X14890Y55438D01*
X15000Y55657D01*
Y56095D01*
X14890Y56314D01*
X14672Y56533D01*
X14453Y56643D01*
X14124D01*
Y56095D02*
Y56643D01*
X12700Y57168D02*
X15000D01*
X12700D02*
X15000Y58701D01*
X12700D02*
X15000D01*
X12700Y59336D02*
X15000D01*
X12700D02*
Y60103D01*
X12810Y60431D01*
X13029Y60650D01*
X13248Y60760D01*
X13577Y60869D01*
X14124D01*
X14453Y60760D01*
X14672Y60650D01*
X14890Y60431D01*
X15000Y60103D01*
Y59336D01*
X86248Y64143D02*
X86029Y64033D01*
X85810Y63814D01*
X85701Y63595D01*
Y63157D01*
X85810Y62938D01*
X86029Y62719D01*
X86248Y62609D01*
X86576Y62500D01*
X87124D01*
X87453Y62609D01*
X87672Y62719D01*
X87890Y62938D01*
X88000Y63157D01*
Y63595D01*
X87890Y63814D01*
X87672Y64033D01*
X87453Y64143D01*
X87124D01*
Y63595D02*
Y64143D01*
X85701Y64668D02*
X88000D01*
X85701D02*
X88000Y66201D01*
X85701D02*
X88000D01*
X85701Y66836D02*
X88000D01*
X85701D02*
Y67603D01*
X85810Y67931D01*
X86029Y68150D01*
X86248Y68260D01*
X86576Y68369D01*
X87124D01*
X87453Y68260D01*
X87672Y68150D01*
X87890Y67931D01*
X88000Y67603D01*
Y66836D01*
X84977Y9428D02*
X84786Y9333D01*
X84596Y9143D01*
X84500Y8952D01*
Y8571D01*
X84596Y8381D01*
X84786Y8190D01*
X84977Y8095D01*
X85262Y8000D01*
X85738D01*
X86024Y8095D01*
X86214Y8190D01*
X86405Y8381D01*
X86500Y8571D01*
Y8952D01*
X86405Y9143D01*
X86214Y9333D01*
X86024Y9428D01*
X85738D01*
Y8952D02*
Y9428D01*
X84500Y9885D02*
X86500D01*
X84500D02*
X86500Y11218D01*
X84500D02*
X86500D01*
X84500Y11771D02*
X86500D01*
X84500D02*
Y12437D01*
X84596Y12723D01*
X84786Y12913D01*
X84977Y13008D01*
X85262Y13104D01*
X85738D01*
X86024Y13008D01*
X86214Y12913D01*
X86405Y12723D01*
X86500Y12437D01*
Y11771D01*
X12700Y24500D02*
X15000D01*
X12700D02*
Y25267D01*
X12810Y25595D01*
X13029Y25814D01*
X13248Y25923D01*
X13577Y26033D01*
X14124D01*
X14453Y25923D01*
X14672Y25814D01*
X14890Y25595D01*
X15000Y25267D01*
Y24500D01*
X12700Y27205D02*
X12810Y26876D01*
X13138Y26657D01*
X13686Y26548D01*
X14015D01*
X14562Y26657D01*
X14890Y26876D01*
X15000Y27205D01*
Y27424D01*
X14890Y27752D01*
X14562Y27971D01*
X14015Y28081D01*
X13686D01*
X13138Y27971D01*
X12810Y27752D01*
X12700Y27424D01*
Y27205D01*
X85701Y40000D02*
X88000D01*
X85701D02*
X88000Y41533D01*
X85701D02*
X88000D01*
X86029Y43701D02*
X85810Y43482D01*
X85701Y43154D01*
Y42716D01*
X85810Y42387D01*
X86029Y42168D01*
X86248D01*
X86467Y42278D01*
X86576Y42387D01*
X86686Y42606D01*
X86905Y43263D01*
X87015Y43482D01*
X87124Y43592D01*
X87343Y43701D01*
X87672D01*
X87890Y43482D01*
X88000Y43154D01*
Y42716D01*
X87890Y42387D01*
X87672Y42168D01*
X86029Y32533D02*
X85810Y32314D01*
X85701Y31986D01*
Y31547D01*
X85810Y31219D01*
X86029Y31000D01*
X86248D01*
X86467Y31109D01*
X86576Y31219D01*
X86686Y31438D01*
X86905Y32095D01*
X87015Y32314D01*
X87124Y32423D01*
X87343Y32533D01*
X87672D01*
X87890Y32314D01*
X88000Y31986D01*
Y31547D01*
X87890Y31219D01*
X87672Y31000D01*
X86248Y34690D02*
X86029Y34581D01*
X85810Y34362D01*
X85701Y34143D01*
Y33705D01*
X85810Y33486D01*
X86029Y33267D01*
X86248Y33157D01*
X86576Y33048D01*
X87124D01*
X87453Y33157D01*
X87672Y33267D01*
X87890Y33486D01*
X88000Y33705D01*
Y34143D01*
X87890Y34362D01*
X87672Y34581D01*
X87453Y34690D01*
X85701Y35336D02*
X88000D01*
X85701Y36869D02*
X87234Y35336D01*
X86686Y35884D02*
X88000Y36869D01*
X85701Y24500D02*
X88000D01*
X85701D02*
X88000Y25376D01*
X85701Y26252D02*
X88000Y25376D01*
X85701Y26252D02*
X88000D01*
X85701Y27566D02*
X85810Y27347D01*
X86029Y27128D01*
X86248Y27018D01*
X86576Y26909D01*
X87124D01*
X87453Y27018D01*
X87672Y27128D01*
X87890Y27347D01*
X88000Y27566D01*
Y28004D01*
X87890Y28223D01*
X87672Y28442D01*
X87453Y28552D01*
X87124Y28661D01*
X86576D01*
X86248Y28552D01*
X86029Y28442D01*
X85810Y28223D01*
X85701Y28004D01*
Y27566D01*
Y17000D02*
X88000D01*
X85701D02*
X88000Y17876D01*
X85701Y18752D02*
X88000Y17876D01*
X85701Y18752D02*
X88000D01*
X85701Y19409D02*
X88000D01*
X85701Y47000D02*
X88000D01*
X85701D02*
Y47986D01*
X85810Y48314D01*
X85919Y48423D01*
X86138Y48533D01*
X86357D01*
X86576Y48423D01*
X86686Y48314D01*
X86796Y47986D01*
Y47000D01*
Y47767D02*
X88000Y48533D01*
X86029Y50581D02*
X85810Y50362D01*
X85701Y50033D01*
Y49595D01*
X85810Y49267D01*
X86029Y49048D01*
X86248D01*
X86467Y49157D01*
X86576Y49267D01*
X86686Y49486D01*
X86905Y50143D01*
X87015Y50362D01*
X87124Y50471D01*
X87343Y50581D01*
X87672D01*
X87890Y50362D01*
X88000Y50033D01*
Y49595D01*
X87890Y49267D01*
X87672Y49048D01*
X85701Y51862D02*
X88000D01*
X85701Y51095D02*
Y52628D01*
X12700Y31000D02*
X15000Y31876D01*
X12700Y32752D02*
X15000Y31876D01*
X13248Y34690D02*
X13029Y34581D01*
X12810Y34362D01*
X12700Y34143D01*
Y33705D01*
X12810Y33486D01*
X13029Y33267D01*
X13248Y33157D01*
X13577Y33048D01*
X14124D01*
X14453Y33157D01*
X14672Y33267D01*
X14890Y33486D01*
X15000Y33705D01*
Y34143D01*
X14890Y34362D01*
X14672Y34581D01*
X14453Y34690D01*
X13248Y36979D02*
X13029Y36869D01*
X12810Y36650D01*
X12700Y36431D01*
Y35993D01*
X12810Y35774D01*
X13029Y35555D01*
X13248Y35446D01*
X13577Y35336D01*
X14124D01*
X14453Y35446D01*
X14672Y35555D01*
X14890Y35774D01*
X15000Y35993D01*
Y36431D01*
X14890Y36650D01*
X14672Y36869D01*
X14453Y36979D01*
X15000Y64352D02*
X12700Y63476D01*
X15000Y62600D01*
X14233Y62928D02*
Y64024D01*
X12700Y64889D02*
X15000D01*
X12700D02*
X15000Y66422D01*
X12700D02*
X15000D01*
X12700Y67823D02*
X15000D01*
X12700Y67057D02*
Y68590D01*
D19*
X88931Y10350D02*
D03*
M02*
