G04 Layer_Color=32768*
%FSLAX25Y25*%
%MOIN*%
G70*
G01*
G75*
%ADD16C,0.01000*%
%ADD25C,0.00600*%
D16*
X101500Y80000D02*
X116000D01*
X101500Y0D02*
X116000D01*
X115000Y56495D02*
Y80000D01*
Y0D02*
Y20305D01*
X113000Y74000D02*
X115000Y80000D01*
X117000Y74000D01*
X115000Y0D02*
X117000Y6000D01*
X113000D02*
X115000Y0D01*
X100000Y81394D02*
Y101000D01*
X0Y81394D02*
Y101000D01*
X68994Y100000D02*
X100000D01*
X0D02*
X27806D01*
X94000Y102000D02*
X100000Y100000D01*
X94000Y98000D02*
X100000Y100000D01*
X0D02*
X6000Y98000D01*
X0Y100000D02*
X6000Y102000D01*
X95000Y79353D02*
Y91000D01*
X5000Y79353D02*
Y91000D01*
X66495Y90000D02*
X95000D01*
X5000D02*
X30305D01*
X89000Y92000D02*
X95000Y90000D01*
X89000Y88000D02*
X95000Y90000D01*
X5000D02*
X11000Y88000D01*
X5000Y90000D02*
X11000Y92000D01*
D25*
X113601Y21905D02*
X112601Y22905D01*
Y24904D01*
X113601Y25904D01*
X114600D01*
X115600Y24904D01*
X116600Y25904D01*
X117599D01*
X118599Y24904D01*
Y22905D01*
X117599Y21905D01*
X116600D01*
X115600Y22905D01*
X114600Y21905D01*
X113601D01*
X115600Y22905D02*
Y24904D01*
X113601Y27903D02*
X112601Y28903D01*
Y30902D01*
X113601Y31902D01*
X117599D01*
X118599Y30902D01*
Y28903D01*
X117599Y27903D01*
X113601D01*
Y33902D02*
X112601Y34901D01*
Y36900D01*
X113601Y37900D01*
X117599D01*
X118599Y36900D01*
Y34901D01*
X117599Y33902D01*
X113601D01*
X118599Y39900D02*
X117599D01*
Y40899D01*
X118599D01*
Y39900D01*
X113601Y44898D02*
X112601Y45898D01*
Y47897D01*
X113601Y48897D01*
X117599D01*
X118599Y47897D01*
Y45898D01*
X117599Y44898D01*
X113601D01*
Y50896D02*
X112601Y51896D01*
Y53895D01*
X113601Y54895D01*
X117599D01*
X118599Y53895D01*
Y51896D01*
X117599Y50896D01*
X113601D01*
X29406Y96401D02*
X31405D01*
X30406D01*
Y102399D01*
X29406Y101399D01*
X34405D02*
X35404Y102399D01*
X37404D01*
X38403Y101399D01*
Y97401D01*
X37404Y96401D01*
X35404D01*
X34405Y97401D01*
Y101399D01*
X40403D02*
X41402Y102399D01*
X43402D01*
X44401Y101399D01*
Y97401D01*
X43402Y96401D01*
X41402D01*
X40403Y97401D01*
Y101399D01*
X46401D02*
X47400Y102399D01*
X49400D01*
X50399Y101399D01*
Y97401D01*
X49400Y96401D01*
X47400D01*
X46401Y97401D01*
Y101399D01*
X52399Y96401D02*
Y97401D01*
X53398D01*
Y96401D01*
X52399D01*
X57397Y101399D02*
X58397Y102399D01*
X60396D01*
X61396Y101399D01*
Y97401D01*
X60396Y96401D01*
X58397D01*
X57397Y97401D01*
Y101399D01*
X63395D02*
X64395Y102399D01*
X66394D01*
X67394Y101399D01*
Y97401D01*
X66394Y96401D01*
X64395D01*
X63395Y97401D01*
Y101399D01*
X31905Y87401D02*
X32905Y86401D01*
X34904D01*
X35904Y87401D01*
Y91399D01*
X34904Y92399D01*
X32905D01*
X31905Y91399D01*
Y90400D01*
X32905Y89400D01*
X35904D01*
X37903Y91399D02*
X38903Y92399D01*
X40903D01*
X41902Y91399D01*
Y87401D01*
X40903Y86401D01*
X38903D01*
X37903Y87401D01*
Y91399D01*
X43902D02*
X44901Y92399D01*
X46900D01*
X47900Y91399D01*
Y87401D01*
X46900Y86401D01*
X44901D01*
X43902Y87401D01*
Y91399D01*
X49900Y86401D02*
Y87401D01*
X50899D01*
Y86401D01*
X49900D01*
X54898Y91399D02*
X55898Y92399D01*
X57897D01*
X58897Y91399D01*
Y87401D01*
X57897Y86401D01*
X55898D01*
X54898Y87401D01*
Y91399D01*
X60896D02*
X61896Y92399D01*
X63895D01*
X64895Y91399D01*
Y87401D01*
X63895Y86401D01*
X61896D01*
X60896Y87401D01*
Y91399D01*
M02*
