G04 Layer_Physical_Order=1*
G04 Layer_Color=255*
%FSLAX25Y25*%
%MOIN*%
G70*
G01*
G75*
%ADD10R,0.07700X0.04200*%
%ADD11C,0.03200*%
%ADD12R,0.05906X0.05906*%
%ADD13C,0.05906*%
D10*
X79634Y10400D02*
D03*
Y18300D02*
D03*
Y26100D02*
D03*
Y34000D02*
D03*
Y41937D02*
D03*
Y49811D02*
D03*
Y57685D02*
D03*
Y65559D02*
D03*
X21300D02*
D03*
Y57685D02*
D03*
Y49811D02*
D03*
Y41937D02*
D03*
Y34000D02*
D03*
Y26100D02*
D03*
Y18300D02*
D03*
Y10400D02*
D03*
D11*
X84641Y5000D02*
X95000D01*
X79200Y10441D02*
X84641Y5000D01*
X87379Y15000D02*
X95000D01*
Y25000D02*
Y25215D01*
X88900Y49900D02*
X94000Y55000D01*
X79200Y49900D02*
X88900D01*
X94000Y55000D02*
X95000D01*
X79200Y42000D02*
X79718Y41482D01*
X90518D01*
X94036Y45000D01*
X95000D01*
X94063Y34063D02*
X95000Y35000D01*
X79200Y34063D02*
X94063D01*
X88600Y75000D02*
X95000D01*
X79200Y65600D02*
X88600Y75000D01*
X5000Y5000D02*
X15425D01*
X20866Y10441D01*
X5000Y25000D02*
X6189Y26189D01*
X20866D01*
X11466Y75000D02*
X20866Y65600D01*
X5000Y75000D02*
X11466D01*
X5000Y15000D02*
X12687D01*
X16002Y18315D01*
X20866D01*
X79200Y57700D02*
X84038D01*
X87850Y61512D01*
Y61850D01*
X91000Y65000D01*
X95000D01*
X20866Y42000D02*
Y42100D01*
X20366Y50400D02*
X20866Y49900D01*
X5000Y35000D02*
X5937Y34063D01*
X20866D01*
X8964Y42000D02*
X20866D01*
X5000Y65000D02*
X9000D01*
X12216Y61784D01*
Y61512D02*
Y61784D01*
Y61512D02*
X16028Y57700D01*
X20866D01*
X5000Y55000D02*
X5964D01*
X10564Y50400D01*
X20366D01*
X5000Y45000D02*
X5964D01*
X8964Y42000D01*
X79200Y18315D02*
X84064D01*
X87379Y15000D01*
X79200Y26189D02*
X84064D01*
X85253Y25000D01*
X95000D01*
D12*
X95000Y5000D02*
D03*
X5000Y75000D02*
D03*
D13*
X95000Y15000D02*
D03*
Y25000D02*
D03*
Y35000D02*
D03*
Y45000D02*
D03*
Y55000D02*
D03*
Y65000D02*
D03*
Y75000D02*
D03*
X5000Y65000D02*
D03*
Y55000D02*
D03*
Y45000D02*
D03*
Y35000D02*
D03*
Y25000D02*
D03*
Y15000D02*
D03*
Y5000D02*
D03*
M02*
