G04 Layer_Color=16711935*
%FSLAX25Y25*%
%MOIN*%
G70*
G01*
G75*
%ADD16C,0.01000*%
D16*
X0Y0D02*
X100000D01*
X0D02*
Y80000D01*
X100000D01*
Y0D02*
Y80000D01*
X100000Y80000D02*
Y160000D01*
X0Y80000D02*
Y160000D01*
Y80000D02*
X100000D01*
X0Y160000D02*
X100000D01*
Y160000D02*
Y240000D01*
X0Y160000D02*
Y240000D01*
Y160000D02*
X100000D01*
X0Y240000D02*
X100000D01*
Y320000D01*
X0Y240000D02*
Y320000D01*
Y240000D02*
X100000D01*
X0Y320000D02*
X100000D01*
Y400000D01*
X0Y320000D02*
Y400000D01*
Y320000D02*
X100000D01*
X0Y400000D02*
X100000D01*
Y480000D01*
X0Y400000D02*
Y480000D01*
Y400000D02*
X100000D01*
X0Y480000D02*
X100000D01*
Y560000D01*
X0Y480000D02*
Y560000D01*
Y480000D02*
X100000D01*
X0Y560000D02*
X100000D01*
Y640000D01*
X0Y560000D02*
Y640000D01*
Y560000D02*
X100000D01*
X0Y640000D02*
X100000D01*
Y720000D01*
X0Y640000D02*
Y720000D01*
Y640000D02*
X100000D01*
X0Y720000D02*
X100000D01*
Y800000D01*
X0Y720000D02*
Y800000D01*
Y720000D02*
X100000D01*
X0Y800000D02*
X100000D01*
Y880000D01*
X0Y800000D02*
Y880000D01*
Y800000D02*
X100000D01*
X0Y880000D02*
X100000D01*
Y960000D01*
X0Y880000D02*
Y960000D01*
Y880000D02*
X100000D01*
X0Y960000D02*
X100000D01*
Y1040000D01*
X0Y960000D02*
Y1040000D01*
Y960000D02*
X100000D01*
X0Y1040000D02*
X100000D01*
X200000Y160000D02*
Y240000D01*
Y400000D02*
Y480000D01*
Y560000D02*
Y640000D01*
Y800000D02*
Y880000D01*
X200000Y0D02*
Y80000D01*
X200000Y80000D02*
Y160000D01*
Y240000D02*
Y320000D01*
Y400000D01*
Y480000D02*
Y560000D01*
Y640000D02*
Y720000D01*
Y800000D01*
Y880000D02*
Y960000D01*
Y1040000D01*
X100000Y160000D02*
Y240000D01*
Y400000D02*
Y480000D01*
Y560000D02*
Y640000D01*
Y800000D02*
Y880000D01*
X100000Y0D02*
Y80000D01*
X100000Y80000D02*
Y160000D01*
Y240000D02*
Y320000D01*
Y400000D01*
Y480000D02*
Y560000D01*
Y640000D02*
Y720000D01*
Y800000D01*
Y880000D02*
Y960000D01*
Y1040000D01*
X100000Y0D02*
X200000D01*
X100000Y80000D02*
X200000D01*
X100000Y80000D02*
X200000D01*
X100000Y160000D02*
X200000D01*
X100000Y160000D02*
X200000D01*
X100000Y240000D02*
X200000D01*
X100000D02*
X200000D01*
X100000Y320000D02*
X200000D01*
X100000D02*
X200000D01*
X100000Y400000D02*
X200000D01*
X100000D02*
X200000D01*
X100000Y480000D02*
X200000D01*
X100000D02*
X200000D01*
X100000Y560000D02*
X200000D01*
X100000D02*
X200000D01*
X100000Y640000D02*
X200000D01*
X100000D02*
X200000D01*
X100000Y720000D02*
X200000D01*
X100000D02*
X200000D01*
X100000Y800000D02*
X200000D01*
X100000D02*
X200000D01*
X100000Y880000D02*
X200000D01*
X100000D02*
X200000D01*
X100000Y960000D02*
X200000D01*
X100000D02*
X200000D01*
X100000Y1040000D02*
X200000D01*
X300000Y160000D02*
Y240000D01*
X300000Y160000D02*
Y240000D01*
X300000Y400000D02*
Y480000D01*
X300000Y400000D02*
Y480000D01*
X300000Y560000D02*
Y640000D01*
X300000Y560000D02*
Y640000D01*
X300000Y800000D02*
Y880000D01*
X300000Y800000D02*
Y880000D01*
X300000Y0D02*
Y80000D01*
X300000Y80000D02*
Y160000D01*
Y240000D02*
Y320000D01*
Y400000D01*
X300000Y80000D02*
Y160000D01*
Y240000D02*
Y320000D01*
Y400000D01*
X300000Y0D02*
Y80000D01*
X300000Y480000D02*
Y560000D01*
Y640000D02*
Y720000D01*
Y800000D01*
Y880000D02*
Y960000D01*
X300000Y480000D02*
Y560000D01*
Y720000D02*
Y800000D01*
Y880000D02*
Y960000D01*
Y640000D02*
Y720000D01*
X300000Y960000D02*
Y1040000D01*
X300000Y960000D02*
Y1040000D01*
X200000Y160000D02*
Y240000D01*
Y400000D02*
Y480000D01*
Y560000D02*
Y640000D01*
Y800000D02*
Y880000D01*
X400000Y160000D02*
Y240000D01*
Y400000D02*
Y480000D01*
Y560000D02*
Y640000D01*
Y800000D02*
Y880000D01*
X200000Y0D02*
Y80000D01*
X200000Y80000D02*
Y160000D01*
Y240000D02*
Y320000D01*
Y400000D01*
Y480000D02*
Y560000D01*
Y640000D02*
Y720000D01*
Y800000D01*
Y880000D02*
Y960000D01*
X400000Y80000D02*
Y160000D01*
Y240000D02*
Y320000D01*
Y400000D01*
X400000Y0D02*
Y80000D01*
X400000Y480000D02*
Y560000D01*
Y720000D02*
Y800000D01*
Y880000D02*
Y960000D01*
Y640000D02*
Y720000D01*
X200000Y960000D02*
Y1040000D01*
X400000Y960000D02*
Y1040000D01*
X200000Y0D02*
X300000D01*
X300000D02*
X400000D01*
X200000Y80000D02*
X300000D01*
X200000Y80000D02*
X300000D01*
X300000Y80000D02*
X400000D01*
X300000Y80000D02*
X400000D01*
X200000Y160000D02*
X300000D01*
X200000Y160000D02*
X300000D01*
X300000Y160000D02*
X400000D01*
X300000Y160000D02*
X400000D01*
X200000Y240000D02*
X300000D01*
X200000D02*
X300000D01*
X300000D02*
X400000D01*
X300000D02*
X400000D01*
X200000Y320000D02*
X300000D01*
X200000D02*
X300000D01*
X300000D02*
X400000D01*
X300000D02*
X400000D01*
X200000Y400000D02*
X300000D01*
X200000D02*
X300000D01*
X300000D02*
X400000D01*
X300000D02*
X400000D01*
X200000Y480000D02*
X300000D01*
X200000D02*
X300000D01*
X300000D02*
X400000D01*
X300000D02*
X400000D01*
X200000Y560000D02*
X300000D01*
X200000D02*
X300000D01*
X300000D02*
X400000D01*
X300000D02*
X400000D01*
X200000Y640000D02*
X300000D01*
X200000D02*
X300000D01*
X300000D02*
X400000D01*
X300000D02*
X400000D01*
X200000Y720000D02*
X300000D01*
X200000D02*
X300000D01*
X300000D02*
X400000D01*
X300000D02*
X400000D01*
X200000Y800000D02*
X300000D01*
X200000D02*
X300000D01*
X300000D02*
X400000D01*
X300000D02*
X400000D01*
X200000Y880000D02*
X300000D01*
X200000D02*
X300000D01*
X300000D02*
X400000D01*
X300000D02*
X400000D01*
X200000Y960000D02*
X300000D01*
X200000D02*
X300000D01*
X300000D02*
X400000D01*
X300000D02*
X400000D01*
X200000Y1040000D02*
X300000D01*
X300000D02*
X400000D01*
X500000Y160000D02*
Y240000D01*
X500000Y160000D02*
Y240000D01*
X500000Y400000D02*
Y480000D01*
X500000Y400000D02*
Y480000D01*
X500000Y560000D02*
Y640000D01*
X500000Y560000D02*
Y640000D01*
X500000Y800000D02*
Y880000D01*
X500000Y800000D02*
Y880000D01*
X500000Y0D02*
Y80000D01*
X500000Y80000D02*
Y160000D01*
Y240000D02*
Y320000D01*
Y400000D01*
X500000Y80000D02*
Y160000D01*
Y240000D02*
Y320000D01*
Y400000D01*
X500000Y0D02*
Y80000D01*
X500000Y480000D02*
Y560000D01*
Y640000D02*
Y720000D01*
Y800000D01*
Y880000D02*
Y960000D01*
X500000Y480000D02*
Y560000D01*
Y720000D02*
Y800000D01*
Y880000D02*
Y960000D01*
Y640000D02*
Y720000D01*
X500000Y960000D02*
Y1040000D01*
X500000Y960000D02*
Y1040000D01*
X400000Y160000D02*
Y240000D01*
Y400000D02*
Y480000D01*
Y560000D02*
Y640000D01*
Y800000D02*
Y880000D01*
X600000Y160000D02*
Y240000D01*
Y400000D02*
Y480000D01*
Y560000D02*
Y640000D01*
Y800000D02*
Y880000D01*
X400000Y0D02*
Y80000D01*
X400000Y80000D02*
Y160000D01*
Y240000D02*
Y320000D01*
Y400000D01*
Y480000D02*
Y560000D01*
Y640000D02*
Y720000D01*
Y800000D01*
Y880000D02*
Y960000D01*
X600000Y80000D02*
Y160000D01*
Y240000D02*
Y320000D01*
Y400000D01*
X600000Y0D02*
Y80000D01*
X600000Y480000D02*
Y560000D01*
Y720000D02*
Y800000D01*
Y880000D02*
Y960000D01*
Y640000D02*
Y720000D01*
X400000Y960000D02*
Y1040000D01*
X600000Y960000D02*
Y1040000D01*
X400000Y0D02*
X500000D01*
X500000D02*
X600000D01*
X400000Y80000D02*
X500000D01*
X400000Y80000D02*
X500000D01*
X500000Y80000D02*
X600000D01*
X500000Y80000D02*
X600000D01*
X400000Y160000D02*
X500000D01*
X400000Y160000D02*
X500000D01*
X500000Y160000D02*
X600000D01*
X500000Y160000D02*
X600000D01*
X400000Y240000D02*
X500000D01*
X400000D02*
X500000D01*
X500000D02*
X600000D01*
X500000D02*
X600000D01*
X400000Y320000D02*
X500000D01*
X400000D02*
X500000D01*
X500000D02*
X600000D01*
X500000D02*
X600000D01*
X400000Y400000D02*
X500000D01*
X400000D02*
X500000D01*
X500000D02*
X600000D01*
X500000D02*
X600000D01*
X400000Y480000D02*
X500000D01*
X400000D02*
X500000D01*
X500000D02*
X600000D01*
X500000D02*
X600000D01*
X400000Y560000D02*
X500000D01*
X400000D02*
X500000D01*
X500000D02*
X600000D01*
X500000D02*
X600000D01*
X400000Y640000D02*
X500000D01*
X400000D02*
X500000D01*
X500000D02*
X600000D01*
X500000D02*
X600000D01*
X400000Y720000D02*
X500000D01*
X400000D02*
X500000D01*
X500000D02*
X600000D01*
X500000D02*
X600000D01*
X400000Y800000D02*
X500000D01*
X400000D02*
X500000D01*
X500000D02*
X600000D01*
X500000D02*
X600000D01*
X400000Y880000D02*
X500000D01*
X400000D02*
X500000D01*
X500000D02*
X600000D01*
X500000D02*
X600000D01*
X400000Y960000D02*
X500000D01*
X400000D02*
X500000D01*
X500000D02*
X600000D01*
X500000D02*
X600000D01*
X400000Y1040000D02*
X500000D01*
X500000D02*
X600000D01*
X600000Y160000D02*
Y240000D01*
X600000Y160000D02*
Y240000D01*
X600000Y400000D02*
Y480000D01*
X600000Y400000D02*
Y480000D01*
X600000Y560000D02*
Y640000D01*
X600000Y560000D02*
Y640000D01*
X600000Y800000D02*
Y880000D01*
X600000Y800000D02*
Y880000D01*
X600000Y0D02*
Y80000D01*
X600000Y80000D02*
Y160000D01*
Y240000D02*
Y320000D01*
Y400000D01*
X600000Y80000D02*
Y160000D01*
Y240000D02*
Y320000D01*
Y400000D01*
X600000Y0D02*
Y80000D01*
X600000Y480000D02*
Y560000D01*
Y640000D02*
Y720000D01*
Y800000D01*
Y880000D02*
Y960000D01*
X600000Y480000D02*
Y560000D01*
Y720000D02*
Y800000D01*
Y880000D02*
Y960000D01*
Y640000D02*
Y720000D01*
X600000Y960000D02*
Y1040000D01*
X600000Y960000D02*
Y1040000D01*
X700000Y160000D02*
Y240000D01*
Y400000D02*
Y480000D01*
Y560000D02*
Y640000D01*
Y800000D02*
Y880000D01*
Y80000D02*
Y160000D01*
Y240000D02*
Y320000D01*
Y400000D01*
X700000Y0D02*
Y80000D01*
X700000Y480000D02*
Y560000D01*
Y720000D02*
Y800000D01*
Y880000D02*
Y960000D01*
Y640000D02*
Y720000D01*
Y960000D02*
Y1040000D01*
X600000Y0D02*
X700000D01*
X600000Y80000D02*
X700000D01*
X600000Y80000D02*
X700000D01*
X600000Y160000D02*
X700000D01*
X600000Y160000D02*
X700000D01*
X600000Y240000D02*
X700000D01*
X600000D02*
X700000D01*
X600000Y320000D02*
X700000D01*
X600000D02*
X700000D01*
X600000Y400000D02*
X700000D01*
X600000D02*
X700000D01*
X600000Y480000D02*
X700000D01*
X600000D02*
X700000D01*
X600000Y560000D02*
X700000D01*
X600000D02*
X700000D01*
X600000Y640000D02*
X700000D01*
X600000D02*
X700000D01*
X600000Y720000D02*
X700000D01*
X600000D02*
X700000D01*
X600000Y800000D02*
X700000D01*
X600000D02*
X700000D01*
X600000Y880000D02*
X700000D01*
X600000D02*
X700000D01*
X600000Y960000D02*
X700000D01*
X600000D02*
X700000D01*
X600000Y1040000D02*
X700000D01*
X40000Y72000D02*
Y76998D01*
X42499D01*
X43332Y76165D01*
Y74499D01*
X42499Y73666D01*
X40000D01*
X41666D02*
X43332Y72000D01*
X48331Y76998D02*
X44998D01*
Y74499D01*
X46665D01*
X44998D01*
Y72000D01*
X49997D02*
Y76998D01*
X51663Y75332D01*
X53329Y76998D01*
Y72000D01*
X54995Y72833D02*
X55828Y72000D01*
X57494D01*
X58327Y72833D01*
Y76165D01*
X57494Y76998D01*
X55828D01*
X54995Y76165D01*
Y75332D01*
X55828Y74499D01*
X58327D01*
X59993Y75332D02*
X63326Y72000D01*
X61660Y73666D01*
X63326Y75332D01*
X59993Y72000D01*
X40000Y152000D02*
Y156998D01*
X42499D01*
X43332Y156165D01*
Y154499D01*
X42499Y153666D01*
X40000D01*
X41666D02*
X43332Y152000D01*
X48331Y156998D02*
X44998D01*
Y154499D01*
X46665D01*
X44998D01*
Y152000D01*
X49997D02*
Y156998D01*
X51663Y155332D01*
X53329Y156998D01*
Y152000D01*
X54995Y152833D02*
X55828Y152000D01*
X57494D01*
X58327Y152833D01*
Y156165D01*
X57494Y156998D01*
X55828D01*
X54995Y156165D01*
Y155332D01*
X55828Y154499D01*
X58327D01*
X59993Y155332D02*
X63326Y152000D01*
X61660Y153666D01*
X63326Y155332D01*
X59993Y152000D01*
X40000Y232000D02*
Y236998D01*
X42499D01*
X43332Y236165D01*
Y234499D01*
X42499Y233666D01*
X40000D01*
X41666D02*
X43332Y232000D01*
X48331Y236998D02*
X44998D01*
Y234499D01*
X46665D01*
X44998D01*
Y232000D01*
X49997D02*
Y236998D01*
X51663Y235332D01*
X53329Y236998D01*
Y232000D01*
X54995Y232833D02*
X55828Y232000D01*
X57494D01*
X58327Y232833D01*
Y236165D01*
X57494Y236998D01*
X55828D01*
X54995Y236165D01*
Y235332D01*
X55828Y234499D01*
X58327D01*
X59993Y235332D02*
X63326Y232000D01*
X61660Y233666D01*
X63326Y235332D01*
X59993Y232000D01*
X40000Y312000D02*
Y316998D01*
X42499D01*
X43332Y316165D01*
Y314499D01*
X42499Y313666D01*
X40000D01*
X41666D02*
X43332Y312000D01*
X48331Y316998D02*
X44998D01*
Y314499D01*
X46665D01*
X44998D01*
Y312000D01*
X49997D02*
Y316998D01*
X51663Y315332D01*
X53329Y316998D01*
Y312000D01*
X54995Y312833D02*
X55828Y312000D01*
X57494D01*
X58327Y312833D01*
Y316165D01*
X57494Y316998D01*
X55828D01*
X54995Y316165D01*
Y315332D01*
X55828Y314499D01*
X58327D01*
X59993Y315332D02*
X63326Y312000D01*
X61660Y313666D01*
X63326Y315332D01*
X59993Y312000D01*
X40000Y392000D02*
Y396998D01*
X42499D01*
X43332Y396165D01*
Y394499D01*
X42499Y393666D01*
X40000D01*
X41666D02*
X43332Y392000D01*
X48331Y396998D02*
X44998D01*
Y394499D01*
X46665D01*
X44998D01*
Y392000D01*
X49997D02*
Y396998D01*
X51663Y395332D01*
X53329Y396998D01*
Y392000D01*
X54995Y392833D02*
X55828Y392000D01*
X57494D01*
X58327Y392833D01*
Y396165D01*
X57494Y396998D01*
X55828D01*
X54995Y396165D01*
Y395332D01*
X55828Y394499D01*
X58327D01*
X59993Y395332D02*
X63326Y392000D01*
X61660Y393666D01*
X63326Y395332D01*
X59993Y392000D01*
X40000Y472000D02*
Y476998D01*
X42499D01*
X43332Y476165D01*
Y474499D01*
X42499Y473666D01*
X40000D01*
X41666D02*
X43332Y472000D01*
X48331Y476998D02*
X44998D01*
Y474499D01*
X46665D01*
X44998D01*
Y472000D01*
X49997D02*
Y476998D01*
X51663Y475332D01*
X53329Y476998D01*
Y472000D01*
X54995Y472833D02*
X55828Y472000D01*
X57494D01*
X58327Y472833D01*
Y476165D01*
X57494Y476998D01*
X55828D01*
X54995Y476165D01*
Y475332D01*
X55828Y474499D01*
X58327D01*
X59993Y475332D02*
X63326Y472000D01*
X61660Y473666D01*
X63326Y475332D01*
X59993Y472000D01*
X40000Y552000D02*
Y556998D01*
X42499D01*
X43332Y556165D01*
Y554499D01*
X42499Y553666D01*
X40000D01*
X41666D02*
X43332Y552000D01*
X48331Y556998D02*
X44998D01*
Y554499D01*
X46665D01*
X44998D01*
Y552000D01*
X49997D02*
Y556998D01*
X51663Y555332D01*
X53329Y556998D01*
Y552000D01*
X54995Y552833D02*
X55828Y552000D01*
X57494D01*
X58327Y552833D01*
Y556165D01*
X57494Y556998D01*
X55828D01*
X54995Y556165D01*
Y555332D01*
X55828Y554499D01*
X58327D01*
X59993Y555332D02*
X63326Y552000D01*
X61660Y553666D01*
X63326Y555332D01*
X59993Y552000D01*
X40000Y632000D02*
Y636998D01*
X42499D01*
X43332Y636165D01*
Y634499D01*
X42499Y633666D01*
X40000D01*
X41666D02*
X43332Y632000D01*
X48331Y636998D02*
X44998D01*
Y634499D01*
X46665D01*
X44998D01*
Y632000D01*
X49997D02*
Y636998D01*
X51663Y635332D01*
X53329Y636998D01*
Y632000D01*
X54995Y632833D02*
X55828Y632000D01*
X57494D01*
X58327Y632833D01*
Y636165D01*
X57494Y636998D01*
X55828D01*
X54995Y636165D01*
Y635332D01*
X55828Y634499D01*
X58327D01*
X59993Y635332D02*
X63326Y632000D01*
X61660Y633666D01*
X63326Y635332D01*
X59993Y632000D01*
X40000Y712000D02*
Y716998D01*
X42499D01*
X43332Y716165D01*
Y714499D01*
X42499Y713666D01*
X40000D01*
X41666D02*
X43332Y712000D01*
X48331Y716998D02*
X44998D01*
Y714499D01*
X46665D01*
X44998D01*
Y712000D01*
X49997D02*
Y716998D01*
X51663Y715332D01*
X53329Y716998D01*
Y712000D01*
X54995Y712833D02*
X55828Y712000D01*
X57494D01*
X58327Y712833D01*
Y716165D01*
X57494Y716998D01*
X55828D01*
X54995Y716165D01*
Y715332D01*
X55828Y714499D01*
X58327D01*
X59993Y715332D02*
X63326Y712000D01*
X61660Y713666D01*
X63326Y715332D01*
X59993Y712000D01*
X40000Y792000D02*
Y796998D01*
X42499D01*
X43332Y796165D01*
Y794499D01*
X42499Y793666D01*
X40000D01*
X41666D02*
X43332Y792000D01*
X48331Y796998D02*
X44998D01*
Y794499D01*
X46665D01*
X44998D01*
Y792000D01*
X49997D02*
Y796998D01*
X51663Y795332D01*
X53329Y796998D01*
Y792000D01*
X54995Y792833D02*
X55828Y792000D01*
X57494D01*
X58327Y792833D01*
Y796165D01*
X57494Y796998D01*
X55828D01*
X54995Y796165D01*
Y795332D01*
X55828Y794499D01*
X58327D01*
X59993Y795332D02*
X63326Y792000D01*
X61660Y793666D01*
X63326Y795332D01*
X59993Y792000D01*
X40000Y872000D02*
Y876998D01*
X42499D01*
X43332Y876165D01*
Y874499D01*
X42499Y873666D01*
X40000D01*
X41666D02*
X43332Y872000D01*
X48331Y876998D02*
X44998D01*
Y874499D01*
X46665D01*
X44998D01*
Y872000D01*
X49997D02*
Y876998D01*
X51663Y875332D01*
X53329Y876998D01*
Y872000D01*
X54995Y872833D02*
X55828Y872000D01*
X57494D01*
X58327Y872833D01*
Y876165D01*
X57494Y876998D01*
X55828D01*
X54995Y876165D01*
Y875332D01*
X55828Y874499D01*
X58327D01*
X59993Y875332D02*
X63326Y872000D01*
X61660Y873666D01*
X63326Y875332D01*
X59993Y872000D01*
X40000Y952000D02*
Y956998D01*
X42499D01*
X43332Y956165D01*
Y954499D01*
X42499Y953666D01*
X40000D01*
X41666D02*
X43332Y952000D01*
X48331Y956998D02*
X44998D01*
Y954499D01*
X46665D01*
X44998D01*
Y952000D01*
X49997D02*
Y956998D01*
X51663Y955332D01*
X53329Y956998D01*
Y952000D01*
X54995Y952833D02*
X55828Y952000D01*
X57494D01*
X58327Y952833D01*
Y956165D01*
X57494Y956998D01*
X55828D01*
X54995Y956165D01*
Y955332D01*
X55828Y954499D01*
X58327D01*
X59993Y955332D02*
X63326Y952000D01*
X61660Y953666D01*
X63326Y955332D01*
X59993Y952000D01*
X40000Y1032000D02*
Y1036998D01*
X42499D01*
X43332Y1036165D01*
Y1034499D01*
X42499Y1033666D01*
X40000D01*
X41666D02*
X43332Y1032000D01*
X48331Y1036998D02*
X44998D01*
Y1034499D01*
X46665D01*
X44998D01*
Y1032000D01*
X49997D02*
Y1036998D01*
X51663Y1035332D01*
X53329Y1036998D01*
Y1032000D01*
X54995Y1032833D02*
X55828Y1032000D01*
X57494D01*
X58327Y1032833D01*
Y1036165D01*
X57494Y1036998D01*
X55828D01*
X54995Y1036165D01*
Y1035332D01*
X55828Y1034499D01*
X58327D01*
X59993Y1035332D02*
X63326Y1032000D01*
X61660Y1033666D01*
X63326Y1035332D01*
X59993Y1032000D01*
X140000Y72000D02*
Y76998D01*
X142499D01*
X143333Y76165D01*
Y74499D01*
X142499Y73666D01*
X140000D01*
X141666D02*
X143333Y72000D01*
X148331Y76998D02*
X144999D01*
Y74499D01*
X146665D01*
X144999D01*
Y72000D01*
X149997D02*
Y76998D01*
X151663Y75332D01*
X153329Y76998D01*
Y72000D01*
X154995Y72833D02*
X155828Y72000D01*
X157494D01*
X158328Y72833D01*
Y76165D01*
X157494Y76998D01*
X155828D01*
X154995Y76165D01*
Y75332D01*
X155828Y74499D01*
X158328D01*
X159994Y75332D02*
X163326Y72000D01*
X161660Y73666D01*
X163326Y75332D01*
X159994Y72000D01*
X140000Y152000D02*
Y156998D01*
X142499D01*
X143332Y156165D01*
Y154499D01*
X142499Y153666D01*
X140000D01*
X141666D02*
X143332Y152000D01*
X148331Y156998D02*
X144999D01*
Y154499D01*
X146665D01*
X144999D01*
Y152000D01*
X149997D02*
Y156998D01*
X151663Y155332D01*
X153329Y156998D01*
Y152000D01*
X154995Y152833D02*
X155828Y152000D01*
X157494D01*
X158327Y152833D01*
Y156165D01*
X157494Y156998D01*
X155828D01*
X154995Y156165D01*
Y155332D01*
X155828Y154499D01*
X158327D01*
X159994Y155332D02*
X163326Y152000D01*
X161660Y153666D01*
X163326Y155332D01*
X159994Y152000D01*
X140000Y232000D02*
Y236998D01*
X142499D01*
X143332Y236165D01*
Y234499D01*
X142499Y233666D01*
X140000D01*
X141666D02*
X143332Y232000D01*
X148331Y236998D02*
X144999D01*
Y234499D01*
X146665D01*
X144999D01*
Y232000D01*
X149997D02*
Y236998D01*
X151663Y235332D01*
X153329Y236998D01*
Y232000D01*
X154995Y232833D02*
X155828Y232000D01*
X157494D01*
X158327Y232833D01*
Y236165D01*
X157494Y236998D01*
X155828D01*
X154995Y236165D01*
Y235332D01*
X155828Y234499D01*
X158327D01*
X159994Y235332D02*
X163326Y232000D01*
X161660Y233666D01*
X163326Y235332D01*
X159994Y232000D01*
X140000Y312000D02*
Y316998D01*
X142499D01*
X143332Y316165D01*
Y314499D01*
X142499Y313666D01*
X140000D01*
X141666D02*
X143332Y312000D01*
X148331Y316998D02*
X144999D01*
Y314499D01*
X146665D01*
X144999D01*
Y312000D01*
X149997D02*
Y316998D01*
X151663Y315332D01*
X153329Y316998D01*
Y312000D01*
X154995Y312833D02*
X155828Y312000D01*
X157494D01*
X158327Y312833D01*
Y316165D01*
X157494Y316998D01*
X155828D01*
X154995Y316165D01*
Y315332D01*
X155828Y314499D01*
X158327D01*
X159994Y315332D02*
X163326Y312000D01*
X161660Y313666D01*
X163326Y315332D01*
X159994Y312000D01*
X140000Y392000D02*
Y396998D01*
X142499D01*
X143332Y396165D01*
Y394499D01*
X142499Y393666D01*
X140000D01*
X141666D02*
X143332Y392000D01*
X148331Y396998D02*
X144999D01*
Y394499D01*
X146665D01*
X144999D01*
Y392000D01*
X149997D02*
Y396998D01*
X151663Y395332D01*
X153329Y396998D01*
Y392000D01*
X154995Y392833D02*
X155828Y392000D01*
X157494D01*
X158327Y392833D01*
Y396165D01*
X157494Y396998D01*
X155828D01*
X154995Y396165D01*
Y395332D01*
X155828Y394499D01*
X158327D01*
X159994Y395332D02*
X163326Y392000D01*
X161660Y393666D01*
X163326Y395332D01*
X159994Y392000D01*
X140000Y472000D02*
Y476998D01*
X142499D01*
X143332Y476165D01*
Y474499D01*
X142499Y473666D01*
X140000D01*
X141666D02*
X143332Y472000D01*
X148331Y476998D02*
X144999D01*
Y474499D01*
X146665D01*
X144999D01*
Y472000D01*
X149997D02*
Y476998D01*
X151663Y475332D01*
X153329Y476998D01*
Y472000D01*
X154995Y472833D02*
X155828Y472000D01*
X157494D01*
X158327Y472833D01*
Y476165D01*
X157494Y476998D01*
X155828D01*
X154995Y476165D01*
Y475332D01*
X155828Y474499D01*
X158327D01*
X159994Y475332D02*
X163326Y472000D01*
X161660Y473666D01*
X163326Y475332D01*
X159994Y472000D01*
X140000Y552000D02*
Y556998D01*
X142499D01*
X143332Y556165D01*
Y554499D01*
X142499Y553666D01*
X140000D01*
X141666D02*
X143332Y552000D01*
X148331Y556998D02*
X144999D01*
Y554499D01*
X146665D01*
X144999D01*
Y552000D01*
X149997D02*
Y556998D01*
X151663Y555332D01*
X153329Y556998D01*
Y552000D01*
X154995Y552833D02*
X155828Y552000D01*
X157494D01*
X158327Y552833D01*
Y556165D01*
X157494Y556998D01*
X155828D01*
X154995Y556165D01*
Y555332D01*
X155828Y554499D01*
X158327D01*
X159994Y555332D02*
X163326Y552000D01*
X161660Y553666D01*
X163326Y555332D01*
X159994Y552000D01*
X140000Y632000D02*
Y636998D01*
X142499D01*
X143332Y636165D01*
Y634499D01*
X142499Y633666D01*
X140000D01*
X141666D02*
X143332Y632000D01*
X148331Y636998D02*
X144999D01*
Y634499D01*
X146665D01*
X144999D01*
Y632000D01*
X149997D02*
Y636998D01*
X151663Y635332D01*
X153329Y636998D01*
Y632000D01*
X154995Y632833D02*
X155828Y632000D01*
X157494D01*
X158327Y632833D01*
Y636165D01*
X157494Y636998D01*
X155828D01*
X154995Y636165D01*
Y635332D01*
X155828Y634499D01*
X158327D01*
X159994Y635332D02*
X163326Y632000D01*
X161660Y633666D01*
X163326Y635332D01*
X159994Y632000D01*
X140000Y712000D02*
Y716998D01*
X142499D01*
X143332Y716165D01*
Y714499D01*
X142499Y713666D01*
X140000D01*
X141666D02*
X143332Y712000D01*
X148331Y716998D02*
X144999D01*
Y714499D01*
X146665D01*
X144999D01*
Y712000D01*
X149997D02*
Y716998D01*
X151663Y715332D01*
X153329Y716998D01*
Y712000D01*
X154995Y712833D02*
X155828Y712000D01*
X157494D01*
X158327Y712833D01*
Y716165D01*
X157494Y716998D01*
X155828D01*
X154995Y716165D01*
Y715332D01*
X155828Y714499D01*
X158327D01*
X159994Y715332D02*
X163326Y712000D01*
X161660Y713666D01*
X163326Y715332D01*
X159994Y712000D01*
X140000Y792000D02*
Y796998D01*
X142499D01*
X143332Y796165D01*
Y794499D01*
X142499Y793666D01*
X140000D01*
X141666D02*
X143332Y792000D01*
X148331Y796998D02*
X144999D01*
Y794499D01*
X146665D01*
X144999D01*
Y792000D01*
X149997D02*
Y796998D01*
X151663Y795332D01*
X153329Y796998D01*
Y792000D01*
X154995Y792833D02*
X155828Y792000D01*
X157494D01*
X158327Y792833D01*
Y796165D01*
X157494Y796998D01*
X155828D01*
X154995Y796165D01*
Y795332D01*
X155828Y794499D01*
X158327D01*
X159994Y795332D02*
X163326Y792000D01*
X161660Y793666D01*
X163326Y795332D01*
X159994Y792000D01*
X140000Y872000D02*
Y876998D01*
X142499D01*
X143332Y876165D01*
Y874499D01*
X142499Y873666D01*
X140000D01*
X141666D02*
X143332Y872000D01*
X148331Y876998D02*
X144999D01*
Y874499D01*
X146665D01*
X144999D01*
Y872000D01*
X149997D02*
Y876998D01*
X151663Y875332D01*
X153329Y876998D01*
Y872000D01*
X154995Y872833D02*
X155828Y872000D01*
X157494D01*
X158327Y872833D01*
Y876165D01*
X157494Y876998D01*
X155828D01*
X154995Y876165D01*
Y875332D01*
X155828Y874499D01*
X158327D01*
X159994Y875332D02*
X163326Y872000D01*
X161660Y873666D01*
X163326Y875332D01*
X159994Y872000D01*
X140000Y952000D02*
Y956998D01*
X142499D01*
X143332Y956165D01*
Y954499D01*
X142499Y953666D01*
X140000D01*
X141666D02*
X143332Y952000D01*
X148331Y956998D02*
X144999D01*
Y954499D01*
X146665D01*
X144999D01*
Y952000D01*
X149997D02*
Y956998D01*
X151663Y955332D01*
X153329Y956998D01*
Y952000D01*
X154995Y952833D02*
X155828Y952000D01*
X157494D01*
X158327Y952833D01*
Y956165D01*
X157494Y956998D01*
X155828D01*
X154995Y956165D01*
Y955332D01*
X155828Y954499D01*
X158327D01*
X159994Y955332D02*
X163326Y952000D01*
X161660Y953666D01*
X163326Y955332D01*
X159994Y952000D01*
X140000Y1032000D02*
Y1036998D01*
X142499D01*
X143332Y1036165D01*
Y1034499D01*
X142499Y1033666D01*
X140000D01*
X141666D02*
X143332Y1032000D01*
X148331Y1036998D02*
X144999D01*
Y1034499D01*
X146665D01*
X144999D01*
Y1032000D01*
X149997D02*
Y1036998D01*
X151663Y1035332D01*
X153329Y1036998D01*
Y1032000D01*
X154995Y1032833D02*
X155828Y1032000D01*
X157494D01*
X158327Y1032833D01*
Y1036165D01*
X157494Y1036998D01*
X155828D01*
X154995Y1036165D01*
Y1035332D01*
X155828Y1034499D01*
X158327D01*
X159994Y1035332D02*
X163326Y1032000D01*
X161660Y1033666D01*
X163326Y1035332D01*
X159994Y1032000D01*
X240000Y72000D02*
Y76998D01*
X242499D01*
X243332Y76165D01*
Y74499D01*
X242499Y73666D01*
X240000D01*
X241666D02*
X243332Y72000D01*
X248331Y76998D02*
X244998D01*
Y74499D01*
X246665D01*
X244998D01*
Y72000D01*
X249997D02*
Y76998D01*
X251663Y75332D01*
X253329Y76998D01*
Y72000D01*
X254995Y72833D02*
X255828Y72000D01*
X257494D01*
X258327Y72833D01*
Y76165D01*
X257494Y76998D01*
X255828D01*
X254995Y76165D01*
Y75332D01*
X255828Y74499D01*
X258327D01*
X259994Y75332D02*
X263326Y72000D01*
X261660Y73666D01*
X263326Y75332D01*
X259994Y72000D01*
X240000Y152000D02*
Y156998D01*
X242499D01*
X243332Y156165D01*
Y154499D01*
X242499Y153666D01*
X240000D01*
X241666D02*
X243332Y152000D01*
X248330Y156998D02*
X244998D01*
Y154499D01*
X246664D01*
X244998D01*
Y152000D01*
X249997D02*
Y156998D01*
X251663Y155332D01*
X253329Y156998D01*
Y152000D01*
X254995Y152833D02*
X255828Y152000D01*
X257494D01*
X258327Y152833D01*
Y156165D01*
X257494Y156998D01*
X255828D01*
X254995Y156165D01*
Y155332D01*
X255828Y154499D01*
X258327D01*
X259993Y155332D02*
X263326Y152000D01*
X261660Y153666D01*
X263326Y155332D01*
X259993Y152000D01*
X240000Y232000D02*
Y236998D01*
X242499D01*
X243332Y236165D01*
Y234499D01*
X242499Y233666D01*
X240000D01*
X241666D02*
X243332Y232000D01*
X248330Y236998D02*
X244998D01*
Y234499D01*
X246664D01*
X244998D01*
Y232000D01*
X249997D02*
Y236998D01*
X251663Y235332D01*
X253329Y236998D01*
Y232000D01*
X254995Y232833D02*
X255828Y232000D01*
X257494D01*
X258327Y232833D01*
Y236165D01*
X257494Y236998D01*
X255828D01*
X254995Y236165D01*
Y235332D01*
X255828Y234499D01*
X258327D01*
X259993Y235332D02*
X263326Y232000D01*
X261660Y233666D01*
X263326Y235332D01*
X259993Y232000D01*
X240000Y312000D02*
Y316998D01*
X242499D01*
X243332Y316165D01*
Y314499D01*
X242499Y313666D01*
X240000D01*
X241666D02*
X243332Y312000D01*
X248330Y316998D02*
X244998D01*
Y314499D01*
X246664D01*
X244998D01*
Y312000D01*
X249997D02*
Y316998D01*
X251663Y315332D01*
X253329Y316998D01*
Y312000D01*
X254995Y312833D02*
X255828Y312000D01*
X257494D01*
X258327Y312833D01*
Y316165D01*
X257494Y316998D01*
X255828D01*
X254995Y316165D01*
Y315332D01*
X255828Y314499D01*
X258327D01*
X259993Y315332D02*
X263326Y312000D01*
X261660Y313666D01*
X263326Y315332D01*
X259993Y312000D01*
X240000Y392000D02*
Y396998D01*
X242499D01*
X243332Y396165D01*
Y394499D01*
X242499Y393666D01*
X240000D01*
X241666D02*
X243332Y392000D01*
X248330Y396998D02*
X244998D01*
Y394499D01*
X246664D01*
X244998D01*
Y392000D01*
X249997D02*
Y396998D01*
X251663Y395332D01*
X253329Y396998D01*
Y392000D01*
X254995Y392833D02*
X255828Y392000D01*
X257494D01*
X258327Y392833D01*
Y396165D01*
X257494Y396998D01*
X255828D01*
X254995Y396165D01*
Y395332D01*
X255828Y394499D01*
X258327D01*
X259993Y395332D02*
X263326Y392000D01*
X261660Y393666D01*
X263326Y395332D01*
X259993Y392000D01*
X240000Y472000D02*
Y476998D01*
X242499D01*
X243332Y476165D01*
Y474499D01*
X242499Y473666D01*
X240000D01*
X241666D02*
X243332Y472000D01*
X248330Y476998D02*
X244998D01*
Y474499D01*
X246664D01*
X244998D01*
Y472000D01*
X249997D02*
Y476998D01*
X251663Y475332D01*
X253329Y476998D01*
Y472000D01*
X254995Y472833D02*
X255828Y472000D01*
X257494D01*
X258327Y472833D01*
Y476165D01*
X257494Y476998D01*
X255828D01*
X254995Y476165D01*
Y475332D01*
X255828Y474499D01*
X258327D01*
X259993Y475332D02*
X263326Y472000D01*
X261660Y473666D01*
X263326Y475332D01*
X259993Y472000D01*
X240000Y552000D02*
Y556998D01*
X242499D01*
X243332Y556165D01*
Y554499D01*
X242499Y553666D01*
X240000D01*
X241666D02*
X243332Y552000D01*
X248330Y556998D02*
X244998D01*
Y554499D01*
X246664D01*
X244998D01*
Y552000D01*
X249997D02*
Y556998D01*
X251663Y555332D01*
X253329Y556998D01*
Y552000D01*
X254995Y552833D02*
X255828Y552000D01*
X257494D01*
X258327Y552833D01*
Y556165D01*
X257494Y556998D01*
X255828D01*
X254995Y556165D01*
Y555332D01*
X255828Y554499D01*
X258327D01*
X259993Y555332D02*
X263326Y552000D01*
X261660Y553666D01*
X263326Y555332D01*
X259993Y552000D01*
X240000Y632000D02*
Y636998D01*
X242499D01*
X243332Y636165D01*
Y634499D01*
X242499Y633666D01*
X240000D01*
X241666D02*
X243332Y632000D01*
X248330Y636998D02*
X244998D01*
Y634499D01*
X246664D01*
X244998D01*
Y632000D01*
X249997D02*
Y636998D01*
X251663Y635332D01*
X253329Y636998D01*
Y632000D01*
X254995Y632833D02*
X255828Y632000D01*
X257494D01*
X258327Y632833D01*
Y636165D01*
X257494Y636998D01*
X255828D01*
X254995Y636165D01*
Y635332D01*
X255828Y634499D01*
X258327D01*
X259993Y635332D02*
X263326Y632000D01*
X261660Y633666D01*
X263326Y635332D01*
X259993Y632000D01*
X240000Y712000D02*
Y716998D01*
X242499D01*
X243332Y716165D01*
Y714499D01*
X242499Y713666D01*
X240000D01*
X241666D02*
X243332Y712000D01*
X248330Y716998D02*
X244998D01*
Y714499D01*
X246664D01*
X244998D01*
Y712000D01*
X249997D02*
Y716998D01*
X251663Y715332D01*
X253329Y716998D01*
Y712000D01*
X254995Y712833D02*
X255828Y712000D01*
X257494D01*
X258327Y712833D01*
Y716165D01*
X257494Y716998D01*
X255828D01*
X254995Y716165D01*
Y715332D01*
X255828Y714499D01*
X258327D01*
X259993Y715332D02*
X263326Y712000D01*
X261660Y713666D01*
X263326Y715332D01*
X259993Y712000D01*
X240000Y792000D02*
Y796998D01*
X242499D01*
X243332Y796165D01*
Y794499D01*
X242499Y793666D01*
X240000D01*
X241666D02*
X243332Y792000D01*
X248330Y796998D02*
X244998D01*
Y794499D01*
X246664D01*
X244998D01*
Y792000D01*
X249997D02*
Y796998D01*
X251663Y795332D01*
X253329Y796998D01*
Y792000D01*
X254995Y792833D02*
X255828Y792000D01*
X257494D01*
X258327Y792833D01*
Y796165D01*
X257494Y796998D01*
X255828D01*
X254995Y796165D01*
Y795332D01*
X255828Y794499D01*
X258327D01*
X259993Y795332D02*
X263326Y792000D01*
X261660Y793666D01*
X263326Y795332D01*
X259993Y792000D01*
X240000Y872000D02*
Y876998D01*
X242499D01*
X243332Y876165D01*
Y874499D01*
X242499Y873666D01*
X240000D01*
X241666D02*
X243332Y872000D01*
X248330Y876998D02*
X244998D01*
Y874499D01*
X246664D01*
X244998D01*
Y872000D01*
X249997D02*
Y876998D01*
X251663Y875332D01*
X253329Y876998D01*
Y872000D01*
X254995Y872833D02*
X255828Y872000D01*
X257494D01*
X258327Y872833D01*
Y876165D01*
X257494Y876998D01*
X255828D01*
X254995Y876165D01*
Y875332D01*
X255828Y874499D01*
X258327D01*
X259993Y875332D02*
X263326Y872000D01*
X261660Y873666D01*
X263326Y875332D01*
X259993Y872000D01*
X240000Y952000D02*
Y956998D01*
X242499D01*
X243332Y956165D01*
Y954499D01*
X242499Y953666D01*
X240000D01*
X241666D02*
X243332Y952000D01*
X248330Y956998D02*
X244998D01*
Y954499D01*
X246664D01*
X244998D01*
Y952000D01*
X249997D02*
Y956998D01*
X251663Y955332D01*
X253329Y956998D01*
Y952000D01*
X254995Y952833D02*
X255828Y952000D01*
X257494D01*
X258327Y952833D01*
Y956165D01*
X257494Y956998D01*
X255828D01*
X254995Y956165D01*
Y955332D01*
X255828Y954499D01*
X258327D01*
X259993Y955332D02*
X263326Y952000D01*
X261660Y953666D01*
X263326Y955332D01*
X259993Y952000D01*
X240000Y1032000D02*
Y1036998D01*
X242499D01*
X243332Y1036165D01*
Y1034499D01*
X242499Y1033666D01*
X240000D01*
X241666D02*
X243332Y1032000D01*
X248330Y1036998D02*
X244998D01*
Y1034499D01*
X246664D01*
X244998D01*
Y1032000D01*
X249997D02*
Y1036998D01*
X251663Y1035332D01*
X253329Y1036998D01*
Y1032000D01*
X254995Y1032833D02*
X255828Y1032000D01*
X257494D01*
X258327Y1032833D01*
Y1036165D01*
X257494Y1036998D01*
X255828D01*
X254995Y1036165D01*
Y1035332D01*
X255828Y1034499D01*
X258327D01*
X259993Y1035332D02*
X263326Y1032000D01*
X261660Y1033666D01*
X263326Y1035332D01*
X259993Y1032000D01*
X340000Y72000D02*
Y76998D01*
X342499D01*
X343332Y76165D01*
Y74499D01*
X342499Y73666D01*
X340000D01*
X341666D02*
X343332Y72000D01*
X348331Y76998D02*
X344999D01*
Y74499D01*
X346665D01*
X344999D01*
Y72000D01*
X349997D02*
Y76998D01*
X351663Y75332D01*
X353329Y76998D01*
Y72000D01*
X354995Y72833D02*
X355828Y72000D01*
X357494D01*
X358328Y72833D01*
Y76165D01*
X357494Y76998D01*
X355828D01*
X354995Y76165D01*
Y75332D01*
X355828Y74499D01*
X358328D01*
X359994Y75332D02*
X363326Y72000D01*
X361660Y73666D01*
X363326Y75332D01*
X359994Y72000D01*
X340000Y152000D02*
Y156998D01*
X342499D01*
X343332Y156165D01*
Y154499D01*
X342499Y153666D01*
X340000D01*
X341666D02*
X343332Y152000D01*
X348331Y156998D02*
X344999D01*
Y154499D01*
X346665D01*
X344999D01*
Y152000D01*
X349997D02*
Y156998D01*
X351663Y155332D01*
X353329Y156998D01*
Y152000D01*
X354995Y152833D02*
X355828Y152000D01*
X357494D01*
X358328Y152833D01*
Y156165D01*
X357494Y156998D01*
X355828D01*
X354995Y156165D01*
Y155332D01*
X355828Y154499D01*
X358328D01*
X359994Y155332D02*
X363326Y152000D01*
X361660Y153666D01*
X363326Y155332D01*
X359994Y152000D01*
X340000Y232000D02*
Y236998D01*
X342499D01*
X343332Y236165D01*
Y234499D01*
X342499Y233666D01*
X340000D01*
X341666D02*
X343332Y232000D01*
X348331Y236998D02*
X344999D01*
Y234499D01*
X346665D01*
X344999D01*
Y232000D01*
X349997D02*
Y236998D01*
X351663Y235332D01*
X353329Y236998D01*
Y232000D01*
X354995Y232833D02*
X355828Y232000D01*
X357494D01*
X358328Y232833D01*
Y236165D01*
X357494Y236998D01*
X355828D01*
X354995Y236165D01*
Y235332D01*
X355828Y234499D01*
X358328D01*
X359994Y235332D02*
X363326Y232000D01*
X361660Y233666D01*
X363326Y235332D01*
X359994Y232000D01*
X340000Y312000D02*
Y316998D01*
X342499D01*
X343332Y316165D01*
Y314499D01*
X342499Y313666D01*
X340000D01*
X341666D02*
X343332Y312000D01*
X348331Y316998D02*
X344999D01*
Y314499D01*
X346665D01*
X344999D01*
Y312000D01*
X349997D02*
Y316998D01*
X351663Y315332D01*
X353329Y316998D01*
Y312000D01*
X354995Y312833D02*
X355828Y312000D01*
X357494D01*
X358328Y312833D01*
Y316165D01*
X357494Y316998D01*
X355828D01*
X354995Y316165D01*
Y315332D01*
X355828Y314499D01*
X358328D01*
X359994Y315332D02*
X363326Y312000D01*
X361660Y313666D01*
X363326Y315332D01*
X359994Y312000D01*
X340000Y392000D02*
Y396998D01*
X342499D01*
X343332Y396165D01*
Y394499D01*
X342499Y393666D01*
X340000D01*
X341666D02*
X343332Y392000D01*
X348331Y396998D02*
X344999D01*
Y394499D01*
X346665D01*
X344999D01*
Y392000D01*
X349997D02*
Y396998D01*
X351663Y395332D01*
X353329Y396998D01*
Y392000D01*
X354995Y392833D02*
X355828Y392000D01*
X357494D01*
X358328Y392833D01*
Y396165D01*
X357494Y396998D01*
X355828D01*
X354995Y396165D01*
Y395332D01*
X355828Y394499D01*
X358328D01*
X359994Y395332D02*
X363326Y392000D01*
X361660Y393666D01*
X363326Y395332D01*
X359994Y392000D01*
X340000Y472000D02*
Y476998D01*
X342499D01*
X343332Y476165D01*
Y474499D01*
X342499Y473666D01*
X340000D01*
X341666D02*
X343332Y472000D01*
X348331Y476998D02*
X344999D01*
Y474499D01*
X346665D01*
X344999D01*
Y472000D01*
X349997D02*
Y476998D01*
X351663Y475332D01*
X353329Y476998D01*
Y472000D01*
X354995Y472833D02*
X355828Y472000D01*
X357494D01*
X358328Y472833D01*
Y476165D01*
X357494Y476998D01*
X355828D01*
X354995Y476165D01*
Y475332D01*
X355828Y474499D01*
X358328D01*
X359994Y475332D02*
X363326Y472000D01*
X361660Y473666D01*
X363326Y475332D01*
X359994Y472000D01*
X340000Y552000D02*
Y556998D01*
X342499D01*
X343332Y556165D01*
Y554499D01*
X342499Y553666D01*
X340000D01*
X341666D02*
X343332Y552000D01*
X348331Y556998D02*
X344999D01*
Y554499D01*
X346665D01*
X344999D01*
Y552000D01*
X349997D02*
Y556998D01*
X351663Y555332D01*
X353329Y556998D01*
Y552000D01*
X354995Y552833D02*
X355828Y552000D01*
X357494D01*
X358328Y552833D01*
Y556165D01*
X357494Y556998D01*
X355828D01*
X354995Y556165D01*
Y555332D01*
X355828Y554499D01*
X358328D01*
X359994Y555332D02*
X363326Y552000D01*
X361660Y553666D01*
X363326Y555332D01*
X359994Y552000D01*
X340000Y632000D02*
Y636998D01*
X342499D01*
X343332Y636165D01*
Y634499D01*
X342499Y633666D01*
X340000D01*
X341666D02*
X343332Y632000D01*
X348331Y636998D02*
X344999D01*
Y634499D01*
X346665D01*
X344999D01*
Y632000D01*
X349997D02*
Y636998D01*
X351663Y635332D01*
X353329Y636998D01*
Y632000D01*
X354995Y632833D02*
X355828Y632000D01*
X357494D01*
X358328Y632833D01*
Y636165D01*
X357494Y636998D01*
X355828D01*
X354995Y636165D01*
Y635332D01*
X355828Y634499D01*
X358328D01*
X359994Y635332D02*
X363326Y632000D01*
X361660Y633666D01*
X363326Y635332D01*
X359994Y632000D01*
X340000Y712000D02*
Y716998D01*
X342499D01*
X343332Y716165D01*
Y714499D01*
X342499Y713666D01*
X340000D01*
X341666D02*
X343332Y712000D01*
X348331Y716998D02*
X344999D01*
Y714499D01*
X346665D01*
X344999D01*
Y712000D01*
X349997D02*
Y716998D01*
X351663Y715332D01*
X353329Y716998D01*
Y712000D01*
X354995Y712833D02*
X355828Y712000D01*
X357494D01*
X358328Y712833D01*
Y716165D01*
X357494Y716998D01*
X355828D01*
X354995Y716165D01*
Y715332D01*
X355828Y714499D01*
X358328D01*
X359994Y715332D02*
X363326Y712000D01*
X361660Y713666D01*
X363326Y715332D01*
X359994Y712000D01*
X340000Y792000D02*
Y796998D01*
X342499D01*
X343332Y796165D01*
Y794499D01*
X342499Y793666D01*
X340000D01*
X341666D02*
X343332Y792000D01*
X348331Y796998D02*
X344999D01*
Y794499D01*
X346665D01*
X344999D01*
Y792000D01*
X349997D02*
Y796998D01*
X351663Y795332D01*
X353329Y796998D01*
Y792000D01*
X354995Y792833D02*
X355828Y792000D01*
X357494D01*
X358328Y792833D01*
Y796165D01*
X357494Y796998D01*
X355828D01*
X354995Y796165D01*
Y795332D01*
X355828Y794499D01*
X358328D01*
X359994Y795332D02*
X363326Y792000D01*
X361660Y793666D01*
X363326Y795332D01*
X359994Y792000D01*
X340000Y872000D02*
Y876998D01*
X342499D01*
X343332Y876165D01*
Y874499D01*
X342499Y873666D01*
X340000D01*
X341666D02*
X343332Y872000D01*
X348331Y876998D02*
X344999D01*
Y874499D01*
X346665D01*
X344999D01*
Y872000D01*
X349997D02*
Y876998D01*
X351663Y875332D01*
X353329Y876998D01*
Y872000D01*
X354995Y872833D02*
X355828Y872000D01*
X357494D01*
X358328Y872833D01*
Y876165D01*
X357494Y876998D01*
X355828D01*
X354995Y876165D01*
Y875332D01*
X355828Y874499D01*
X358328D01*
X359994Y875332D02*
X363326Y872000D01*
X361660Y873666D01*
X363326Y875332D01*
X359994Y872000D01*
X340000Y952000D02*
Y956998D01*
X342499D01*
X343332Y956165D01*
Y954499D01*
X342499Y953666D01*
X340000D01*
X341666D02*
X343332Y952000D01*
X348331Y956998D02*
X344999D01*
Y954499D01*
X346665D01*
X344999D01*
Y952000D01*
X349997D02*
Y956998D01*
X351663Y955332D01*
X353329Y956998D01*
Y952000D01*
X354995Y952833D02*
X355828Y952000D01*
X357494D01*
X358328Y952833D01*
Y956165D01*
X357494Y956998D01*
X355828D01*
X354995Y956165D01*
Y955332D01*
X355828Y954499D01*
X358328D01*
X359994Y955332D02*
X363326Y952000D01*
X361660Y953666D01*
X363326Y955332D01*
X359994Y952000D01*
X340000Y1032000D02*
Y1036998D01*
X342499D01*
X343332Y1036165D01*
Y1034499D01*
X342499Y1033666D01*
X340000D01*
X341666D02*
X343332Y1032000D01*
X348331Y1036998D02*
X344999D01*
Y1034499D01*
X346665D01*
X344999D01*
Y1032000D01*
X349997D02*
Y1036998D01*
X351663Y1035332D01*
X353329Y1036998D01*
Y1032000D01*
X354995Y1032833D02*
X355828Y1032000D01*
X357494D01*
X358328Y1032833D01*
Y1036165D01*
X357494Y1036998D01*
X355828D01*
X354995Y1036165D01*
Y1035332D01*
X355828Y1034499D01*
X358328D01*
X359994Y1035332D02*
X363326Y1032000D01*
X361660Y1033666D01*
X363326Y1035332D01*
X359994Y1032000D01*
X440000Y72000D02*
Y76998D01*
X442499D01*
X443332Y76165D01*
Y74499D01*
X442499Y73666D01*
X440000D01*
X441666D02*
X443332Y72000D01*
X448331Y76998D02*
X444998D01*
Y74499D01*
X446664D01*
X444998D01*
Y72000D01*
X449997D02*
Y76998D01*
X451663Y75332D01*
X453329Y76998D01*
Y72000D01*
X454995Y72833D02*
X455828Y72000D01*
X457494D01*
X458327Y72833D01*
Y76165D01*
X457494Y76998D01*
X455828D01*
X454995Y76165D01*
Y75332D01*
X455828Y74499D01*
X458327D01*
X459994Y75332D02*
X463326Y72000D01*
X461660Y73666D01*
X463326Y75332D01*
X459994Y72000D01*
X440000Y152000D02*
Y156998D01*
X442499D01*
X443332Y156165D01*
Y154499D01*
X442499Y153666D01*
X440000D01*
X441666D02*
X443332Y152000D01*
X448330Y156998D02*
X444998D01*
Y154499D01*
X446664D01*
X444998D01*
Y152000D01*
X449997D02*
Y156998D01*
X451663Y155332D01*
X453329Y156998D01*
Y152000D01*
X454995Y152833D02*
X455828Y152000D01*
X457494D01*
X458327Y152833D01*
Y156165D01*
X457494Y156998D01*
X455828D01*
X454995Y156165D01*
Y155332D01*
X455828Y154499D01*
X458327D01*
X459993Y155332D02*
X463326Y152000D01*
X461660Y153666D01*
X463326Y155332D01*
X459993Y152000D01*
X440000Y232000D02*
Y236998D01*
X442499D01*
X443332Y236165D01*
Y234499D01*
X442499Y233666D01*
X440000D01*
X441666D02*
X443332Y232000D01*
X448330Y236998D02*
X444998D01*
Y234499D01*
X446664D01*
X444998D01*
Y232000D01*
X449997D02*
Y236998D01*
X451663Y235332D01*
X453329Y236998D01*
Y232000D01*
X454995Y232833D02*
X455828Y232000D01*
X457494D01*
X458327Y232833D01*
Y236165D01*
X457494Y236998D01*
X455828D01*
X454995Y236165D01*
Y235332D01*
X455828Y234499D01*
X458327D01*
X459993Y235332D02*
X463326Y232000D01*
X461660Y233666D01*
X463326Y235332D01*
X459993Y232000D01*
X440000Y312000D02*
Y316998D01*
X442499D01*
X443332Y316165D01*
Y314499D01*
X442499Y313666D01*
X440000D01*
X441666D02*
X443332Y312000D01*
X448330Y316998D02*
X444998D01*
Y314499D01*
X446664D01*
X444998D01*
Y312000D01*
X449997D02*
Y316998D01*
X451663Y315332D01*
X453329Y316998D01*
Y312000D01*
X454995Y312833D02*
X455828Y312000D01*
X457494D01*
X458327Y312833D01*
Y316165D01*
X457494Y316998D01*
X455828D01*
X454995Y316165D01*
Y315332D01*
X455828Y314499D01*
X458327D01*
X459993Y315332D02*
X463326Y312000D01*
X461660Y313666D01*
X463326Y315332D01*
X459993Y312000D01*
X440000Y392000D02*
Y396998D01*
X442499D01*
X443332Y396165D01*
Y394499D01*
X442499Y393666D01*
X440000D01*
X441666D02*
X443332Y392000D01*
X448330Y396998D02*
X444998D01*
Y394499D01*
X446664D01*
X444998D01*
Y392000D01*
X449997D02*
Y396998D01*
X451663Y395332D01*
X453329Y396998D01*
Y392000D01*
X454995Y392833D02*
X455828Y392000D01*
X457494D01*
X458327Y392833D01*
Y396165D01*
X457494Y396998D01*
X455828D01*
X454995Y396165D01*
Y395332D01*
X455828Y394499D01*
X458327D01*
X459993Y395332D02*
X463326Y392000D01*
X461660Y393666D01*
X463326Y395332D01*
X459993Y392000D01*
X440000Y472000D02*
Y476998D01*
X442499D01*
X443332Y476165D01*
Y474499D01*
X442499Y473666D01*
X440000D01*
X441666D02*
X443332Y472000D01*
X448330Y476998D02*
X444998D01*
Y474499D01*
X446664D01*
X444998D01*
Y472000D01*
X449997D02*
Y476998D01*
X451663Y475332D01*
X453329Y476998D01*
Y472000D01*
X454995Y472833D02*
X455828Y472000D01*
X457494D01*
X458327Y472833D01*
Y476165D01*
X457494Y476998D01*
X455828D01*
X454995Y476165D01*
Y475332D01*
X455828Y474499D01*
X458327D01*
X459993Y475332D02*
X463326Y472000D01*
X461660Y473666D01*
X463326Y475332D01*
X459993Y472000D01*
X440000Y552000D02*
Y556998D01*
X442499D01*
X443332Y556165D01*
Y554499D01*
X442499Y553666D01*
X440000D01*
X441666D02*
X443332Y552000D01*
X448330Y556998D02*
X444998D01*
Y554499D01*
X446664D01*
X444998D01*
Y552000D01*
X449997D02*
Y556998D01*
X451663Y555332D01*
X453329Y556998D01*
Y552000D01*
X454995Y552833D02*
X455828Y552000D01*
X457494D01*
X458327Y552833D01*
Y556165D01*
X457494Y556998D01*
X455828D01*
X454995Y556165D01*
Y555332D01*
X455828Y554499D01*
X458327D01*
X459993Y555332D02*
X463326Y552000D01*
X461660Y553666D01*
X463326Y555332D01*
X459993Y552000D01*
X440000Y632000D02*
Y636998D01*
X442499D01*
X443332Y636165D01*
Y634499D01*
X442499Y633666D01*
X440000D01*
X441666D02*
X443332Y632000D01*
X448330Y636998D02*
X444998D01*
Y634499D01*
X446664D01*
X444998D01*
Y632000D01*
X449997D02*
Y636998D01*
X451663Y635332D01*
X453329Y636998D01*
Y632000D01*
X454995Y632833D02*
X455828Y632000D01*
X457494D01*
X458327Y632833D01*
Y636165D01*
X457494Y636998D01*
X455828D01*
X454995Y636165D01*
Y635332D01*
X455828Y634499D01*
X458327D01*
X459993Y635332D02*
X463326Y632000D01*
X461660Y633666D01*
X463326Y635332D01*
X459993Y632000D01*
X440000Y712000D02*
Y716998D01*
X442499D01*
X443332Y716165D01*
Y714499D01*
X442499Y713666D01*
X440000D01*
X441666D02*
X443332Y712000D01*
X448330Y716998D02*
X444998D01*
Y714499D01*
X446664D01*
X444998D01*
Y712000D01*
X449997D02*
Y716998D01*
X451663Y715332D01*
X453329Y716998D01*
Y712000D01*
X454995Y712833D02*
X455828Y712000D01*
X457494D01*
X458327Y712833D01*
Y716165D01*
X457494Y716998D01*
X455828D01*
X454995Y716165D01*
Y715332D01*
X455828Y714499D01*
X458327D01*
X459993Y715332D02*
X463326Y712000D01*
X461660Y713666D01*
X463326Y715332D01*
X459993Y712000D01*
X440000Y792000D02*
Y796998D01*
X442499D01*
X443332Y796165D01*
Y794499D01*
X442499Y793666D01*
X440000D01*
X441666D02*
X443332Y792000D01*
X448330Y796998D02*
X444998D01*
Y794499D01*
X446664D01*
X444998D01*
Y792000D01*
X449997D02*
Y796998D01*
X451663Y795332D01*
X453329Y796998D01*
Y792000D01*
X454995Y792833D02*
X455828Y792000D01*
X457494D01*
X458327Y792833D01*
Y796165D01*
X457494Y796998D01*
X455828D01*
X454995Y796165D01*
Y795332D01*
X455828Y794499D01*
X458327D01*
X459993Y795332D02*
X463326Y792000D01*
X461660Y793666D01*
X463326Y795332D01*
X459993Y792000D01*
X440000Y872000D02*
Y876998D01*
X442499D01*
X443332Y876165D01*
Y874499D01*
X442499Y873666D01*
X440000D01*
X441666D02*
X443332Y872000D01*
X448330Y876998D02*
X444998D01*
Y874499D01*
X446664D01*
X444998D01*
Y872000D01*
X449997D02*
Y876998D01*
X451663Y875332D01*
X453329Y876998D01*
Y872000D01*
X454995Y872833D02*
X455828Y872000D01*
X457494D01*
X458327Y872833D01*
Y876165D01*
X457494Y876998D01*
X455828D01*
X454995Y876165D01*
Y875332D01*
X455828Y874499D01*
X458327D01*
X459993Y875332D02*
X463326Y872000D01*
X461660Y873666D01*
X463326Y875332D01*
X459993Y872000D01*
X440000Y952000D02*
Y956998D01*
X442499D01*
X443332Y956165D01*
Y954499D01*
X442499Y953666D01*
X440000D01*
X441666D02*
X443332Y952000D01*
X448330Y956998D02*
X444998D01*
Y954499D01*
X446664D01*
X444998D01*
Y952000D01*
X449997D02*
Y956998D01*
X451663Y955332D01*
X453329Y956998D01*
Y952000D01*
X454995Y952833D02*
X455828Y952000D01*
X457494D01*
X458327Y952833D01*
Y956165D01*
X457494Y956998D01*
X455828D01*
X454995Y956165D01*
Y955332D01*
X455828Y954499D01*
X458327D01*
X459993Y955332D02*
X463326Y952000D01*
X461660Y953666D01*
X463326Y955332D01*
X459993Y952000D01*
X440000Y1032000D02*
Y1036998D01*
X442499D01*
X443332Y1036165D01*
Y1034499D01*
X442499Y1033666D01*
X440000D01*
X441666D02*
X443332Y1032000D01*
X448330Y1036998D02*
X444998D01*
Y1034499D01*
X446664D01*
X444998D01*
Y1032000D01*
X449997D02*
Y1036998D01*
X451663Y1035332D01*
X453329Y1036998D01*
Y1032000D01*
X454995Y1032833D02*
X455828Y1032000D01*
X457494D01*
X458327Y1032833D01*
Y1036165D01*
X457494Y1036998D01*
X455828D01*
X454995Y1036165D01*
Y1035332D01*
X455828Y1034499D01*
X458327D01*
X459993Y1035332D02*
X463326Y1032000D01*
X461660Y1033666D01*
X463326Y1035332D01*
X459993Y1032000D01*
X540000Y72000D02*
Y76998D01*
X542499D01*
X543332Y76165D01*
Y74499D01*
X542499Y73666D01*
X540000D01*
X541666D02*
X543332Y72000D01*
X548331Y76998D02*
X544999D01*
Y74499D01*
X546665D01*
X544999D01*
Y72000D01*
X549997D02*
Y76998D01*
X551663Y75332D01*
X553329Y76998D01*
Y72000D01*
X554995Y72833D02*
X555828Y72000D01*
X557494D01*
X558327Y72833D01*
Y76165D01*
X557494Y76998D01*
X555828D01*
X554995Y76165D01*
Y75332D01*
X555828Y74499D01*
X558327D01*
X559994Y75332D02*
X563326Y72000D01*
X561660Y73666D01*
X563326Y75332D01*
X559994Y72000D01*
X540000Y152000D02*
Y156998D01*
X542499D01*
X543332Y156165D01*
Y154499D01*
X542499Y153666D01*
X540000D01*
X541666D02*
X543332Y152000D01*
X548331Y156998D02*
X544999D01*
Y154499D01*
X546665D01*
X544999D01*
Y152000D01*
X549997D02*
Y156998D01*
X551663Y155332D01*
X553329Y156998D01*
Y152000D01*
X554995Y152833D02*
X555828Y152000D01*
X557494D01*
X558327Y152833D01*
Y156165D01*
X557494Y156998D01*
X555828D01*
X554995Y156165D01*
Y155332D01*
X555828Y154499D01*
X558327D01*
X559994Y155332D02*
X563326Y152000D01*
X561660Y153666D01*
X563326Y155332D01*
X559994Y152000D01*
X540000Y232000D02*
Y236998D01*
X542499D01*
X543332Y236165D01*
Y234499D01*
X542499Y233666D01*
X540000D01*
X541666D02*
X543332Y232000D01*
X548331Y236998D02*
X544999D01*
Y234499D01*
X546665D01*
X544999D01*
Y232000D01*
X549997D02*
Y236998D01*
X551663Y235332D01*
X553329Y236998D01*
Y232000D01*
X554995Y232833D02*
X555828Y232000D01*
X557494D01*
X558327Y232833D01*
Y236165D01*
X557494Y236998D01*
X555828D01*
X554995Y236165D01*
Y235332D01*
X555828Y234499D01*
X558327D01*
X559994Y235332D02*
X563326Y232000D01*
X561660Y233666D01*
X563326Y235332D01*
X559994Y232000D01*
X540000Y312000D02*
Y316998D01*
X542499D01*
X543332Y316165D01*
Y314499D01*
X542499Y313666D01*
X540000D01*
X541666D02*
X543332Y312000D01*
X548331Y316998D02*
X544999D01*
Y314499D01*
X546665D01*
X544999D01*
Y312000D01*
X549997D02*
Y316998D01*
X551663Y315332D01*
X553329Y316998D01*
Y312000D01*
X554995Y312833D02*
X555828Y312000D01*
X557494D01*
X558327Y312833D01*
Y316165D01*
X557494Y316998D01*
X555828D01*
X554995Y316165D01*
Y315332D01*
X555828Y314499D01*
X558327D01*
X559994Y315332D02*
X563326Y312000D01*
X561660Y313666D01*
X563326Y315332D01*
X559994Y312000D01*
X540000Y392000D02*
Y396998D01*
X542499D01*
X543332Y396165D01*
Y394499D01*
X542499Y393666D01*
X540000D01*
X541666D02*
X543332Y392000D01*
X548331Y396998D02*
X544999D01*
Y394499D01*
X546665D01*
X544999D01*
Y392000D01*
X549997D02*
Y396998D01*
X551663Y395332D01*
X553329Y396998D01*
Y392000D01*
X554995Y392833D02*
X555828Y392000D01*
X557494D01*
X558327Y392833D01*
Y396165D01*
X557494Y396998D01*
X555828D01*
X554995Y396165D01*
Y395332D01*
X555828Y394499D01*
X558327D01*
X559994Y395332D02*
X563326Y392000D01*
X561660Y393666D01*
X563326Y395332D01*
X559994Y392000D01*
X540000Y472000D02*
Y476998D01*
X542499D01*
X543332Y476165D01*
Y474499D01*
X542499Y473666D01*
X540000D01*
X541666D02*
X543332Y472000D01*
X548331Y476998D02*
X544999D01*
Y474499D01*
X546665D01*
X544999D01*
Y472000D01*
X549997D02*
Y476998D01*
X551663Y475332D01*
X553329Y476998D01*
Y472000D01*
X554995Y472833D02*
X555828Y472000D01*
X557494D01*
X558327Y472833D01*
Y476165D01*
X557494Y476998D01*
X555828D01*
X554995Y476165D01*
Y475332D01*
X555828Y474499D01*
X558327D01*
X559994Y475332D02*
X563326Y472000D01*
X561660Y473666D01*
X563326Y475332D01*
X559994Y472000D01*
X540000Y552000D02*
Y556998D01*
X542499D01*
X543332Y556165D01*
Y554499D01*
X542499Y553666D01*
X540000D01*
X541666D02*
X543332Y552000D01*
X548331Y556998D02*
X544999D01*
Y554499D01*
X546665D01*
X544999D01*
Y552000D01*
X549997D02*
Y556998D01*
X551663Y555332D01*
X553329Y556998D01*
Y552000D01*
X554995Y552833D02*
X555828Y552000D01*
X557494D01*
X558327Y552833D01*
Y556165D01*
X557494Y556998D01*
X555828D01*
X554995Y556165D01*
Y555332D01*
X555828Y554499D01*
X558327D01*
X559994Y555332D02*
X563326Y552000D01*
X561660Y553666D01*
X563326Y555332D01*
X559994Y552000D01*
X540000Y632000D02*
Y636998D01*
X542499D01*
X543332Y636165D01*
Y634499D01*
X542499Y633666D01*
X540000D01*
X541666D02*
X543332Y632000D01*
X548331Y636998D02*
X544999D01*
Y634499D01*
X546665D01*
X544999D01*
Y632000D01*
X549997D02*
Y636998D01*
X551663Y635332D01*
X553329Y636998D01*
Y632000D01*
X554995Y632833D02*
X555828Y632000D01*
X557494D01*
X558327Y632833D01*
Y636165D01*
X557494Y636998D01*
X555828D01*
X554995Y636165D01*
Y635332D01*
X555828Y634499D01*
X558327D01*
X559994Y635332D02*
X563326Y632000D01*
X561660Y633666D01*
X563326Y635332D01*
X559994Y632000D01*
X540000Y712000D02*
Y716998D01*
X542499D01*
X543332Y716165D01*
Y714499D01*
X542499Y713666D01*
X540000D01*
X541666D02*
X543332Y712000D01*
X548331Y716998D02*
X544999D01*
Y714499D01*
X546665D01*
X544999D01*
Y712000D01*
X549997D02*
Y716998D01*
X551663Y715332D01*
X553329Y716998D01*
Y712000D01*
X554995Y712833D02*
X555828Y712000D01*
X557494D01*
X558327Y712833D01*
Y716165D01*
X557494Y716998D01*
X555828D01*
X554995Y716165D01*
Y715332D01*
X555828Y714499D01*
X558327D01*
X559994Y715332D02*
X563326Y712000D01*
X561660Y713666D01*
X563326Y715332D01*
X559994Y712000D01*
X540000Y792000D02*
Y796998D01*
X542499D01*
X543332Y796165D01*
Y794499D01*
X542499Y793666D01*
X540000D01*
X541666D02*
X543332Y792000D01*
X548331Y796998D02*
X544999D01*
Y794499D01*
X546665D01*
X544999D01*
Y792000D01*
X549997D02*
Y796998D01*
X551663Y795332D01*
X553329Y796998D01*
Y792000D01*
X554995Y792833D02*
X555828Y792000D01*
X557494D01*
X558327Y792833D01*
Y796165D01*
X557494Y796998D01*
X555828D01*
X554995Y796165D01*
Y795332D01*
X555828Y794499D01*
X558327D01*
X559994Y795332D02*
X563326Y792000D01*
X561660Y793666D01*
X563326Y795332D01*
X559994Y792000D01*
X540000Y872000D02*
Y876998D01*
X542499D01*
X543332Y876165D01*
Y874499D01*
X542499Y873666D01*
X540000D01*
X541666D02*
X543332Y872000D01*
X548331Y876998D02*
X544999D01*
Y874499D01*
X546665D01*
X544999D01*
Y872000D01*
X549997D02*
Y876998D01*
X551663Y875332D01*
X553329Y876998D01*
Y872000D01*
X554995Y872833D02*
X555828Y872000D01*
X557494D01*
X558327Y872833D01*
Y876165D01*
X557494Y876998D01*
X555828D01*
X554995Y876165D01*
Y875332D01*
X555828Y874499D01*
X558327D01*
X559994Y875332D02*
X563326Y872000D01*
X561660Y873666D01*
X563326Y875332D01*
X559994Y872000D01*
X540000Y952000D02*
Y956998D01*
X542499D01*
X543332Y956165D01*
Y954499D01*
X542499Y953666D01*
X540000D01*
X541666D02*
X543332Y952000D01*
X548331Y956998D02*
X544999D01*
Y954499D01*
X546665D01*
X544999D01*
Y952000D01*
X549997D02*
Y956998D01*
X551663Y955332D01*
X553329Y956998D01*
Y952000D01*
X554995Y952833D02*
X555828Y952000D01*
X557494D01*
X558327Y952833D01*
Y956165D01*
X557494Y956998D01*
X555828D01*
X554995Y956165D01*
Y955332D01*
X555828Y954499D01*
X558327D01*
X559994Y955332D02*
X563326Y952000D01*
X561660Y953666D01*
X563326Y955332D01*
X559994Y952000D01*
X540000Y1032000D02*
Y1036998D01*
X542499D01*
X543332Y1036165D01*
Y1034499D01*
X542499Y1033666D01*
X540000D01*
X541666D02*
X543332Y1032000D01*
X548331Y1036998D02*
X544999D01*
Y1034499D01*
X546665D01*
X544999D01*
Y1032000D01*
X549997D02*
Y1036998D01*
X551663Y1035332D01*
X553329Y1036998D01*
Y1032000D01*
X554995Y1032833D02*
X555828Y1032000D01*
X557494D01*
X558327Y1032833D01*
Y1036165D01*
X557494Y1036998D01*
X555828D01*
X554995Y1036165D01*
Y1035332D01*
X555828Y1034499D01*
X558327D01*
X559994Y1035332D02*
X563326Y1032000D01*
X561660Y1033666D01*
X563326Y1035332D01*
X559994Y1032000D01*
X640000Y72000D02*
Y76998D01*
X642499D01*
X643332Y76165D01*
Y74499D01*
X642499Y73666D01*
X640000D01*
X641666D02*
X643332Y72000D01*
X648331Y76998D02*
X644999D01*
Y74499D01*
X646665D01*
X644999D01*
Y72000D01*
X649997D02*
Y76998D01*
X651663Y75332D01*
X653329Y76998D01*
Y72000D01*
X654995Y72833D02*
X655828Y72000D01*
X657494D01*
X658327Y72833D01*
Y76165D01*
X657494Y76998D01*
X655828D01*
X654995Y76165D01*
Y75332D01*
X655828Y74499D01*
X658327D01*
X659994Y75332D02*
X663326Y72000D01*
X661660Y73666D01*
X663326Y75332D01*
X659994Y72000D01*
X640000Y152000D02*
Y156998D01*
X642499D01*
X643332Y156165D01*
Y154499D01*
X642499Y153666D01*
X640000D01*
X641666D02*
X643332Y152000D01*
X648331Y156998D02*
X644999D01*
Y154499D01*
X646665D01*
X644999D01*
Y152000D01*
X649997D02*
Y156998D01*
X651663Y155332D01*
X653329Y156998D01*
Y152000D01*
X654995Y152833D02*
X655828Y152000D01*
X657494D01*
X658327Y152833D01*
Y156165D01*
X657494Y156998D01*
X655828D01*
X654995Y156165D01*
Y155332D01*
X655828Y154499D01*
X658327D01*
X659994Y155332D02*
X663326Y152000D01*
X661660Y153666D01*
X663326Y155332D01*
X659994Y152000D01*
X640000Y232000D02*
Y236998D01*
X642499D01*
X643332Y236165D01*
Y234499D01*
X642499Y233666D01*
X640000D01*
X641666D02*
X643332Y232000D01*
X648331Y236998D02*
X644999D01*
Y234499D01*
X646665D01*
X644999D01*
Y232000D01*
X649997D02*
Y236998D01*
X651663Y235332D01*
X653329Y236998D01*
Y232000D01*
X654995Y232833D02*
X655828Y232000D01*
X657494D01*
X658327Y232833D01*
Y236165D01*
X657494Y236998D01*
X655828D01*
X654995Y236165D01*
Y235332D01*
X655828Y234499D01*
X658327D01*
X659994Y235332D02*
X663326Y232000D01*
X661660Y233666D01*
X663326Y235332D01*
X659994Y232000D01*
X640000Y312000D02*
Y316998D01*
X642499D01*
X643332Y316165D01*
Y314499D01*
X642499Y313666D01*
X640000D01*
X641666D02*
X643332Y312000D01*
X648331Y316998D02*
X644999D01*
Y314499D01*
X646665D01*
X644999D01*
Y312000D01*
X649997D02*
Y316998D01*
X651663Y315332D01*
X653329Y316998D01*
Y312000D01*
X654995Y312833D02*
X655828Y312000D01*
X657494D01*
X658327Y312833D01*
Y316165D01*
X657494Y316998D01*
X655828D01*
X654995Y316165D01*
Y315332D01*
X655828Y314499D01*
X658327D01*
X659994Y315332D02*
X663326Y312000D01*
X661660Y313666D01*
X663326Y315332D01*
X659994Y312000D01*
X640000Y392000D02*
Y396998D01*
X642499D01*
X643332Y396165D01*
Y394499D01*
X642499Y393666D01*
X640000D01*
X641666D02*
X643332Y392000D01*
X648331Y396998D02*
X644999D01*
Y394499D01*
X646665D01*
X644999D01*
Y392000D01*
X649997D02*
Y396998D01*
X651663Y395332D01*
X653329Y396998D01*
Y392000D01*
X654995Y392833D02*
X655828Y392000D01*
X657494D01*
X658327Y392833D01*
Y396165D01*
X657494Y396998D01*
X655828D01*
X654995Y396165D01*
Y395332D01*
X655828Y394499D01*
X658327D01*
X659994Y395332D02*
X663326Y392000D01*
X661660Y393666D01*
X663326Y395332D01*
X659994Y392000D01*
X640000Y472000D02*
Y476998D01*
X642499D01*
X643332Y476165D01*
Y474499D01*
X642499Y473666D01*
X640000D01*
X641666D02*
X643332Y472000D01*
X648331Y476998D02*
X644999D01*
Y474499D01*
X646665D01*
X644999D01*
Y472000D01*
X649997D02*
Y476998D01*
X651663Y475332D01*
X653329Y476998D01*
Y472000D01*
X654995Y472833D02*
X655828Y472000D01*
X657494D01*
X658327Y472833D01*
Y476165D01*
X657494Y476998D01*
X655828D01*
X654995Y476165D01*
Y475332D01*
X655828Y474499D01*
X658327D01*
X659994Y475332D02*
X663326Y472000D01*
X661660Y473666D01*
X663326Y475332D01*
X659994Y472000D01*
X640000Y552000D02*
Y556998D01*
X642499D01*
X643332Y556165D01*
Y554499D01*
X642499Y553666D01*
X640000D01*
X641666D02*
X643332Y552000D01*
X648331Y556998D02*
X644999D01*
Y554499D01*
X646665D01*
X644999D01*
Y552000D01*
X649997D02*
Y556998D01*
X651663Y555332D01*
X653329Y556998D01*
Y552000D01*
X654995Y552833D02*
X655828Y552000D01*
X657494D01*
X658327Y552833D01*
Y556165D01*
X657494Y556998D01*
X655828D01*
X654995Y556165D01*
Y555332D01*
X655828Y554499D01*
X658327D01*
X659994Y555332D02*
X663326Y552000D01*
X661660Y553666D01*
X663326Y555332D01*
X659994Y552000D01*
X640000Y632000D02*
Y636998D01*
X642499D01*
X643332Y636165D01*
Y634499D01*
X642499Y633666D01*
X640000D01*
X641666D02*
X643332Y632000D01*
X648331Y636998D02*
X644999D01*
Y634499D01*
X646665D01*
X644999D01*
Y632000D01*
X649997D02*
Y636998D01*
X651663Y635332D01*
X653329Y636998D01*
Y632000D01*
X654995Y632833D02*
X655828Y632000D01*
X657494D01*
X658327Y632833D01*
Y636165D01*
X657494Y636998D01*
X655828D01*
X654995Y636165D01*
Y635332D01*
X655828Y634499D01*
X658327D01*
X659994Y635332D02*
X663326Y632000D01*
X661660Y633666D01*
X663326Y635332D01*
X659994Y632000D01*
X640000Y712000D02*
Y716998D01*
X642499D01*
X643332Y716165D01*
Y714499D01*
X642499Y713666D01*
X640000D01*
X641666D02*
X643332Y712000D01*
X648331Y716998D02*
X644999D01*
Y714499D01*
X646665D01*
X644999D01*
Y712000D01*
X649997D02*
Y716998D01*
X651663Y715332D01*
X653329Y716998D01*
Y712000D01*
X654995Y712833D02*
X655828Y712000D01*
X657494D01*
X658327Y712833D01*
Y716165D01*
X657494Y716998D01*
X655828D01*
X654995Y716165D01*
Y715332D01*
X655828Y714499D01*
X658327D01*
X659994Y715332D02*
X663326Y712000D01*
X661660Y713666D01*
X663326Y715332D01*
X659994Y712000D01*
X640000Y792000D02*
Y796998D01*
X642499D01*
X643332Y796165D01*
Y794499D01*
X642499Y793666D01*
X640000D01*
X641666D02*
X643332Y792000D01*
X648331Y796998D02*
X644999D01*
Y794499D01*
X646665D01*
X644999D01*
Y792000D01*
X649997D02*
Y796998D01*
X651663Y795332D01*
X653329Y796998D01*
Y792000D01*
X654995Y792833D02*
X655828Y792000D01*
X657494D01*
X658327Y792833D01*
Y796165D01*
X657494Y796998D01*
X655828D01*
X654995Y796165D01*
Y795332D01*
X655828Y794499D01*
X658327D01*
X659994Y795332D02*
X663326Y792000D01*
X661660Y793666D01*
X663326Y795332D01*
X659994Y792000D01*
X640000Y872000D02*
Y876998D01*
X642499D01*
X643332Y876165D01*
Y874499D01*
X642499Y873666D01*
X640000D01*
X641666D02*
X643332Y872000D01*
X648331Y876998D02*
X644999D01*
Y874499D01*
X646665D01*
X644999D01*
Y872000D01*
X649997D02*
Y876998D01*
X651663Y875332D01*
X653329Y876998D01*
Y872000D01*
X654995Y872833D02*
X655828Y872000D01*
X657494D01*
X658327Y872833D01*
Y876165D01*
X657494Y876998D01*
X655828D01*
X654995Y876165D01*
Y875332D01*
X655828Y874499D01*
X658327D01*
X659994Y875332D02*
X663326Y872000D01*
X661660Y873666D01*
X663326Y875332D01*
X659994Y872000D01*
X640000Y952000D02*
Y956998D01*
X642499D01*
X643332Y956165D01*
Y954499D01*
X642499Y953666D01*
X640000D01*
X641666D02*
X643332Y952000D01*
X648331Y956998D02*
X644999D01*
Y954499D01*
X646665D01*
X644999D01*
Y952000D01*
X649997D02*
Y956998D01*
X651663Y955332D01*
X653329Y956998D01*
Y952000D01*
X654995Y952833D02*
X655828Y952000D01*
X657494D01*
X658327Y952833D01*
Y956165D01*
X657494Y956998D01*
X655828D01*
X654995Y956165D01*
Y955332D01*
X655828Y954499D01*
X658327D01*
X659994Y955332D02*
X663326Y952000D01*
X661660Y953666D01*
X663326Y955332D01*
X659994Y952000D01*
X640000Y1032000D02*
Y1036998D01*
X642499D01*
X643332Y1036165D01*
Y1034499D01*
X642499Y1033666D01*
X640000D01*
X641666D02*
X643332Y1032000D01*
X648331Y1036998D02*
X644999D01*
Y1034499D01*
X646665D01*
X644999D01*
Y1032000D01*
X649997D02*
Y1036998D01*
X651663Y1035332D01*
X653329Y1036998D01*
Y1032000D01*
X654995Y1032833D02*
X655828Y1032000D01*
X657494D01*
X658327Y1032833D01*
Y1036165D01*
X657494Y1036998D01*
X655828D01*
X654995Y1036165D01*
Y1035332D01*
X655828Y1034499D01*
X658327D01*
X659994Y1035332D02*
X663326Y1032000D01*
X661660Y1033666D01*
X663326Y1035332D01*
X659994Y1032000D01*
M02*
