G04 Layer_Color=65535*
%FSLAX25Y25*%
%MOIN*%
G70*
G01*
G75*
%ADD14C,0.00800*%
%ADD24C,0.00200*%
D14*
X81996Y6500D02*
Y69496D01*
X19000Y6500D02*
Y69496D01*
X19000Y86500D02*
Y149496D01*
X81996Y86500D02*
Y149496D01*
X19000Y166500D02*
Y229496D01*
X81996Y166500D02*
Y229496D01*
X19000Y246500D02*
Y309496D01*
X81996Y246500D02*
Y309496D01*
X19000Y326500D02*
Y389496D01*
X81996Y326500D02*
Y389496D01*
X19000Y406500D02*
Y469496D01*
X81996Y406500D02*
Y469496D01*
X19000Y486500D02*
Y549496D01*
X81996Y486500D02*
Y549496D01*
X19000Y566500D02*
Y629496D01*
X81996Y566500D02*
Y629496D01*
X19000Y646500D02*
Y709496D01*
X81996Y646500D02*
Y709496D01*
X19000Y726500D02*
Y789496D01*
X81996Y726500D02*
Y789496D01*
X19000Y806500D02*
Y869496D01*
X81996Y806500D02*
Y869496D01*
X19000Y886500D02*
Y949496D01*
X81996Y886500D02*
Y949496D01*
X19000Y966500D02*
Y1029496D01*
X81996Y966500D02*
Y1029496D01*
X119000Y6500D02*
Y69496D01*
X181996Y6500D02*
Y69496D01*
X181996Y86500D02*
Y149496D01*
X119000Y86500D02*
Y149496D01*
X181996Y166500D02*
Y229496D01*
X119000Y166500D02*
Y229496D01*
X181996Y246500D02*
Y309496D01*
X119000Y246500D02*
Y309496D01*
X181996Y326500D02*
Y389496D01*
X119000Y326500D02*
Y389496D01*
X181996Y406500D02*
Y469496D01*
X119000Y406500D02*
Y469496D01*
X181996Y486500D02*
Y549496D01*
X119000Y486500D02*
Y549496D01*
X181996Y566500D02*
Y629496D01*
X119000Y566500D02*
Y629496D01*
X181996Y646500D02*
Y709496D01*
X119000Y646500D02*
Y709496D01*
X181996Y726500D02*
Y789496D01*
X119000Y726500D02*
Y789496D01*
X181996Y806500D02*
Y869496D01*
X119000Y806500D02*
Y869496D01*
X181996Y886500D02*
Y949496D01*
X119000Y886500D02*
Y949496D01*
X181996Y966500D02*
Y1029496D01*
X119000Y966500D02*
Y1029496D01*
X219000Y6500D02*
Y69496D01*
X281996Y6500D02*
Y69496D01*
X281996Y86500D02*
Y149496D01*
X219000Y86500D02*
Y149496D01*
X281996Y166500D02*
Y229496D01*
X219000Y166500D02*
Y229496D01*
X281996Y246500D02*
Y309496D01*
X219000Y246500D02*
Y309496D01*
X281996Y326500D02*
Y389496D01*
X219000Y326500D02*
Y389496D01*
X281996Y406500D02*
Y469496D01*
X219000Y406500D02*
Y469496D01*
X281996Y486500D02*
Y549496D01*
X219000Y486500D02*
Y549496D01*
X281996Y566500D02*
Y629496D01*
X219000Y566500D02*
Y629496D01*
X281996Y646500D02*
Y709496D01*
X219000Y646500D02*
Y709496D01*
X281996Y726500D02*
Y789496D01*
X219000Y726500D02*
Y789496D01*
X281996Y806500D02*
Y869496D01*
X219000Y806500D02*
Y869496D01*
X281996Y886500D02*
Y949496D01*
X219000Y886500D02*
Y949496D01*
X281996Y966500D02*
Y1029496D01*
X219000Y966500D02*
Y1029496D01*
X381996Y6500D02*
Y69496D01*
X319000Y6500D02*
Y69496D01*
X319000Y86500D02*
Y149496D01*
X381996Y86500D02*
Y149496D01*
X319000Y166500D02*
Y229496D01*
X381996Y166500D02*
Y229496D01*
X319000Y246500D02*
Y309496D01*
X381996Y246500D02*
Y309496D01*
X319000Y326500D02*
Y389496D01*
X381996Y326500D02*
Y389496D01*
X319000Y406500D02*
Y469496D01*
X381996Y406500D02*
Y469496D01*
X319000Y486500D02*
Y549496D01*
X381996Y486500D02*
Y549496D01*
X319000Y566500D02*
Y629496D01*
X381996Y566500D02*
Y629496D01*
X319000Y646500D02*
Y709496D01*
X381996Y646500D02*
Y709496D01*
X319000Y726500D02*
Y789496D01*
X381996Y726500D02*
Y789496D01*
X319000Y806500D02*
Y869496D01*
X381996Y806500D02*
Y869496D01*
X319000Y886500D02*
Y949496D01*
X381996Y886500D02*
Y949496D01*
X319000Y966500D02*
Y1029496D01*
X381996Y966500D02*
Y1029496D01*
X419000Y6500D02*
Y69496D01*
X481996Y6500D02*
Y69496D01*
X481996Y86500D02*
Y149496D01*
X419000Y86500D02*
Y149496D01*
X481996Y166500D02*
Y229496D01*
X419000Y166500D02*
Y229496D01*
X481996Y246500D02*
Y309496D01*
X419000Y246500D02*
Y309496D01*
X481996Y326500D02*
Y389496D01*
X419000Y326500D02*
Y389496D01*
X481996Y406500D02*
Y469496D01*
X419000Y406500D02*
Y469496D01*
X481996Y486500D02*
Y549496D01*
X419000Y486500D02*
Y549496D01*
X481996Y566500D02*
Y629496D01*
X419000Y566500D02*
Y629496D01*
X481996Y646500D02*
Y709496D01*
X419000Y646500D02*
Y709496D01*
X481996Y726500D02*
Y789496D01*
X419000Y726500D02*
Y789496D01*
X481996Y806500D02*
Y869496D01*
X419000Y806500D02*
Y869496D01*
X481996Y886500D02*
Y949496D01*
X419000Y886500D02*
Y949496D01*
X481996Y966500D02*
Y1029496D01*
X419000Y966500D02*
Y1029496D01*
X581996Y6500D02*
Y69496D01*
X519000Y6500D02*
Y69496D01*
X519000Y86500D02*
Y149496D01*
X581996Y86500D02*
Y149496D01*
X519000Y166500D02*
Y229496D01*
X581996Y166500D02*
Y229496D01*
X519000Y246500D02*
Y309496D01*
X581996Y246500D02*
Y309496D01*
X519000Y326500D02*
Y389496D01*
X581996Y326500D02*
Y389496D01*
X519000Y406500D02*
Y469496D01*
X581996Y406500D02*
Y469496D01*
X519000Y486500D02*
Y549496D01*
X581996Y486500D02*
Y549496D01*
X519000Y566500D02*
Y629496D01*
X581996Y566500D02*
Y629496D01*
X519000Y646500D02*
Y709496D01*
X581996Y646500D02*
Y709496D01*
X519000Y726500D02*
Y789496D01*
X581996Y726500D02*
Y789496D01*
X519000Y806500D02*
Y869496D01*
X581996Y806500D02*
Y869496D01*
X519000Y886500D02*
Y949496D01*
X581996Y886500D02*
Y949496D01*
X519000Y966500D02*
Y1029496D01*
X581996Y966500D02*
Y1029496D01*
X619000Y6500D02*
Y69496D01*
X681996Y6500D02*
Y69496D01*
X681996Y86500D02*
Y149496D01*
X619000Y86500D02*
Y149496D01*
X681996Y166500D02*
Y229496D01*
X619000Y166500D02*
Y229496D01*
X681996Y246500D02*
Y309496D01*
X619000Y246500D02*
Y309496D01*
X681996Y326500D02*
Y389496D01*
X619000Y326500D02*
Y389496D01*
X681996Y406500D02*
Y469496D01*
X619000Y406500D02*
Y469496D01*
X681996Y486500D02*
Y549496D01*
X619000Y486500D02*
Y549496D01*
X681996Y566500D02*
Y629496D01*
X619000Y566500D02*
Y629496D01*
X681996Y646500D02*
Y709496D01*
X619000Y646500D02*
Y709496D01*
X681996Y726500D02*
Y789496D01*
X619000Y726500D02*
Y789496D01*
X681996Y806500D02*
Y869496D01*
X619000Y806500D02*
Y869496D01*
X681996Y886500D02*
Y949496D01*
X619000Y886500D02*
Y949496D01*
X681996Y966500D02*
Y1029496D01*
X619000Y966500D02*
Y1029496D01*
D24*
X84555Y5500D02*
Y70480D01*
X16400D02*
X84555D01*
X16400Y5500D02*
Y70480D01*
Y5500D02*
X84555D01*
X16400Y85500D02*
X84555D01*
X16400D02*
Y150480D01*
X84555D01*
Y85500D02*
Y150480D01*
X16400Y165500D02*
X84555D01*
X16400D02*
Y230480D01*
X84555D01*
Y165500D02*
Y230480D01*
X16400Y245500D02*
X84555D01*
X16400D02*
Y310480D01*
X84555D01*
Y245500D02*
Y310480D01*
X16400Y325500D02*
X84555D01*
X16400D02*
Y390480D01*
X84555D01*
Y325500D02*
Y390480D01*
X16400Y405500D02*
X84555D01*
X16400D02*
Y470480D01*
X84555D01*
Y405500D02*
Y470480D01*
X16400Y485500D02*
X84555D01*
X16400D02*
Y550480D01*
X84555D01*
Y485500D02*
Y550480D01*
X16400Y565500D02*
X84555D01*
X16400D02*
Y630480D01*
X84555D01*
Y565500D02*
Y630480D01*
X16400Y645500D02*
X84555D01*
X16400D02*
Y710480D01*
X84555D01*
Y645500D02*
Y710480D01*
X16400Y725500D02*
X84555D01*
X16400D02*
Y790480D01*
X84555D01*
Y725500D02*
Y790480D01*
X16400Y805500D02*
X84555D01*
X16400D02*
Y870480D01*
X84555D01*
Y805500D02*
Y870480D01*
X16400Y885500D02*
X84555D01*
X16400D02*
Y950480D01*
X84555D01*
Y885500D02*
Y950480D01*
X16400Y965500D02*
X84555D01*
X16400D02*
Y1030480D01*
X84555D01*
Y965500D02*
Y1030480D01*
X116400Y5500D02*
X184555D01*
X116400D02*
Y70480D01*
X184555D01*
Y5500D02*
Y70480D01*
X184555Y85500D02*
Y150480D01*
X116400D02*
X184555D01*
X116400Y85500D02*
Y150480D01*
Y85500D02*
X184555D01*
Y165500D02*
Y230480D01*
X116400D02*
X184555D01*
X116400Y165500D02*
Y230480D01*
Y165500D02*
X184555D01*
Y245500D02*
Y310480D01*
X116400D02*
X184555D01*
X116400Y245500D02*
Y310480D01*
Y245500D02*
X184555D01*
Y325500D02*
Y390480D01*
X116400D02*
X184555D01*
X116400Y325500D02*
Y390480D01*
Y325500D02*
X184555D01*
Y405500D02*
Y470480D01*
X116400D02*
X184555D01*
X116400Y405500D02*
Y470480D01*
Y405500D02*
X184555D01*
Y485500D02*
Y550480D01*
X116400D02*
X184555D01*
X116400Y485500D02*
Y550480D01*
Y485500D02*
X184555D01*
Y565500D02*
Y630480D01*
X116400D02*
X184555D01*
X116400Y565500D02*
Y630480D01*
Y565500D02*
X184555D01*
Y645500D02*
Y710480D01*
X116400D02*
X184555D01*
X116400Y645500D02*
Y710480D01*
Y645500D02*
X184555D01*
Y725500D02*
Y790480D01*
X116400D02*
X184555D01*
X116400Y725500D02*
Y790480D01*
Y725500D02*
X184555D01*
Y805500D02*
Y870480D01*
X116400D02*
X184555D01*
X116400Y805500D02*
Y870480D01*
Y805500D02*
X184555D01*
Y885500D02*
Y950480D01*
X116400D02*
X184555D01*
X116400Y885500D02*
Y950480D01*
Y885500D02*
X184555D01*
Y965500D02*
Y1030480D01*
X116400D02*
X184555D01*
X116400Y965500D02*
Y1030480D01*
Y965500D02*
X184555D01*
X216400Y5500D02*
X284555D01*
X216400D02*
Y70480D01*
X284555D01*
Y5500D02*
Y70480D01*
X284555Y85500D02*
Y150480D01*
X216400D02*
X284555D01*
X216400Y85500D02*
Y150480D01*
Y85500D02*
X284555D01*
Y165500D02*
Y230480D01*
X216400D02*
X284555D01*
X216400Y165500D02*
Y230480D01*
Y165500D02*
X284555D01*
Y245500D02*
Y310480D01*
X216400D02*
X284555D01*
X216400Y245500D02*
Y310480D01*
Y245500D02*
X284555D01*
Y325500D02*
Y390480D01*
X216400D02*
X284555D01*
X216400Y325500D02*
Y390480D01*
Y325500D02*
X284555D01*
Y405500D02*
Y470480D01*
X216400D02*
X284555D01*
X216400Y405500D02*
Y470480D01*
Y405500D02*
X284555D01*
Y485500D02*
Y550480D01*
X216400D02*
X284555D01*
X216400Y485500D02*
Y550480D01*
Y485500D02*
X284555D01*
Y565500D02*
Y630480D01*
X216400D02*
X284555D01*
X216400Y565500D02*
Y630480D01*
Y565500D02*
X284555D01*
Y645500D02*
Y710480D01*
X216400D02*
X284555D01*
X216400Y645500D02*
Y710480D01*
Y645500D02*
X284555D01*
Y725500D02*
Y790480D01*
X216400D02*
X284555D01*
X216400Y725500D02*
Y790480D01*
Y725500D02*
X284555D01*
Y805500D02*
Y870480D01*
X216400D02*
X284555D01*
X216400Y805500D02*
Y870480D01*
Y805500D02*
X284555D01*
Y885500D02*
Y950480D01*
X216400D02*
X284555D01*
X216400Y885500D02*
Y950480D01*
Y885500D02*
X284555D01*
Y965500D02*
Y1030480D01*
X216400D02*
X284555D01*
X216400Y965500D02*
Y1030480D01*
Y965500D02*
X284555D01*
X384555Y5500D02*
Y70480D01*
X316400D02*
X384555D01*
X316400Y5500D02*
Y70480D01*
Y5500D02*
X384555D01*
X316400Y85500D02*
X384555D01*
X316400D02*
Y150480D01*
X384555D01*
Y85500D02*
Y150480D01*
X316400Y165500D02*
X384555D01*
X316400D02*
Y230480D01*
X384555D01*
Y165500D02*
Y230480D01*
X316400Y245500D02*
X384555D01*
X316400D02*
Y310480D01*
X384555D01*
Y245500D02*
Y310480D01*
X316400Y325500D02*
X384555D01*
X316400D02*
Y390480D01*
X384555D01*
Y325500D02*
Y390480D01*
X316400Y405500D02*
X384555D01*
X316400D02*
Y470480D01*
X384555D01*
Y405500D02*
Y470480D01*
X316400Y485500D02*
X384555D01*
X316400D02*
Y550480D01*
X384555D01*
Y485500D02*
Y550480D01*
X316400Y565500D02*
X384555D01*
X316400D02*
Y630480D01*
X384555D01*
Y565500D02*
Y630480D01*
X316400Y645500D02*
X384555D01*
X316400D02*
Y710480D01*
X384555D01*
Y645500D02*
Y710480D01*
X316400Y725500D02*
X384555D01*
X316400D02*
Y790480D01*
X384555D01*
Y725500D02*
Y790480D01*
X316400Y805500D02*
X384555D01*
X316400D02*
Y870480D01*
X384555D01*
Y805500D02*
Y870480D01*
X316400Y885500D02*
X384555D01*
X316400D02*
Y950480D01*
X384555D01*
Y885500D02*
Y950480D01*
X316400Y965500D02*
X384555D01*
X316400D02*
Y1030480D01*
X384555D01*
Y965500D02*
Y1030480D01*
X416400Y5500D02*
X484555D01*
X416400D02*
Y70480D01*
X484555D01*
Y5500D02*
Y70480D01*
X484555Y85500D02*
Y150480D01*
X416400D02*
X484555D01*
X416400Y85500D02*
Y150480D01*
Y85500D02*
X484555D01*
Y165500D02*
Y230480D01*
X416400D02*
X484555D01*
X416400Y165500D02*
Y230480D01*
Y165500D02*
X484555D01*
Y245500D02*
Y310480D01*
X416400D02*
X484555D01*
X416400Y245500D02*
Y310480D01*
Y245500D02*
X484555D01*
Y325500D02*
Y390480D01*
X416400D02*
X484555D01*
X416400Y325500D02*
Y390480D01*
Y325500D02*
X484555D01*
Y405500D02*
Y470480D01*
X416400D02*
X484555D01*
X416400Y405500D02*
Y470480D01*
Y405500D02*
X484555D01*
Y485500D02*
Y550480D01*
X416400D02*
X484555D01*
X416400Y485500D02*
Y550480D01*
Y485500D02*
X484555D01*
Y565500D02*
Y630480D01*
X416400D02*
X484555D01*
X416400Y565500D02*
Y630480D01*
Y565500D02*
X484555D01*
Y645500D02*
Y710480D01*
X416400D02*
X484555D01*
X416400Y645500D02*
Y710480D01*
Y645500D02*
X484555D01*
Y725500D02*
Y790480D01*
X416400D02*
X484555D01*
X416400Y725500D02*
Y790480D01*
Y725500D02*
X484555D01*
Y805500D02*
Y870480D01*
X416400D02*
X484555D01*
X416400Y805500D02*
Y870480D01*
Y805500D02*
X484555D01*
Y885500D02*
Y950480D01*
X416400D02*
X484555D01*
X416400Y885500D02*
Y950480D01*
Y885500D02*
X484555D01*
Y965500D02*
Y1030480D01*
X416400D02*
X484555D01*
X416400Y965500D02*
Y1030480D01*
Y965500D02*
X484555D01*
X584555Y5500D02*
Y70480D01*
X516400D02*
X584555D01*
X516400Y5500D02*
Y70480D01*
Y5500D02*
X584555D01*
X516400Y85500D02*
X584555D01*
X516400D02*
Y150480D01*
X584555D01*
Y85500D02*
Y150480D01*
X516400Y165500D02*
X584555D01*
X516400D02*
Y230480D01*
X584555D01*
Y165500D02*
Y230480D01*
X516400Y245500D02*
X584555D01*
X516400D02*
Y310480D01*
X584555D01*
Y245500D02*
Y310480D01*
X516400Y325500D02*
X584555D01*
X516400D02*
Y390480D01*
X584555D01*
Y325500D02*
Y390480D01*
X516400Y405500D02*
X584555D01*
X516400D02*
Y470480D01*
X584555D01*
Y405500D02*
Y470480D01*
X516400Y485500D02*
X584555D01*
X516400D02*
Y550480D01*
X584555D01*
Y485500D02*
Y550480D01*
X516400Y565500D02*
X584555D01*
X516400D02*
Y630480D01*
X584555D01*
Y565500D02*
Y630480D01*
X516400Y645500D02*
X584555D01*
X516400D02*
Y710480D01*
X584555D01*
Y645500D02*
Y710480D01*
X516400Y725500D02*
X584555D01*
X516400D02*
Y790480D01*
X584555D01*
Y725500D02*
Y790480D01*
X516400Y805500D02*
X584555D01*
X516400D02*
Y870480D01*
X584555D01*
Y805500D02*
Y870480D01*
X516400Y885500D02*
X584555D01*
X516400D02*
Y950480D01*
X584555D01*
Y885500D02*
Y950480D01*
X516400Y965500D02*
X584555D01*
X516400D02*
Y1030480D01*
X584555D01*
Y965500D02*
Y1030480D01*
X616400Y5500D02*
X684555D01*
X616400D02*
Y70480D01*
X684555D01*
Y5500D02*
Y70480D01*
X684555Y85500D02*
Y150480D01*
X616400D02*
X684555D01*
X616400Y85500D02*
Y150480D01*
Y85500D02*
X684555D01*
Y165500D02*
Y230480D01*
X616400D02*
X684555D01*
X616400Y165500D02*
Y230480D01*
Y165500D02*
X684555D01*
Y245500D02*
Y310480D01*
X616400D02*
X684555D01*
X616400Y245500D02*
Y310480D01*
Y245500D02*
X684555D01*
Y325500D02*
Y390480D01*
X616400D02*
X684555D01*
X616400Y325500D02*
Y390480D01*
Y325500D02*
X684555D01*
Y405500D02*
Y470480D01*
X616400D02*
X684555D01*
X616400Y405500D02*
Y470480D01*
Y405500D02*
X684555D01*
Y485500D02*
Y550480D01*
X616400D02*
X684555D01*
X616400Y485500D02*
Y550480D01*
Y485500D02*
X684555D01*
Y565500D02*
Y630480D01*
X616400D02*
X684555D01*
X616400Y565500D02*
Y630480D01*
Y565500D02*
X684555D01*
Y645500D02*
Y710480D01*
X616400D02*
X684555D01*
X616400Y645500D02*
Y710480D01*
Y645500D02*
X684555D01*
Y725500D02*
Y790480D01*
X616400D02*
X684555D01*
X616400Y725500D02*
Y790480D01*
Y725500D02*
X684555D01*
Y805500D02*
Y870480D01*
X616400D02*
X684555D01*
X616400Y805500D02*
Y870480D01*
Y805500D02*
X684555D01*
Y885500D02*
Y950480D01*
X616400D02*
X684555D01*
X616400Y885500D02*
Y950480D01*
Y885500D02*
X684555D01*
Y965500D02*
Y1030480D01*
X616400D02*
X684555D01*
X616400Y965500D02*
Y1030480D01*
Y965500D02*
X684555D01*
M02*
