G04 Layer_Color=255*
%FSLAX25Y25*%
%MOIN*%
G70*
G01*
G75*
%ADD12C,0.05906*%
%ADD13R,0.05906X0.05906*%
D12*
X5000Y5000D02*
D03*
Y15000D02*
D03*
Y25000D02*
D03*
Y35000D02*
D03*
Y45000D02*
D03*
Y55000D02*
D03*
Y65000D02*
D03*
X95000Y75000D02*
D03*
Y65000D02*
D03*
Y55000D02*
D03*
Y45000D02*
D03*
Y35000D02*
D03*
Y25000D02*
D03*
Y15000D02*
D03*
X5000Y145000D02*
D03*
Y135000D02*
D03*
Y125000D02*
D03*
Y115000D02*
D03*
Y105000D02*
D03*
Y95000D02*
D03*
Y85000D02*
D03*
X95000Y95000D02*
D03*
Y105000D02*
D03*
Y115000D02*
D03*
Y125000D02*
D03*
Y135000D02*
D03*
Y145000D02*
D03*
Y155000D02*
D03*
X5000Y225000D02*
D03*
Y215000D02*
D03*
Y205000D02*
D03*
Y195000D02*
D03*
Y185000D02*
D03*
Y175000D02*
D03*
Y165000D02*
D03*
X95000Y175000D02*
D03*
Y185000D02*
D03*
Y195000D02*
D03*
Y205000D02*
D03*
Y215000D02*
D03*
Y225000D02*
D03*
Y235000D02*
D03*
X5000Y305000D02*
D03*
Y295000D02*
D03*
Y285000D02*
D03*
Y275000D02*
D03*
Y265000D02*
D03*
Y255000D02*
D03*
Y245000D02*
D03*
X95000Y255000D02*
D03*
Y265000D02*
D03*
Y275000D02*
D03*
Y285000D02*
D03*
Y295000D02*
D03*
Y305000D02*
D03*
Y315000D02*
D03*
X5000Y385000D02*
D03*
Y375000D02*
D03*
Y365000D02*
D03*
Y355000D02*
D03*
Y345000D02*
D03*
Y335000D02*
D03*
Y325000D02*
D03*
X95000Y335000D02*
D03*
Y345000D02*
D03*
Y355000D02*
D03*
Y365000D02*
D03*
Y375000D02*
D03*
Y385000D02*
D03*
Y395000D02*
D03*
X5000Y465000D02*
D03*
Y455000D02*
D03*
Y445000D02*
D03*
Y435000D02*
D03*
Y425000D02*
D03*
Y415000D02*
D03*
Y405000D02*
D03*
X95000Y415000D02*
D03*
Y425000D02*
D03*
Y435000D02*
D03*
Y445000D02*
D03*
Y455000D02*
D03*
Y465000D02*
D03*
Y475000D02*
D03*
X5000Y545000D02*
D03*
Y535000D02*
D03*
Y525000D02*
D03*
Y515000D02*
D03*
Y505000D02*
D03*
Y495000D02*
D03*
Y485000D02*
D03*
X95000Y495000D02*
D03*
Y505000D02*
D03*
Y515000D02*
D03*
Y525000D02*
D03*
Y535000D02*
D03*
Y545000D02*
D03*
Y555000D02*
D03*
X5000Y625000D02*
D03*
Y615000D02*
D03*
Y605000D02*
D03*
Y595000D02*
D03*
Y585000D02*
D03*
Y575000D02*
D03*
Y565000D02*
D03*
X95000Y575000D02*
D03*
Y585000D02*
D03*
Y595000D02*
D03*
Y605000D02*
D03*
Y615000D02*
D03*
Y625000D02*
D03*
Y635000D02*
D03*
X5000Y705000D02*
D03*
Y695000D02*
D03*
Y685000D02*
D03*
Y675000D02*
D03*
Y665000D02*
D03*
Y655000D02*
D03*
Y645000D02*
D03*
X95000Y655000D02*
D03*
Y665000D02*
D03*
Y675000D02*
D03*
Y685000D02*
D03*
Y695000D02*
D03*
Y705000D02*
D03*
Y715000D02*
D03*
X5000Y785000D02*
D03*
Y775000D02*
D03*
Y765000D02*
D03*
Y755000D02*
D03*
Y745000D02*
D03*
Y735000D02*
D03*
Y725000D02*
D03*
X95000Y735000D02*
D03*
Y745000D02*
D03*
Y755000D02*
D03*
Y765000D02*
D03*
Y775000D02*
D03*
Y785000D02*
D03*
Y795000D02*
D03*
X5000Y865000D02*
D03*
Y855000D02*
D03*
Y845000D02*
D03*
Y835000D02*
D03*
Y825000D02*
D03*
Y815000D02*
D03*
Y805000D02*
D03*
X95000Y815000D02*
D03*
Y825000D02*
D03*
Y835000D02*
D03*
Y845000D02*
D03*
Y855000D02*
D03*
Y865000D02*
D03*
Y875000D02*
D03*
X5000Y945000D02*
D03*
Y935000D02*
D03*
Y925000D02*
D03*
Y915000D02*
D03*
Y905000D02*
D03*
Y895000D02*
D03*
Y885000D02*
D03*
X95000Y895000D02*
D03*
Y905000D02*
D03*
Y915000D02*
D03*
Y925000D02*
D03*
Y935000D02*
D03*
Y945000D02*
D03*
Y955000D02*
D03*
X5000Y1025000D02*
D03*
Y1015000D02*
D03*
Y1005000D02*
D03*
Y995000D02*
D03*
Y985000D02*
D03*
Y975000D02*
D03*
Y965000D02*
D03*
X95000Y975000D02*
D03*
Y985000D02*
D03*
Y995000D02*
D03*
Y1005000D02*
D03*
Y1015000D02*
D03*
Y1025000D02*
D03*
Y1035000D02*
D03*
X105000Y65000D02*
D03*
Y55000D02*
D03*
Y45000D02*
D03*
Y35000D02*
D03*
Y25000D02*
D03*
Y15000D02*
D03*
Y5000D02*
D03*
X105000Y85000D02*
D03*
Y95000D02*
D03*
Y105000D02*
D03*
Y115000D02*
D03*
Y125000D02*
D03*
Y135000D02*
D03*
Y145000D02*
D03*
Y165000D02*
D03*
Y175000D02*
D03*
Y185000D02*
D03*
Y195000D02*
D03*
Y205000D02*
D03*
Y215000D02*
D03*
Y225000D02*
D03*
Y245000D02*
D03*
Y255000D02*
D03*
Y265000D02*
D03*
Y275000D02*
D03*
Y285000D02*
D03*
Y295000D02*
D03*
Y305000D02*
D03*
Y325000D02*
D03*
Y335000D02*
D03*
Y345000D02*
D03*
Y355000D02*
D03*
Y365000D02*
D03*
Y375000D02*
D03*
Y385000D02*
D03*
Y405000D02*
D03*
Y415000D02*
D03*
Y425000D02*
D03*
Y435000D02*
D03*
Y445000D02*
D03*
Y455000D02*
D03*
Y465000D02*
D03*
Y485000D02*
D03*
Y495000D02*
D03*
Y505000D02*
D03*
Y515000D02*
D03*
Y525000D02*
D03*
Y535000D02*
D03*
Y545000D02*
D03*
Y565000D02*
D03*
Y575000D02*
D03*
Y585000D02*
D03*
Y595000D02*
D03*
Y605000D02*
D03*
Y615000D02*
D03*
Y625000D02*
D03*
Y645000D02*
D03*
Y655000D02*
D03*
Y665000D02*
D03*
Y675000D02*
D03*
Y685000D02*
D03*
Y695000D02*
D03*
Y705000D02*
D03*
Y725000D02*
D03*
Y735000D02*
D03*
Y745000D02*
D03*
Y755000D02*
D03*
Y765000D02*
D03*
Y775000D02*
D03*
Y785000D02*
D03*
Y805000D02*
D03*
Y815000D02*
D03*
Y825000D02*
D03*
Y835000D02*
D03*
Y845000D02*
D03*
Y855000D02*
D03*
Y865000D02*
D03*
Y885000D02*
D03*
Y895000D02*
D03*
Y905000D02*
D03*
Y915000D02*
D03*
Y925000D02*
D03*
Y935000D02*
D03*
Y945000D02*
D03*
Y965000D02*
D03*
Y975000D02*
D03*
Y985000D02*
D03*
Y995000D02*
D03*
Y1005000D02*
D03*
Y1015000D02*
D03*
Y1025000D02*
D03*
X195000Y15000D02*
D03*
Y25000D02*
D03*
Y35000D02*
D03*
Y45000D02*
D03*
Y55000D02*
D03*
Y65000D02*
D03*
Y75000D02*
D03*
X195000Y155000D02*
D03*
Y145000D02*
D03*
Y135000D02*
D03*
Y125000D02*
D03*
Y115000D02*
D03*
Y105000D02*
D03*
Y95000D02*
D03*
Y235000D02*
D03*
Y225000D02*
D03*
Y215000D02*
D03*
Y205000D02*
D03*
Y195000D02*
D03*
Y185000D02*
D03*
Y175000D02*
D03*
Y315000D02*
D03*
Y305000D02*
D03*
Y295000D02*
D03*
Y285000D02*
D03*
Y275000D02*
D03*
Y265000D02*
D03*
Y255000D02*
D03*
Y395000D02*
D03*
Y385000D02*
D03*
Y375000D02*
D03*
Y365000D02*
D03*
Y355000D02*
D03*
Y345000D02*
D03*
Y335000D02*
D03*
Y475000D02*
D03*
Y465000D02*
D03*
Y455000D02*
D03*
Y445000D02*
D03*
Y435000D02*
D03*
Y425000D02*
D03*
Y415000D02*
D03*
Y555000D02*
D03*
Y545000D02*
D03*
Y535000D02*
D03*
Y525000D02*
D03*
Y515000D02*
D03*
Y505000D02*
D03*
Y495000D02*
D03*
Y635000D02*
D03*
Y625000D02*
D03*
Y615000D02*
D03*
Y605000D02*
D03*
Y595000D02*
D03*
Y585000D02*
D03*
Y575000D02*
D03*
Y715000D02*
D03*
Y705000D02*
D03*
Y695000D02*
D03*
Y685000D02*
D03*
Y675000D02*
D03*
Y665000D02*
D03*
Y655000D02*
D03*
Y795000D02*
D03*
Y785000D02*
D03*
Y775000D02*
D03*
Y765000D02*
D03*
Y755000D02*
D03*
Y745000D02*
D03*
Y735000D02*
D03*
Y875000D02*
D03*
Y865000D02*
D03*
Y855000D02*
D03*
Y845000D02*
D03*
Y835000D02*
D03*
Y825000D02*
D03*
Y815000D02*
D03*
Y955000D02*
D03*
Y945000D02*
D03*
Y935000D02*
D03*
Y925000D02*
D03*
Y915000D02*
D03*
Y905000D02*
D03*
Y895000D02*
D03*
Y1035000D02*
D03*
Y1025000D02*
D03*
Y1015000D02*
D03*
Y1005000D02*
D03*
Y995000D02*
D03*
Y985000D02*
D03*
Y975000D02*
D03*
X205000Y65000D02*
D03*
Y55000D02*
D03*
Y45000D02*
D03*
Y35000D02*
D03*
Y25000D02*
D03*
Y15000D02*
D03*
Y5000D02*
D03*
X205000Y85000D02*
D03*
Y95000D02*
D03*
Y105000D02*
D03*
Y115000D02*
D03*
Y125000D02*
D03*
Y135000D02*
D03*
Y145000D02*
D03*
Y165000D02*
D03*
Y175000D02*
D03*
Y185000D02*
D03*
Y195000D02*
D03*
Y205000D02*
D03*
Y215000D02*
D03*
Y225000D02*
D03*
Y245000D02*
D03*
Y255000D02*
D03*
Y265000D02*
D03*
Y275000D02*
D03*
Y285000D02*
D03*
Y295000D02*
D03*
Y305000D02*
D03*
Y325000D02*
D03*
Y335000D02*
D03*
Y345000D02*
D03*
Y355000D02*
D03*
Y365000D02*
D03*
Y375000D02*
D03*
Y385000D02*
D03*
Y405000D02*
D03*
Y415000D02*
D03*
Y425000D02*
D03*
Y435000D02*
D03*
Y445000D02*
D03*
Y455000D02*
D03*
Y465000D02*
D03*
Y485000D02*
D03*
Y495000D02*
D03*
Y505000D02*
D03*
Y515000D02*
D03*
Y525000D02*
D03*
Y535000D02*
D03*
Y545000D02*
D03*
Y565000D02*
D03*
Y575000D02*
D03*
Y585000D02*
D03*
Y595000D02*
D03*
Y605000D02*
D03*
Y615000D02*
D03*
Y625000D02*
D03*
Y645000D02*
D03*
Y655000D02*
D03*
Y665000D02*
D03*
Y675000D02*
D03*
Y685000D02*
D03*
Y695000D02*
D03*
Y705000D02*
D03*
Y725000D02*
D03*
Y735000D02*
D03*
Y745000D02*
D03*
Y755000D02*
D03*
Y765000D02*
D03*
Y775000D02*
D03*
Y785000D02*
D03*
Y805000D02*
D03*
Y815000D02*
D03*
Y825000D02*
D03*
Y835000D02*
D03*
Y845000D02*
D03*
Y855000D02*
D03*
Y865000D02*
D03*
Y885000D02*
D03*
Y895000D02*
D03*
Y905000D02*
D03*
Y915000D02*
D03*
Y925000D02*
D03*
Y935000D02*
D03*
Y945000D02*
D03*
Y965000D02*
D03*
Y975000D02*
D03*
Y985000D02*
D03*
Y995000D02*
D03*
Y1005000D02*
D03*
Y1015000D02*
D03*
Y1025000D02*
D03*
X295000Y15000D02*
D03*
Y25000D02*
D03*
Y35000D02*
D03*
Y45000D02*
D03*
Y55000D02*
D03*
Y65000D02*
D03*
Y75000D02*
D03*
X295000Y155000D02*
D03*
Y145000D02*
D03*
Y135000D02*
D03*
Y125000D02*
D03*
Y115000D02*
D03*
Y105000D02*
D03*
Y95000D02*
D03*
Y235000D02*
D03*
Y225000D02*
D03*
Y215000D02*
D03*
Y205000D02*
D03*
Y195000D02*
D03*
Y185000D02*
D03*
Y175000D02*
D03*
Y315000D02*
D03*
Y305000D02*
D03*
Y295000D02*
D03*
Y285000D02*
D03*
Y275000D02*
D03*
Y265000D02*
D03*
Y255000D02*
D03*
Y395000D02*
D03*
Y385000D02*
D03*
Y375000D02*
D03*
Y365000D02*
D03*
Y355000D02*
D03*
Y345000D02*
D03*
Y335000D02*
D03*
Y475000D02*
D03*
Y465000D02*
D03*
Y455000D02*
D03*
Y445000D02*
D03*
Y435000D02*
D03*
Y425000D02*
D03*
Y415000D02*
D03*
Y555000D02*
D03*
Y545000D02*
D03*
Y535000D02*
D03*
Y525000D02*
D03*
Y515000D02*
D03*
Y505000D02*
D03*
Y495000D02*
D03*
Y635000D02*
D03*
Y625000D02*
D03*
Y615000D02*
D03*
Y605000D02*
D03*
Y595000D02*
D03*
Y585000D02*
D03*
Y575000D02*
D03*
Y715000D02*
D03*
Y705000D02*
D03*
Y695000D02*
D03*
Y685000D02*
D03*
Y675000D02*
D03*
Y665000D02*
D03*
Y655000D02*
D03*
Y795000D02*
D03*
Y785000D02*
D03*
Y775000D02*
D03*
Y765000D02*
D03*
Y755000D02*
D03*
Y745000D02*
D03*
Y735000D02*
D03*
Y875000D02*
D03*
Y865000D02*
D03*
Y855000D02*
D03*
Y845000D02*
D03*
Y835000D02*
D03*
Y825000D02*
D03*
Y815000D02*
D03*
Y955000D02*
D03*
Y945000D02*
D03*
Y935000D02*
D03*
Y925000D02*
D03*
Y915000D02*
D03*
Y905000D02*
D03*
Y895000D02*
D03*
Y1035000D02*
D03*
Y1025000D02*
D03*
Y1015000D02*
D03*
Y1005000D02*
D03*
Y995000D02*
D03*
Y985000D02*
D03*
Y975000D02*
D03*
X395000Y75000D02*
D03*
Y65000D02*
D03*
Y55000D02*
D03*
Y45000D02*
D03*
Y35000D02*
D03*
Y25000D02*
D03*
Y15000D02*
D03*
X395000Y95000D02*
D03*
Y105000D02*
D03*
Y115000D02*
D03*
Y125000D02*
D03*
Y135000D02*
D03*
Y145000D02*
D03*
Y155000D02*
D03*
Y175000D02*
D03*
Y185000D02*
D03*
Y195000D02*
D03*
Y205000D02*
D03*
Y215000D02*
D03*
Y225000D02*
D03*
Y235000D02*
D03*
Y255000D02*
D03*
Y265000D02*
D03*
Y275000D02*
D03*
Y285000D02*
D03*
Y295000D02*
D03*
Y305000D02*
D03*
Y315000D02*
D03*
Y335000D02*
D03*
Y345000D02*
D03*
Y355000D02*
D03*
Y365000D02*
D03*
Y375000D02*
D03*
Y385000D02*
D03*
Y395000D02*
D03*
Y415000D02*
D03*
Y425000D02*
D03*
Y435000D02*
D03*
Y445000D02*
D03*
Y455000D02*
D03*
Y465000D02*
D03*
Y475000D02*
D03*
Y495000D02*
D03*
Y505000D02*
D03*
Y515000D02*
D03*
Y525000D02*
D03*
Y535000D02*
D03*
Y545000D02*
D03*
Y555000D02*
D03*
Y575000D02*
D03*
Y585000D02*
D03*
Y595000D02*
D03*
Y605000D02*
D03*
Y615000D02*
D03*
Y625000D02*
D03*
Y635000D02*
D03*
Y655000D02*
D03*
Y665000D02*
D03*
Y675000D02*
D03*
Y685000D02*
D03*
Y695000D02*
D03*
Y705000D02*
D03*
Y715000D02*
D03*
Y735000D02*
D03*
Y745000D02*
D03*
Y755000D02*
D03*
Y765000D02*
D03*
Y775000D02*
D03*
Y785000D02*
D03*
Y795000D02*
D03*
Y815000D02*
D03*
Y825000D02*
D03*
Y835000D02*
D03*
Y845000D02*
D03*
Y855000D02*
D03*
Y865000D02*
D03*
Y875000D02*
D03*
Y895000D02*
D03*
Y905000D02*
D03*
Y915000D02*
D03*
Y925000D02*
D03*
Y935000D02*
D03*
Y945000D02*
D03*
Y955000D02*
D03*
Y975000D02*
D03*
Y985000D02*
D03*
Y995000D02*
D03*
Y1005000D02*
D03*
Y1015000D02*
D03*
Y1025000D02*
D03*
Y1035000D02*
D03*
X305000Y225000D02*
D03*
Y215000D02*
D03*
Y205000D02*
D03*
Y195000D02*
D03*
Y185000D02*
D03*
Y175000D02*
D03*
Y165000D02*
D03*
Y465000D02*
D03*
Y455000D02*
D03*
Y445000D02*
D03*
Y435000D02*
D03*
Y425000D02*
D03*
Y415000D02*
D03*
Y405000D02*
D03*
Y625000D02*
D03*
Y615000D02*
D03*
Y605000D02*
D03*
Y595000D02*
D03*
Y585000D02*
D03*
Y575000D02*
D03*
Y565000D02*
D03*
Y865000D02*
D03*
Y855000D02*
D03*
Y845000D02*
D03*
Y835000D02*
D03*
Y825000D02*
D03*
Y815000D02*
D03*
Y805000D02*
D03*
X305000Y5000D02*
D03*
Y15000D02*
D03*
Y25000D02*
D03*
Y35000D02*
D03*
Y45000D02*
D03*
Y55000D02*
D03*
Y65000D02*
D03*
X305000Y145000D02*
D03*
Y135000D02*
D03*
Y125000D02*
D03*
Y115000D02*
D03*
Y105000D02*
D03*
Y95000D02*
D03*
Y85000D02*
D03*
Y305000D02*
D03*
Y295000D02*
D03*
Y285000D02*
D03*
Y275000D02*
D03*
Y265000D02*
D03*
Y255000D02*
D03*
Y245000D02*
D03*
Y385000D02*
D03*
Y375000D02*
D03*
Y365000D02*
D03*
Y355000D02*
D03*
Y345000D02*
D03*
Y335000D02*
D03*
Y325000D02*
D03*
Y545000D02*
D03*
Y535000D02*
D03*
Y525000D02*
D03*
Y515000D02*
D03*
Y505000D02*
D03*
Y495000D02*
D03*
Y485000D02*
D03*
Y705000D02*
D03*
Y695000D02*
D03*
Y685000D02*
D03*
Y675000D02*
D03*
Y665000D02*
D03*
Y655000D02*
D03*
Y645000D02*
D03*
Y785000D02*
D03*
Y775000D02*
D03*
Y765000D02*
D03*
Y755000D02*
D03*
Y745000D02*
D03*
Y735000D02*
D03*
Y725000D02*
D03*
Y945000D02*
D03*
Y935000D02*
D03*
Y925000D02*
D03*
Y915000D02*
D03*
Y905000D02*
D03*
Y895000D02*
D03*
Y885000D02*
D03*
Y1025000D02*
D03*
Y1015000D02*
D03*
Y1005000D02*
D03*
Y995000D02*
D03*
Y985000D02*
D03*
Y975000D02*
D03*
Y965000D02*
D03*
X405000Y65000D02*
D03*
Y55000D02*
D03*
Y45000D02*
D03*
Y35000D02*
D03*
Y25000D02*
D03*
Y15000D02*
D03*
Y5000D02*
D03*
X405000Y85000D02*
D03*
Y95000D02*
D03*
Y105000D02*
D03*
Y115000D02*
D03*
Y125000D02*
D03*
Y135000D02*
D03*
Y145000D02*
D03*
Y165000D02*
D03*
Y175000D02*
D03*
Y185000D02*
D03*
Y195000D02*
D03*
Y205000D02*
D03*
Y215000D02*
D03*
Y225000D02*
D03*
Y245000D02*
D03*
Y255000D02*
D03*
Y265000D02*
D03*
Y275000D02*
D03*
Y285000D02*
D03*
Y295000D02*
D03*
Y305000D02*
D03*
Y325000D02*
D03*
Y335000D02*
D03*
Y345000D02*
D03*
Y355000D02*
D03*
Y365000D02*
D03*
Y375000D02*
D03*
Y385000D02*
D03*
Y405000D02*
D03*
Y415000D02*
D03*
Y425000D02*
D03*
Y435000D02*
D03*
Y445000D02*
D03*
Y455000D02*
D03*
Y465000D02*
D03*
Y485000D02*
D03*
Y495000D02*
D03*
Y505000D02*
D03*
Y515000D02*
D03*
Y525000D02*
D03*
Y535000D02*
D03*
Y545000D02*
D03*
Y565000D02*
D03*
Y575000D02*
D03*
Y585000D02*
D03*
Y595000D02*
D03*
Y605000D02*
D03*
Y615000D02*
D03*
Y625000D02*
D03*
Y645000D02*
D03*
Y655000D02*
D03*
Y665000D02*
D03*
Y675000D02*
D03*
Y685000D02*
D03*
Y695000D02*
D03*
Y705000D02*
D03*
Y725000D02*
D03*
Y735000D02*
D03*
Y745000D02*
D03*
Y755000D02*
D03*
Y765000D02*
D03*
Y775000D02*
D03*
Y785000D02*
D03*
Y805000D02*
D03*
Y815000D02*
D03*
Y825000D02*
D03*
Y835000D02*
D03*
Y845000D02*
D03*
Y855000D02*
D03*
Y865000D02*
D03*
Y885000D02*
D03*
Y895000D02*
D03*
Y905000D02*
D03*
Y915000D02*
D03*
Y925000D02*
D03*
Y935000D02*
D03*
Y945000D02*
D03*
Y965000D02*
D03*
Y975000D02*
D03*
Y985000D02*
D03*
Y995000D02*
D03*
Y1005000D02*
D03*
Y1015000D02*
D03*
Y1025000D02*
D03*
X495000Y15000D02*
D03*
Y25000D02*
D03*
Y35000D02*
D03*
Y45000D02*
D03*
Y55000D02*
D03*
Y65000D02*
D03*
Y75000D02*
D03*
X495000Y155000D02*
D03*
Y145000D02*
D03*
Y135000D02*
D03*
Y125000D02*
D03*
Y115000D02*
D03*
Y105000D02*
D03*
Y95000D02*
D03*
Y235000D02*
D03*
Y225000D02*
D03*
Y215000D02*
D03*
Y205000D02*
D03*
Y195000D02*
D03*
Y185000D02*
D03*
Y175000D02*
D03*
Y315000D02*
D03*
Y305000D02*
D03*
Y295000D02*
D03*
Y285000D02*
D03*
Y275000D02*
D03*
Y265000D02*
D03*
Y255000D02*
D03*
Y395000D02*
D03*
Y385000D02*
D03*
Y375000D02*
D03*
Y365000D02*
D03*
Y355000D02*
D03*
Y345000D02*
D03*
Y335000D02*
D03*
Y475000D02*
D03*
Y465000D02*
D03*
Y455000D02*
D03*
Y445000D02*
D03*
Y435000D02*
D03*
Y425000D02*
D03*
Y415000D02*
D03*
Y555000D02*
D03*
Y545000D02*
D03*
Y535000D02*
D03*
Y525000D02*
D03*
Y515000D02*
D03*
Y505000D02*
D03*
Y495000D02*
D03*
Y635000D02*
D03*
Y625000D02*
D03*
Y615000D02*
D03*
Y605000D02*
D03*
Y595000D02*
D03*
Y585000D02*
D03*
Y575000D02*
D03*
Y715000D02*
D03*
Y705000D02*
D03*
Y695000D02*
D03*
Y685000D02*
D03*
Y675000D02*
D03*
Y665000D02*
D03*
Y655000D02*
D03*
Y795000D02*
D03*
Y785000D02*
D03*
Y775000D02*
D03*
Y765000D02*
D03*
Y755000D02*
D03*
Y745000D02*
D03*
Y735000D02*
D03*
Y875000D02*
D03*
Y865000D02*
D03*
Y855000D02*
D03*
Y845000D02*
D03*
Y835000D02*
D03*
Y825000D02*
D03*
Y815000D02*
D03*
Y955000D02*
D03*
Y945000D02*
D03*
Y935000D02*
D03*
Y925000D02*
D03*
Y915000D02*
D03*
Y905000D02*
D03*
Y895000D02*
D03*
Y1035000D02*
D03*
Y1025000D02*
D03*
Y1015000D02*
D03*
Y1005000D02*
D03*
Y995000D02*
D03*
Y985000D02*
D03*
Y975000D02*
D03*
X595000Y75000D02*
D03*
Y65000D02*
D03*
Y55000D02*
D03*
Y45000D02*
D03*
Y35000D02*
D03*
Y25000D02*
D03*
Y15000D02*
D03*
X595000Y95000D02*
D03*
Y105000D02*
D03*
Y115000D02*
D03*
Y125000D02*
D03*
Y135000D02*
D03*
Y145000D02*
D03*
Y155000D02*
D03*
Y175000D02*
D03*
Y185000D02*
D03*
Y195000D02*
D03*
Y205000D02*
D03*
Y215000D02*
D03*
Y225000D02*
D03*
Y235000D02*
D03*
Y255000D02*
D03*
Y265000D02*
D03*
Y275000D02*
D03*
Y285000D02*
D03*
Y295000D02*
D03*
Y305000D02*
D03*
Y315000D02*
D03*
Y335000D02*
D03*
Y345000D02*
D03*
Y355000D02*
D03*
Y365000D02*
D03*
Y375000D02*
D03*
Y385000D02*
D03*
Y395000D02*
D03*
Y415000D02*
D03*
Y425000D02*
D03*
Y435000D02*
D03*
Y445000D02*
D03*
Y455000D02*
D03*
Y465000D02*
D03*
Y475000D02*
D03*
Y495000D02*
D03*
Y505000D02*
D03*
Y515000D02*
D03*
Y525000D02*
D03*
Y535000D02*
D03*
Y545000D02*
D03*
Y555000D02*
D03*
Y575000D02*
D03*
Y585000D02*
D03*
Y595000D02*
D03*
Y605000D02*
D03*
Y615000D02*
D03*
Y625000D02*
D03*
Y635000D02*
D03*
Y655000D02*
D03*
Y665000D02*
D03*
Y675000D02*
D03*
Y685000D02*
D03*
Y695000D02*
D03*
Y705000D02*
D03*
Y715000D02*
D03*
Y735000D02*
D03*
Y745000D02*
D03*
Y755000D02*
D03*
Y765000D02*
D03*
Y775000D02*
D03*
Y785000D02*
D03*
Y795000D02*
D03*
Y815000D02*
D03*
Y825000D02*
D03*
Y835000D02*
D03*
Y845000D02*
D03*
Y855000D02*
D03*
Y865000D02*
D03*
Y875000D02*
D03*
Y895000D02*
D03*
Y905000D02*
D03*
Y915000D02*
D03*
Y925000D02*
D03*
Y935000D02*
D03*
Y945000D02*
D03*
Y955000D02*
D03*
Y975000D02*
D03*
Y985000D02*
D03*
Y995000D02*
D03*
Y1005000D02*
D03*
Y1015000D02*
D03*
Y1025000D02*
D03*
Y1035000D02*
D03*
X505000Y225000D02*
D03*
Y215000D02*
D03*
Y205000D02*
D03*
Y195000D02*
D03*
Y185000D02*
D03*
Y175000D02*
D03*
Y165000D02*
D03*
Y465000D02*
D03*
Y455000D02*
D03*
Y445000D02*
D03*
Y435000D02*
D03*
Y425000D02*
D03*
Y415000D02*
D03*
Y405000D02*
D03*
Y625000D02*
D03*
Y615000D02*
D03*
Y605000D02*
D03*
Y595000D02*
D03*
Y585000D02*
D03*
Y575000D02*
D03*
Y565000D02*
D03*
Y865000D02*
D03*
Y855000D02*
D03*
Y845000D02*
D03*
Y835000D02*
D03*
Y825000D02*
D03*
Y815000D02*
D03*
Y805000D02*
D03*
X505000Y5000D02*
D03*
Y15000D02*
D03*
Y25000D02*
D03*
Y35000D02*
D03*
Y45000D02*
D03*
Y55000D02*
D03*
Y65000D02*
D03*
X505000Y145000D02*
D03*
Y135000D02*
D03*
Y125000D02*
D03*
Y115000D02*
D03*
Y105000D02*
D03*
Y95000D02*
D03*
Y85000D02*
D03*
Y305000D02*
D03*
Y295000D02*
D03*
Y285000D02*
D03*
Y275000D02*
D03*
Y265000D02*
D03*
Y255000D02*
D03*
Y245000D02*
D03*
Y385000D02*
D03*
Y375000D02*
D03*
Y365000D02*
D03*
Y355000D02*
D03*
Y345000D02*
D03*
Y335000D02*
D03*
Y325000D02*
D03*
Y545000D02*
D03*
Y535000D02*
D03*
Y525000D02*
D03*
Y515000D02*
D03*
Y505000D02*
D03*
Y495000D02*
D03*
Y485000D02*
D03*
Y705000D02*
D03*
Y695000D02*
D03*
Y685000D02*
D03*
Y675000D02*
D03*
Y665000D02*
D03*
Y655000D02*
D03*
Y645000D02*
D03*
Y785000D02*
D03*
Y775000D02*
D03*
Y765000D02*
D03*
Y755000D02*
D03*
Y745000D02*
D03*
Y735000D02*
D03*
Y725000D02*
D03*
Y945000D02*
D03*
Y935000D02*
D03*
Y925000D02*
D03*
Y915000D02*
D03*
Y905000D02*
D03*
Y895000D02*
D03*
Y885000D02*
D03*
Y1025000D02*
D03*
Y1015000D02*
D03*
Y1005000D02*
D03*
Y995000D02*
D03*
Y985000D02*
D03*
Y975000D02*
D03*
Y965000D02*
D03*
X695000Y15000D02*
D03*
Y25000D02*
D03*
Y35000D02*
D03*
Y45000D02*
D03*
Y55000D02*
D03*
Y65000D02*
D03*
Y75000D02*
D03*
X695000Y155000D02*
D03*
Y145000D02*
D03*
Y135000D02*
D03*
Y125000D02*
D03*
Y115000D02*
D03*
Y105000D02*
D03*
Y95000D02*
D03*
Y235000D02*
D03*
Y225000D02*
D03*
Y215000D02*
D03*
Y205000D02*
D03*
Y195000D02*
D03*
Y185000D02*
D03*
Y175000D02*
D03*
Y315000D02*
D03*
Y305000D02*
D03*
Y295000D02*
D03*
Y285000D02*
D03*
Y275000D02*
D03*
Y265000D02*
D03*
Y255000D02*
D03*
Y395000D02*
D03*
Y385000D02*
D03*
Y375000D02*
D03*
Y365000D02*
D03*
Y355000D02*
D03*
Y345000D02*
D03*
Y335000D02*
D03*
Y475000D02*
D03*
Y465000D02*
D03*
Y455000D02*
D03*
Y445000D02*
D03*
Y435000D02*
D03*
Y425000D02*
D03*
Y415000D02*
D03*
Y555000D02*
D03*
Y545000D02*
D03*
Y535000D02*
D03*
Y525000D02*
D03*
Y515000D02*
D03*
Y505000D02*
D03*
Y495000D02*
D03*
Y635000D02*
D03*
Y625000D02*
D03*
Y615000D02*
D03*
Y605000D02*
D03*
Y595000D02*
D03*
Y585000D02*
D03*
Y575000D02*
D03*
Y715000D02*
D03*
Y705000D02*
D03*
Y695000D02*
D03*
Y685000D02*
D03*
Y675000D02*
D03*
Y665000D02*
D03*
Y655000D02*
D03*
Y795000D02*
D03*
Y785000D02*
D03*
Y775000D02*
D03*
Y765000D02*
D03*
Y755000D02*
D03*
Y745000D02*
D03*
Y735000D02*
D03*
Y875000D02*
D03*
Y865000D02*
D03*
Y855000D02*
D03*
Y845000D02*
D03*
Y835000D02*
D03*
Y825000D02*
D03*
Y815000D02*
D03*
Y955000D02*
D03*
Y945000D02*
D03*
Y935000D02*
D03*
Y925000D02*
D03*
Y915000D02*
D03*
Y905000D02*
D03*
Y895000D02*
D03*
Y1035000D02*
D03*
Y1025000D02*
D03*
Y1015000D02*
D03*
Y1005000D02*
D03*
Y995000D02*
D03*
Y985000D02*
D03*
Y975000D02*
D03*
X605000Y165000D02*
D03*
Y175000D02*
D03*
Y185000D02*
D03*
Y195000D02*
D03*
Y205000D02*
D03*
Y215000D02*
D03*
Y225000D02*
D03*
Y405000D02*
D03*
Y415000D02*
D03*
Y425000D02*
D03*
Y435000D02*
D03*
Y445000D02*
D03*
Y455000D02*
D03*
Y465000D02*
D03*
Y565000D02*
D03*
Y575000D02*
D03*
Y585000D02*
D03*
Y595000D02*
D03*
Y605000D02*
D03*
Y615000D02*
D03*
Y625000D02*
D03*
Y805000D02*
D03*
Y815000D02*
D03*
Y825000D02*
D03*
Y835000D02*
D03*
Y845000D02*
D03*
Y855000D02*
D03*
Y865000D02*
D03*
X605000Y65000D02*
D03*
Y55000D02*
D03*
Y45000D02*
D03*
Y35000D02*
D03*
Y25000D02*
D03*
Y15000D02*
D03*
Y5000D02*
D03*
X605000Y85000D02*
D03*
Y95000D02*
D03*
Y105000D02*
D03*
Y115000D02*
D03*
Y125000D02*
D03*
Y135000D02*
D03*
Y145000D02*
D03*
Y245000D02*
D03*
Y255000D02*
D03*
Y265000D02*
D03*
Y275000D02*
D03*
Y285000D02*
D03*
Y295000D02*
D03*
Y305000D02*
D03*
Y325000D02*
D03*
Y335000D02*
D03*
Y345000D02*
D03*
Y355000D02*
D03*
Y365000D02*
D03*
Y375000D02*
D03*
Y385000D02*
D03*
Y485000D02*
D03*
Y495000D02*
D03*
Y505000D02*
D03*
Y515000D02*
D03*
Y525000D02*
D03*
Y535000D02*
D03*
Y545000D02*
D03*
Y645000D02*
D03*
Y655000D02*
D03*
Y665000D02*
D03*
Y675000D02*
D03*
Y685000D02*
D03*
Y695000D02*
D03*
Y705000D02*
D03*
Y725000D02*
D03*
Y735000D02*
D03*
Y745000D02*
D03*
Y755000D02*
D03*
Y765000D02*
D03*
Y775000D02*
D03*
Y785000D02*
D03*
Y885000D02*
D03*
Y895000D02*
D03*
Y905000D02*
D03*
Y915000D02*
D03*
Y925000D02*
D03*
Y935000D02*
D03*
Y945000D02*
D03*
Y965000D02*
D03*
Y975000D02*
D03*
Y985000D02*
D03*
Y995000D02*
D03*
Y1005000D02*
D03*
Y1015000D02*
D03*
Y1025000D02*
D03*
D13*
X5000Y75000D02*
D03*
X95000Y5000D02*
D03*
X5000Y155000D02*
D03*
X95000Y85000D02*
D03*
X5000Y235000D02*
D03*
X95000Y165000D02*
D03*
X5000Y315000D02*
D03*
X95000Y245000D02*
D03*
X5000Y395000D02*
D03*
X95000Y325000D02*
D03*
X5000Y475000D02*
D03*
X95000Y405000D02*
D03*
X5000Y555000D02*
D03*
X95000Y485000D02*
D03*
X5000Y635000D02*
D03*
X95000Y565000D02*
D03*
X5000Y715000D02*
D03*
X95000Y645000D02*
D03*
X5000Y795000D02*
D03*
X95000Y725000D02*
D03*
X5000Y875000D02*
D03*
X95000Y805000D02*
D03*
X5000Y955000D02*
D03*
X95000Y885000D02*
D03*
X5000Y1035000D02*
D03*
X95000Y965000D02*
D03*
X105000Y75000D02*
D03*
X105000Y155000D02*
D03*
Y235000D02*
D03*
Y315000D02*
D03*
Y395000D02*
D03*
Y475000D02*
D03*
Y555000D02*
D03*
Y635000D02*
D03*
Y715000D02*
D03*
Y795000D02*
D03*
Y875000D02*
D03*
Y955000D02*
D03*
Y1035000D02*
D03*
X195000Y5000D02*
D03*
X195000Y85000D02*
D03*
Y165000D02*
D03*
Y245000D02*
D03*
Y325000D02*
D03*
Y405000D02*
D03*
Y485000D02*
D03*
Y565000D02*
D03*
Y645000D02*
D03*
Y725000D02*
D03*
Y805000D02*
D03*
Y885000D02*
D03*
Y965000D02*
D03*
X205000Y75000D02*
D03*
X205000Y155000D02*
D03*
Y235000D02*
D03*
Y315000D02*
D03*
Y395000D02*
D03*
Y475000D02*
D03*
Y555000D02*
D03*
Y635000D02*
D03*
Y715000D02*
D03*
Y795000D02*
D03*
Y875000D02*
D03*
Y955000D02*
D03*
Y1035000D02*
D03*
X295000Y5000D02*
D03*
X295000Y85000D02*
D03*
Y165000D02*
D03*
Y245000D02*
D03*
Y325000D02*
D03*
Y405000D02*
D03*
Y485000D02*
D03*
Y565000D02*
D03*
Y645000D02*
D03*
Y725000D02*
D03*
Y805000D02*
D03*
Y885000D02*
D03*
Y965000D02*
D03*
X395000Y5000D02*
D03*
X395000Y85000D02*
D03*
Y165000D02*
D03*
Y245000D02*
D03*
Y325000D02*
D03*
Y405000D02*
D03*
Y485000D02*
D03*
Y565000D02*
D03*
Y645000D02*
D03*
Y725000D02*
D03*
Y805000D02*
D03*
Y885000D02*
D03*
Y965000D02*
D03*
X305000Y235000D02*
D03*
Y475000D02*
D03*
Y635000D02*
D03*
Y875000D02*
D03*
X305000Y75000D02*
D03*
X305000Y155000D02*
D03*
Y315000D02*
D03*
Y395000D02*
D03*
Y555000D02*
D03*
Y715000D02*
D03*
Y795000D02*
D03*
Y955000D02*
D03*
Y1035000D02*
D03*
X405000Y75000D02*
D03*
X405000Y155000D02*
D03*
Y235000D02*
D03*
Y315000D02*
D03*
Y395000D02*
D03*
Y475000D02*
D03*
Y555000D02*
D03*
Y635000D02*
D03*
Y715000D02*
D03*
Y795000D02*
D03*
Y875000D02*
D03*
Y955000D02*
D03*
Y1035000D02*
D03*
X495000Y5000D02*
D03*
X495000Y85000D02*
D03*
Y165000D02*
D03*
Y245000D02*
D03*
Y325000D02*
D03*
Y405000D02*
D03*
Y485000D02*
D03*
Y565000D02*
D03*
Y645000D02*
D03*
Y725000D02*
D03*
Y805000D02*
D03*
Y885000D02*
D03*
Y965000D02*
D03*
X595000Y5000D02*
D03*
X595000Y85000D02*
D03*
Y165000D02*
D03*
Y245000D02*
D03*
Y325000D02*
D03*
Y405000D02*
D03*
Y485000D02*
D03*
Y565000D02*
D03*
Y645000D02*
D03*
Y725000D02*
D03*
Y805000D02*
D03*
Y885000D02*
D03*
Y965000D02*
D03*
X505000Y235000D02*
D03*
Y475000D02*
D03*
Y635000D02*
D03*
Y875000D02*
D03*
X505000Y75000D02*
D03*
X505000Y155000D02*
D03*
Y315000D02*
D03*
Y395000D02*
D03*
Y555000D02*
D03*
Y715000D02*
D03*
Y795000D02*
D03*
Y955000D02*
D03*
Y1035000D02*
D03*
X695000Y5000D02*
D03*
X695000Y85000D02*
D03*
Y165000D02*
D03*
Y245000D02*
D03*
Y325000D02*
D03*
Y405000D02*
D03*
Y485000D02*
D03*
Y565000D02*
D03*
Y645000D02*
D03*
Y725000D02*
D03*
Y805000D02*
D03*
Y885000D02*
D03*
Y965000D02*
D03*
X605000Y235000D02*
D03*
Y475000D02*
D03*
Y635000D02*
D03*
Y875000D02*
D03*
X605000Y75000D02*
D03*
X605000Y155000D02*
D03*
Y315000D02*
D03*
Y395000D02*
D03*
Y555000D02*
D03*
Y715000D02*
D03*
Y795000D02*
D03*
Y955000D02*
D03*
Y1035000D02*
D03*
M02*
