G04 Layer_Color=32896*
%FSLAX25Y25*%
%MOIN*%
G70*
G01*
G75*
%ADD16C,0.01000*%
%ADD18C,0.00400*%
%ADD23R,0.03000X0.03000*%
D16*
X38000Y59000D02*
G03*
X38000Y59000I-2000J0D01*
G01*
X38000Y139000D02*
G03*
X38000Y139000I-2000J0D01*
G01*
Y219000D02*
G03*
X38000Y219000I-2000J0D01*
G01*
Y299000D02*
G03*
X38000Y299000I-2000J0D01*
G01*
Y379000D02*
G03*
X38000Y379000I-2000J0D01*
G01*
Y459000D02*
G03*
X38000Y459000I-2000J0D01*
G01*
Y539000D02*
G03*
X38000Y539000I-2000J0D01*
G01*
Y619000D02*
G03*
X38000Y619000I-2000J0D01*
G01*
Y699000D02*
G03*
X38000Y699000I-2000J0D01*
G01*
Y779000D02*
G03*
X38000Y779000I-2000J0D01*
G01*
Y859000D02*
G03*
X38000Y859000I-2000J0D01*
G01*
Y939000D02*
G03*
X38000Y939000I-2000J0D01*
G01*
Y1019000D02*
G03*
X38000Y1019000I-2000J0D01*
G01*
X138000Y59000D02*
G03*
X138000Y59000I-2000J0D01*
G01*
X138000Y139000D02*
G03*
X138000Y139000I-2000J0D01*
G01*
Y219000D02*
G03*
X138000Y219000I-2000J0D01*
G01*
Y299000D02*
G03*
X138000Y299000I-2000J0D01*
G01*
Y379000D02*
G03*
X138000Y379000I-2000J0D01*
G01*
Y459000D02*
G03*
X138000Y459000I-2000J0D01*
G01*
Y539000D02*
G03*
X138000Y539000I-2000J0D01*
G01*
Y619000D02*
G03*
X138000Y619000I-2000J0D01*
G01*
Y699000D02*
G03*
X138000Y699000I-2000J0D01*
G01*
Y779000D02*
G03*
X138000Y779000I-2000J0D01*
G01*
Y859000D02*
G03*
X138000Y859000I-2000J0D01*
G01*
Y939000D02*
G03*
X138000Y939000I-2000J0D01*
G01*
Y1019000D02*
G03*
X138000Y1019000I-2000J0D01*
G01*
X238000Y59000D02*
G03*
X238000Y59000I-2000J0D01*
G01*
X238000Y139000D02*
G03*
X238000Y139000I-2000J0D01*
G01*
Y219000D02*
G03*
X238000Y219000I-2000J0D01*
G01*
Y299000D02*
G03*
X238000Y299000I-2000J0D01*
G01*
Y379000D02*
G03*
X238000Y379000I-2000J0D01*
G01*
Y459000D02*
G03*
X238000Y459000I-2000J0D01*
G01*
Y539000D02*
G03*
X238000Y539000I-2000J0D01*
G01*
Y619000D02*
G03*
X238000Y619000I-2000J0D01*
G01*
Y699000D02*
G03*
X238000Y699000I-2000J0D01*
G01*
Y779000D02*
G03*
X238000Y779000I-2000J0D01*
G01*
Y859000D02*
G03*
X238000Y859000I-2000J0D01*
G01*
Y939000D02*
G03*
X238000Y939000I-2000J0D01*
G01*
Y1019000D02*
G03*
X238000Y1019000I-2000J0D01*
G01*
X338000Y59000D02*
G03*
X338000Y59000I-2000J0D01*
G01*
X338000Y139000D02*
G03*
X338000Y139000I-2000J0D01*
G01*
Y219000D02*
G03*
X338000Y219000I-2000J0D01*
G01*
Y299000D02*
G03*
X338000Y299000I-2000J0D01*
G01*
Y379000D02*
G03*
X338000Y379000I-2000J0D01*
G01*
Y459000D02*
G03*
X338000Y459000I-2000J0D01*
G01*
Y539000D02*
G03*
X338000Y539000I-2000J0D01*
G01*
Y619000D02*
G03*
X338000Y619000I-2000J0D01*
G01*
Y699000D02*
G03*
X338000Y699000I-2000J0D01*
G01*
Y779000D02*
G03*
X338000Y779000I-2000J0D01*
G01*
Y859000D02*
G03*
X338000Y859000I-2000J0D01*
G01*
Y939000D02*
G03*
X338000Y939000I-2000J0D01*
G01*
Y1019000D02*
G03*
X338000Y1019000I-2000J0D01*
G01*
X438000Y59000D02*
G03*
X438000Y59000I-2000J0D01*
G01*
X438000Y139000D02*
G03*
X438000Y139000I-2000J0D01*
G01*
Y219000D02*
G03*
X438000Y219000I-2000J0D01*
G01*
Y299000D02*
G03*
X438000Y299000I-2000J0D01*
G01*
Y379000D02*
G03*
X438000Y379000I-2000J0D01*
G01*
Y459000D02*
G03*
X438000Y459000I-2000J0D01*
G01*
Y539000D02*
G03*
X438000Y539000I-2000J0D01*
G01*
Y619000D02*
G03*
X438000Y619000I-2000J0D01*
G01*
Y699000D02*
G03*
X438000Y699000I-2000J0D01*
G01*
Y779000D02*
G03*
X438000Y779000I-2000J0D01*
G01*
Y859000D02*
G03*
X438000Y859000I-2000J0D01*
G01*
Y939000D02*
G03*
X438000Y939000I-2000J0D01*
G01*
Y1019000D02*
G03*
X438000Y1019000I-2000J0D01*
G01*
X538000Y59000D02*
G03*
X538000Y59000I-2000J0D01*
G01*
X538000Y139000D02*
G03*
X538000Y139000I-2000J0D01*
G01*
Y219000D02*
G03*
X538000Y219000I-2000J0D01*
G01*
Y299000D02*
G03*
X538000Y299000I-2000J0D01*
G01*
Y379000D02*
G03*
X538000Y379000I-2000J0D01*
G01*
Y459000D02*
G03*
X538000Y459000I-2000J0D01*
G01*
Y539000D02*
G03*
X538000Y539000I-2000J0D01*
G01*
Y619000D02*
G03*
X538000Y619000I-2000J0D01*
G01*
Y699000D02*
G03*
X538000Y699000I-2000J0D01*
G01*
Y779000D02*
G03*
X538000Y779000I-2000J0D01*
G01*
Y859000D02*
G03*
X538000Y859000I-2000J0D01*
G01*
Y939000D02*
G03*
X538000Y939000I-2000J0D01*
G01*
Y1019000D02*
G03*
X538000Y1019000I-2000J0D01*
G01*
X638000Y59000D02*
G03*
X638000Y59000I-2000J0D01*
G01*
X638000Y139000D02*
G03*
X638000Y139000I-2000J0D01*
G01*
Y219000D02*
G03*
X638000Y219000I-2000J0D01*
G01*
Y299000D02*
G03*
X638000Y299000I-2000J0D01*
G01*
Y379000D02*
G03*
X638000Y379000I-2000J0D01*
G01*
Y459000D02*
G03*
X638000Y459000I-2000J0D01*
G01*
Y539000D02*
G03*
X638000Y539000I-2000J0D01*
G01*
Y619000D02*
G03*
X638000Y619000I-2000J0D01*
G01*
Y699000D02*
G03*
X638000Y699000I-2000J0D01*
G01*
Y779000D02*
G03*
X638000Y779000I-2000J0D01*
G01*
Y859000D02*
G03*
X638000Y859000I-2000J0D01*
G01*
Y939000D02*
G03*
X638000Y939000I-2000J0D01*
G01*
Y1019000D02*
G03*
X638000Y1019000I-2000J0D01*
G01*
D18*
X42400Y10299D02*
X44066D01*
X43233D01*
Y7800D01*
X45316D02*
X46149D01*
X46565Y8217D01*
Y9050D01*
X46149Y9466D01*
X45316D01*
X44899Y9050D01*
Y8217D01*
X45316Y7800D01*
X47398Y9466D02*
Y8217D01*
X47815Y7800D01*
X49064D01*
Y9466D01*
X49898Y10299D02*
Y9883D01*
X50731Y9050D01*
X51564Y9883D01*
Y10299D01*
X50731Y9050D02*
Y7800D01*
X52397Y9466D02*
Y8217D01*
X52813Y7800D01*
X54063D01*
Y9466D01*
X54896Y7800D02*
Y9466D01*
X56146D01*
X56562Y9050D01*
Y7800D01*
X59061Y9883D02*
X58645Y10299D01*
X57812D01*
X57395Y9883D01*
Y8217D01*
X57812Y7800D01*
X58645D01*
X59061Y8217D01*
Y9050D01*
X58228D01*
X42400Y90299D02*
X44066D01*
X43233D01*
Y87800D01*
X45316D02*
X46149D01*
X46565Y88217D01*
Y89050D01*
X46149Y89466D01*
X45316D01*
X44899Y89050D01*
Y88217D01*
X45316Y87800D01*
X47398Y89466D02*
Y88217D01*
X47815Y87800D01*
X49064D01*
Y89466D01*
X49898Y90299D02*
Y89883D01*
X50731Y89050D01*
X51564Y89883D01*
Y90299D01*
X50731Y89050D02*
Y87800D01*
X52397Y89466D02*
Y88217D01*
X52813Y87800D01*
X54063D01*
Y89466D01*
X54896Y87800D02*
Y89466D01*
X56146D01*
X56562Y89050D01*
Y87800D01*
X59061Y89883D02*
X58645Y90299D01*
X57812D01*
X57395Y89883D01*
Y88217D01*
X57812Y87800D01*
X58645D01*
X59061Y88217D01*
Y89050D01*
X58228D01*
X42400Y170299D02*
X44066D01*
X43233D01*
Y167800D01*
X45316D02*
X46149D01*
X46565Y168217D01*
Y169050D01*
X46149Y169466D01*
X45316D01*
X44899Y169050D01*
Y168217D01*
X45316Y167800D01*
X47398Y169466D02*
Y168217D01*
X47815Y167800D01*
X49064D01*
Y169466D01*
X49898Y170299D02*
Y169883D01*
X50731Y169050D01*
X51564Y169883D01*
Y170299D01*
X50731Y169050D02*
Y167800D01*
X52397Y169466D02*
Y168217D01*
X52813Y167800D01*
X54063D01*
Y169466D01*
X54896Y167800D02*
Y169466D01*
X56146D01*
X56562Y169050D01*
Y167800D01*
X59061Y169883D02*
X58645Y170299D01*
X57812D01*
X57395Y169883D01*
Y168217D01*
X57812Y167800D01*
X58645D01*
X59061Y168217D01*
Y169050D01*
X58228D01*
X42400Y250299D02*
X44066D01*
X43233D01*
Y247800D01*
X45316D02*
X46149D01*
X46565Y248217D01*
Y249049D01*
X46149Y249466D01*
X45316D01*
X44899Y249049D01*
Y248217D01*
X45316Y247800D01*
X47398Y249466D02*
Y248217D01*
X47815Y247800D01*
X49064D01*
Y249466D01*
X49898Y250299D02*
Y249883D01*
X50731Y249049D01*
X51564Y249883D01*
Y250299D01*
X50731Y249049D02*
Y247800D01*
X52397Y249466D02*
Y248217D01*
X52813Y247800D01*
X54063D01*
Y249466D01*
X54896Y247800D02*
Y249466D01*
X56146D01*
X56562Y249049D01*
Y247800D01*
X59061Y249883D02*
X58645Y250299D01*
X57812D01*
X57395Y249883D01*
Y248217D01*
X57812Y247800D01*
X58645D01*
X59061Y248217D01*
Y249049D01*
X58228D01*
X42400Y330299D02*
X44066D01*
X43233D01*
Y327800D01*
X45316D02*
X46149D01*
X46565Y328217D01*
Y329049D01*
X46149Y329466D01*
X45316D01*
X44899Y329049D01*
Y328217D01*
X45316Y327800D01*
X47398Y329466D02*
Y328217D01*
X47815Y327800D01*
X49064D01*
Y329466D01*
X49898Y330299D02*
Y329883D01*
X50731Y329049D01*
X51564Y329883D01*
Y330299D01*
X50731Y329049D02*
Y327800D01*
X52397Y329466D02*
Y328217D01*
X52813Y327800D01*
X54063D01*
Y329466D01*
X54896Y327800D02*
Y329466D01*
X56146D01*
X56562Y329049D01*
Y327800D01*
X59061Y329883D02*
X58645Y330299D01*
X57812D01*
X57395Y329883D01*
Y328217D01*
X57812Y327800D01*
X58645D01*
X59061Y328217D01*
Y329049D01*
X58228D01*
X42400Y410299D02*
X44066D01*
X43233D01*
Y407800D01*
X45316D02*
X46149D01*
X46565Y408216D01*
Y409050D01*
X46149Y409466D01*
X45316D01*
X44899Y409050D01*
Y408216D01*
X45316Y407800D01*
X47398Y409466D02*
Y408216D01*
X47815Y407800D01*
X49064D01*
Y409466D01*
X49898Y410299D02*
Y409883D01*
X50731Y409050D01*
X51564Y409883D01*
Y410299D01*
X50731Y409050D02*
Y407800D01*
X52397Y409466D02*
Y408216D01*
X52813Y407800D01*
X54063D01*
Y409466D01*
X54896Y407800D02*
Y409466D01*
X56146D01*
X56562Y409050D01*
Y407800D01*
X59061Y409883D02*
X58645Y410299D01*
X57812D01*
X57395Y409883D01*
Y408216D01*
X57812Y407800D01*
X58645D01*
X59061Y408216D01*
Y409050D01*
X58228D01*
X42400Y490299D02*
X44066D01*
X43233D01*
Y487800D01*
X45316D02*
X46149D01*
X46565Y488216D01*
Y489049D01*
X46149Y489466D01*
X45316D01*
X44899Y489049D01*
Y488216D01*
X45316Y487800D01*
X47398Y489466D02*
Y488216D01*
X47815Y487800D01*
X49064D01*
Y489466D01*
X49898Y490299D02*
Y489883D01*
X50731Y489049D01*
X51564Y489883D01*
Y490299D01*
X50731Y489049D02*
Y487800D01*
X52397Y489466D02*
Y488216D01*
X52813Y487800D01*
X54063D01*
Y489466D01*
X54896Y487800D02*
Y489466D01*
X56146D01*
X56562Y489049D01*
Y487800D01*
X59061Y489883D02*
X58645Y490299D01*
X57812D01*
X57395Y489883D01*
Y488216D01*
X57812Y487800D01*
X58645D01*
X59061Y488216D01*
Y489049D01*
X58228D01*
X42400Y570299D02*
X44066D01*
X43233D01*
Y567800D01*
X45316D02*
X46149D01*
X46565Y568217D01*
Y569050D01*
X46149Y569466D01*
X45316D01*
X44899Y569050D01*
Y568217D01*
X45316Y567800D01*
X47398Y569466D02*
Y568217D01*
X47815Y567800D01*
X49064D01*
Y569466D01*
X49898Y570299D02*
Y569883D01*
X50731Y569050D01*
X51564Y569883D01*
Y570299D01*
X50731Y569050D02*
Y567800D01*
X52397Y569466D02*
Y568217D01*
X52813Y567800D01*
X54063D01*
Y569466D01*
X54896Y567800D02*
Y569466D01*
X56146D01*
X56562Y569050D01*
Y567800D01*
X59061Y569883D02*
X58645Y570299D01*
X57812D01*
X57395Y569883D01*
Y568217D01*
X57812Y567800D01*
X58645D01*
X59061Y568217D01*
Y569050D01*
X58228D01*
X42400Y650299D02*
X44066D01*
X43233D01*
Y647800D01*
X45316D02*
X46149D01*
X46565Y648216D01*
Y649050D01*
X46149Y649466D01*
X45316D01*
X44899Y649050D01*
Y648216D01*
X45316Y647800D01*
X47398Y649466D02*
Y648216D01*
X47815Y647800D01*
X49064D01*
Y649466D01*
X49898Y650299D02*
Y649883D01*
X50731Y649050D01*
X51564Y649883D01*
Y650299D01*
X50731Y649050D02*
Y647800D01*
X52397Y649466D02*
Y648216D01*
X52813Y647800D01*
X54063D01*
Y649466D01*
X54896Y647800D02*
Y649466D01*
X56146D01*
X56562Y649050D01*
Y647800D01*
X59061Y649883D02*
X58645Y650299D01*
X57812D01*
X57395Y649883D01*
Y648216D01*
X57812Y647800D01*
X58645D01*
X59061Y648216D01*
Y649050D01*
X58228D01*
X42400Y730299D02*
X44066D01*
X43233D01*
Y727800D01*
X45316D02*
X46149D01*
X46565Y728217D01*
Y729049D01*
X46149Y729466D01*
X45316D01*
X44899Y729049D01*
Y728217D01*
X45316Y727800D01*
X47398Y729466D02*
Y728217D01*
X47815Y727800D01*
X49064D01*
Y729466D01*
X49898Y730299D02*
Y729883D01*
X50731Y729049D01*
X51564Y729883D01*
Y730299D01*
X50731Y729049D02*
Y727800D01*
X52397Y729466D02*
Y728217D01*
X52813Y727800D01*
X54063D01*
Y729466D01*
X54896Y727800D02*
Y729466D01*
X56146D01*
X56562Y729049D01*
Y727800D01*
X59061Y729883D02*
X58645Y730299D01*
X57812D01*
X57395Y729883D01*
Y728217D01*
X57812Y727800D01*
X58645D01*
X59061Y728217D01*
Y729049D01*
X58228D01*
X42400Y810299D02*
X44066D01*
X43233D01*
Y807800D01*
X45316D02*
X46149D01*
X46565Y808216D01*
Y809050D01*
X46149Y809466D01*
X45316D01*
X44899Y809050D01*
Y808216D01*
X45316Y807800D01*
X47398Y809466D02*
Y808216D01*
X47815Y807800D01*
X49064D01*
Y809466D01*
X49898Y810299D02*
Y809883D01*
X50731Y809050D01*
X51564Y809883D01*
Y810299D01*
X50731Y809050D02*
Y807800D01*
X52397Y809466D02*
Y808216D01*
X52813Y807800D01*
X54063D01*
Y809466D01*
X54896Y807800D02*
Y809466D01*
X56146D01*
X56562Y809050D01*
Y807800D01*
X59061Y809883D02*
X58645Y810299D01*
X57812D01*
X57395Y809883D01*
Y808216D01*
X57812Y807800D01*
X58645D01*
X59061Y808216D01*
Y809050D01*
X58228D01*
X42400Y890299D02*
X44066D01*
X43233D01*
Y887800D01*
X45316D02*
X46149D01*
X46565Y888216D01*
Y889050D01*
X46149Y889466D01*
X45316D01*
X44899Y889050D01*
Y888216D01*
X45316Y887800D01*
X47398Y889466D02*
Y888216D01*
X47815Y887800D01*
X49064D01*
Y889466D01*
X49898Y890299D02*
Y889883D01*
X50731Y889050D01*
X51564Y889883D01*
Y890299D01*
X50731Y889050D02*
Y887800D01*
X52397Y889466D02*
Y888216D01*
X52813Y887800D01*
X54063D01*
Y889466D01*
X54896Y887800D02*
Y889466D01*
X56146D01*
X56562Y889050D01*
Y887800D01*
X59061Y889883D02*
X58645Y890299D01*
X57812D01*
X57395Y889883D01*
Y888216D01*
X57812Y887800D01*
X58645D01*
X59061Y888216D01*
Y889050D01*
X58228D01*
X42400Y970299D02*
X44066D01*
X43233D01*
Y967800D01*
X45316D02*
X46149D01*
X46565Y968217D01*
Y969050D01*
X46149Y969466D01*
X45316D01*
X44899Y969050D01*
Y968217D01*
X45316Y967800D01*
X47398Y969466D02*
Y968217D01*
X47815Y967800D01*
X49064D01*
Y969466D01*
X49898Y970299D02*
Y969883D01*
X50731Y969050D01*
X51564Y969883D01*
Y970299D01*
X50731Y969050D02*
Y967800D01*
X52397Y969466D02*
Y968217D01*
X52813Y967800D01*
X54063D01*
Y969466D01*
X54896Y967800D02*
Y969466D01*
X56146D01*
X56562Y969050D01*
Y967800D01*
X59061Y969883D02*
X58645Y970299D01*
X57812D01*
X57395Y969883D01*
Y968217D01*
X57812Y967800D01*
X58645D01*
X59061Y968217D01*
Y969050D01*
X58228D01*
X142400Y10299D02*
X144066D01*
X143233D01*
Y7800D01*
X145316D02*
X146149D01*
X146565Y8217D01*
Y9050D01*
X146149Y9466D01*
X145316D01*
X144899Y9050D01*
Y8217D01*
X145316Y7800D01*
X147399Y9466D02*
Y8217D01*
X147815Y7800D01*
X149065D01*
Y9466D01*
X149898Y10299D02*
Y9883D01*
X150731Y9050D01*
X151564Y9883D01*
Y10299D01*
X150731Y9050D02*
Y7800D01*
X152397Y9466D02*
Y8217D01*
X152813Y7800D01*
X154063D01*
Y9466D01*
X154896Y7800D02*
Y9466D01*
X156146D01*
X156562Y9050D01*
Y7800D01*
X159062Y9883D02*
X158645Y10299D01*
X157812D01*
X157395Y9883D01*
Y8217D01*
X157812Y7800D01*
X158645D01*
X159062Y8217D01*
Y9050D01*
X158228D01*
X142400Y90299D02*
X144066D01*
X143233D01*
Y87800D01*
X145316D02*
X146149D01*
X146565Y88217D01*
Y89050D01*
X146149Y89466D01*
X145316D01*
X144899Y89050D01*
Y88217D01*
X145316Y87800D01*
X147398Y89466D02*
Y88217D01*
X147815Y87800D01*
X149065D01*
Y89466D01*
X149898Y90299D02*
Y89883D01*
X150731Y89050D01*
X151564Y89883D01*
Y90299D01*
X150731Y89050D02*
Y87800D01*
X152397Y89466D02*
Y88217D01*
X152813Y87800D01*
X154063D01*
Y89466D01*
X154896Y87800D02*
Y89466D01*
X156146D01*
X156562Y89050D01*
Y87800D01*
X159061Y89883D02*
X158645Y90299D01*
X157812D01*
X157395Y89883D01*
Y88217D01*
X157812Y87800D01*
X158645D01*
X159061Y88217D01*
Y89050D01*
X158228D01*
X142400Y170299D02*
X144066D01*
X143233D01*
Y167800D01*
X145316D02*
X146149D01*
X146565Y168217D01*
Y169050D01*
X146149Y169466D01*
X145316D01*
X144899Y169050D01*
Y168217D01*
X145316Y167800D01*
X147398Y169466D02*
Y168217D01*
X147815Y167800D01*
X149065D01*
Y169466D01*
X149898Y170299D02*
Y169883D01*
X150731Y169050D01*
X151564Y169883D01*
Y170299D01*
X150731Y169050D02*
Y167800D01*
X152397Y169466D02*
Y168217D01*
X152813Y167800D01*
X154063D01*
Y169466D01*
X154896Y167800D02*
Y169466D01*
X156146D01*
X156562Y169050D01*
Y167800D01*
X159061Y169883D02*
X158645Y170299D01*
X157812D01*
X157395Y169883D01*
Y168217D01*
X157812Y167800D01*
X158645D01*
X159061Y168217D01*
Y169050D01*
X158228D01*
X142400Y250299D02*
X144066D01*
X143233D01*
Y247800D01*
X145316D02*
X146149D01*
X146565Y248217D01*
Y249049D01*
X146149Y249466D01*
X145316D01*
X144899Y249049D01*
Y248217D01*
X145316Y247800D01*
X147398Y249466D02*
Y248217D01*
X147815Y247800D01*
X149065D01*
Y249466D01*
X149898Y250299D02*
Y249883D01*
X150731Y249049D01*
X151564Y249883D01*
Y250299D01*
X150731Y249049D02*
Y247800D01*
X152397Y249466D02*
Y248217D01*
X152813Y247800D01*
X154063D01*
Y249466D01*
X154896Y247800D02*
Y249466D01*
X156146D01*
X156562Y249049D01*
Y247800D01*
X159061Y249883D02*
X158645Y250299D01*
X157812D01*
X157395Y249883D01*
Y248217D01*
X157812Y247800D01*
X158645D01*
X159061Y248217D01*
Y249049D01*
X158228D01*
X142400Y330299D02*
X144066D01*
X143233D01*
Y327800D01*
X145316D02*
X146149D01*
X146565Y328217D01*
Y329049D01*
X146149Y329466D01*
X145316D01*
X144899Y329049D01*
Y328217D01*
X145316Y327800D01*
X147398Y329466D02*
Y328217D01*
X147815Y327800D01*
X149065D01*
Y329466D01*
X149898Y330299D02*
Y329883D01*
X150731Y329049D01*
X151564Y329883D01*
Y330299D01*
X150731Y329049D02*
Y327800D01*
X152397Y329466D02*
Y328217D01*
X152813Y327800D01*
X154063D01*
Y329466D01*
X154896Y327800D02*
Y329466D01*
X156146D01*
X156562Y329049D01*
Y327800D01*
X159061Y329883D02*
X158645Y330299D01*
X157812D01*
X157395Y329883D01*
Y328217D01*
X157812Y327800D01*
X158645D01*
X159061Y328217D01*
Y329049D01*
X158228D01*
X142400Y410299D02*
X144066D01*
X143233D01*
Y407800D01*
X145316D02*
X146149D01*
X146565Y408216D01*
Y409050D01*
X146149Y409466D01*
X145316D01*
X144899Y409050D01*
Y408216D01*
X145316Y407800D01*
X147398Y409466D02*
Y408216D01*
X147815Y407800D01*
X149065D01*
Y409466D01*
X149898Y410299D02*
Y409883D01*
X150731Y409050D01*
X151564Y409883D01*
Y410299D01*
X150731Y409050D02*
Y407800D01*
X152397Y409466D02*
Y408216D01*
X152813Y407800D01*
X154063D01*
Y409466D01*
X154896Y407800D02*
Y409466D01*
X156146D01*
X156562Y409050D01*
Y407800D01*
X159061Y409883D02*
X158645Y410299D01*
X157812D01*
X157395Y409883D01*
Y408216D01*
X157812Y407800D01*
X158645D01*
X159061Y408216D01*
Y409050D01*
X158228D01*
X142400Y490299D02*
X144066D01*
X143233D01*
Y487800D01*
X145316D02*
X146149D01*
X146565Y488216D01*
Y489049D01*
X146149Y489466D01*
X145316D01*
X144899Y489049D01*
Y488216D01*
X145316Y487800D01*
X147398Y489466D02*
Y488216D01*
X147815Y487800D01*
X149065D01*
Y489466D01*
X149898Y490299D02*
Y489883D01*
X150731Y489049D01*
X151564Y489883D01*
Y490299D01*
X150731Y489049D02*
Y487800D01*
X152397Y489466D02*
Y488216D01*
X152813Y487800D01*
X154063D01*
Y489466D01*
X154896Y487800D02*
Y489466D01*
X156146D01*
X156562Y489049D01*
Y487800D01*
X159061Y489883D02*
X158645Y490299D01*
X157812D01*
X157395Y489883D01*
Y488216D01*
X157812Y487800D01*
X158645D01*
X159061Y488216D01*
Y489049D01*
X158228D01*
X142400Y570299D02*
X144066D01*
X143233D01*
Y567800D01*
X145316D02*
X146149D01*
X146565Y568217D01*
Y569050D01*
X146149Y569466D01*
X145316D01*
X144899Y569050D01*
Y568217D01*
X145316Y567800D01*
X147398Y569466D02*
Y568217D01*
X147815Y567800D01*
X149065D01*
Y569466D01*
X149898Y570299D02*
Y569883D01*
X150731Y569050D01*
X151564Y569883D01*
Y570299D01*
X150731Y569050D02*
Y567800D01*
X152397Y569466D02*
Y568217D01*
X152813Y567800D01*
X154063D01*
Y569466D01*
X154896Y567800D02*
Y569466D01*
X156146D01*
X156562Y569050D01*
Y567800D01*
X159061Y569883D02*
X158645Y570299D01*
X157812D01*
X157395Y569883D01*
Y568217D01*
X157812Y567800D01*
X158645D01*
X159061Y568217D01*
Y569050D01*
X158228D01*
X142400Y650299D02*
X144066D01*
X143233D01*
Y647800D01*
X145316D02*
X146149D01*
X146565Y648216D01*
Y649050D01*
X146149Y649466D01*
X145316D01*
X144899Y649050D01*
Y648216D01*
X145316Y647800D01*
X147398Y649466D02*
Y648216D01*
X147815Y647800D01*
X149065D01*
Y649466D01*
X149898Y650299D02*
Y649883D01*
X150731Y649050D01*
X151564Y649883D01*
Y650299D01*
X150731Y649050D02*
Y647800D01*
X152397Y649466D02*
Y648216D01*
X152813Y647800D01*
X154063D01*
Y649466D01*
X154896Y647800D02*
Y649466D01*
X156146D01*
X156562Y649050D01*
Y647800D01*
X159061Y649883D02*
X158645Y650299D01*
X157812D01*
X157395Y649883D01*
Y648216D01*
X157812Y647800D01*
X158645D01*
X159061Y648216D01*
Y649050D01*
X158228D01*
X142400Y730299D02*
X144066D01*
X143233D01*
Y727800D01*
X145316D02*
X146149D01*
X146565Y728217D01*
Y729049D01*
X146149Y729466D01*
X145316D01*
X144899Y729049D01*
Y728217D01*
X145316Y727800D01*
X147398Y729466D02*
Y728217D01*
X147815Y727800D01*
X149065D01*
Y729466D01*
X149898Y730299D02*
Y729883D01*
X150731Y729049D01*
X151564Y729883D01*
Y730299D01*
X150731Y729049D02*
Y727800D01*
X152397Y729466D02*
Y728217D01*
X152813Y727800D01*
X154063D01*
Y729466D01*
X154896Y727800D02*
Y729466D01*
X156146D01*
X156562Y729049D01*
Y727800D01*
X159061Y729883D02*
X158645Y730299D01*
X157812D01*
X157395Y729883D01*
Y728217D01*
X157812Y727800D01*
X158645D01*
X159061Y728217D01*
Y729049D01*
X158228D01*
X142400Y810299D02*
X144066D01*
X143233D01*
Y807800D01*
X145316D02*
X146149D01*
X146565Y808216D01*
Y809050D01*
X146149Y809466D01*
X145316D01*
X144899Y809050D01*
Y808216D01*
X145316Y807800D01*
X147398Y809466D02*
Y808216D01*
X147815Y807800D01*
X149065D01*
Y809466D01*
X149898Y810299D02*
Y809883D01*
X150731Y809050D01*
X151564Y809883D01*
Y810299D01*
X150731Y809050D02*
Y807800D01*
X152397Y809466D02*
Y808216D01*
X152813Y807800D01*
X154063D01*
Y809466D01*
X154896Y807800D02*
Y809466D01*
X156146D01*
X156562Y809050D01*
Y807800D01*
X159061Y809883D02*
X158645Y810299D01*
X157812D01*
X157395Y809883D01*
Y808216D01*
X157812Y807800D01*
X158645D01*
X159061Y808216D01*
Y809050D01*
X158228D01*
X142400Y890299D02*
X144066D01*
X143233D01*
Y887800D01*
X145316D02*
X146149D01*
X146565Y888216D01*
Y889050D01*
X146149Y889466D01*
X145316D01*
X144899Y889050D01*
Y888216D01*
X145316Y887800D01*
X147398Y889466D02*
Y888216D01*
X147815Y887800D01*
X149065D01*
Y889466D01*
X149898Y890299D02*
Y889883D01*
X150731Y889050D01*
X151564Y889883D01*
Y890299D01*
X150731Y889050D02*
Y887800D01*
X152397Y889466D02*
Y888216D01*
X152813Y887800D01*
X154063D01*
Y889466D01*
X154896Y887800D02*
Y889466D01*
X156146D01*
X156562Y889050D01*
Y887800D01*
X159061Y889883D02*
X158645Y890299D01*
X157812D01*
X157395Y889883D01*
Y888216D01*
X157812Y887800D01*
X158645D01*
X159061Y888216D01*
Y889050D01*
X158228D01*
X142400Y970299D02*
X144066D01*
X143233D01*
Y967800D01*
X145316D02*
X146149D01*
X146565Y968217D01*
Y969050D01*
X146149Y969466D01*
X145316D01*
X144899Y969050D01*
Y968217D01*
X145316Y967800D01*
X147398Y969466D02*
Y968217D01*
X147815Y967800D01*
X149065D01*
Y969466D01*
X149898Y970299D02*
Y969883D01*
X150731Y969050D01*
X151564Y969883D01*
Y970299D01*
X150731Y969050D02*
Y967800D01*
X152397Y969466D02*
Y968217D01*
X152813Y967800D01*
X154063D01*
Y969466D01*
X154896Y967800D02*
Y969466D01*
X156146D01*
X156562Y969050D01*
Y967800D01*
X159061Y969883D02*
X158645Y970299D01*
X157812D01*
X157395Y969883D01*
Y968217D01*
X157812Y967800D01*
X158645D01*
X159061Y968217D01*
Y969050D01*
X158228D01*
X342400Y10299D02*
X344066D01*
X343233D01*
Y7800D01*
X345316D02*
X346149D01*
X346566Y8217D01*
Y9050D01*
X346149Y9466D01*
X345316D01*
X344899Y9050D01*
Y8217D01*
X345316Y7800D01*
X347398Y9466D02*
Y8217D01*
X347815Y7800D01*
X349065D01*
Y9466D01*
X349898Y10299D02*
Y9883D01*
X350731Y9050D01*
X351564Y9883D01*
Y10299D01*
X350731Y9050D02*
Y7800D01*
X352397Y9466D02*
Y8217D01*
X352813Y7800D01*
X354063D01*
Y9466D01*
X354896Y7800D02*
Y9466D01*
X356146D01*
X356562Y9050D01*
Y7800D01*
X359061Y9883D02*
X358645Y10299D01*
X357812D01*
X357395Y9883D01*
Y8217D01*
X357812Y7800D01*
X358645D01*
X359061Y8217D01*
Y9050D01*
X358228D01*
X342400Y90299D02*
X344066D01*
X343233D01*
Y87800D01*
X345316D02*
X346149D01*
X346565Y88217D01*
Y89050D01*
X346149Y89466D01*
X345316D01*
X344899Y89050D01*
Y88217D01*
X345316Y87800D01*
X347398Y89466D02*
Y88217D01*
X347815Y87800D01*
X349065D01*
Y89466D01*
X349898Y90299D02*
Y89883D01*
X350731Y89050D01*
X351564Y89883D01*
Y90299D01*
X350731Y89050D02*
Y87800D01*
X352397Y89466D02*
Y88217D01*
X352813Y87800D01*
X354063D01*
Y89466D01*
X354896Y87800D02*
Y89466D01*
X356146D01*
X356562Y89050D01*
Y87800D01*
X359061Y89883D02*
X358645Y90299D01*
X357812D01*
X357395Y89883D01*
Y88217D01*
X357812Y87800D01*
X358645D01*
X359061Y88217D01*
Y89050D01*
X358228D01*
X342400Y170299D02*
X344066D01*
X343233D01*
Y167800D01*
X345316D02*
X346149D01*
X346565Y168216D01*
Y169050D01*
X346149Y169466D01*
X345316D01*
X344899Y169050D01*
Y168216D01*
X345316Y167800D01*
X347398Y169466D02*
Y168216D01*
X347815Y167800D01*
X349065D01*
Y169466D01*
X349898Y170299D02*
Y169883D01*
X350731Y169050D01*
X351564Y169883D01*
Y170299D01*
X350731Y169050D02*
Y167800D01*
X352397Y169466D02*
Y168216D01*
X352813Y167800D01*
X354063D01*
Y169466D01*
X354896Y167800D02*
Y169466D01*
X356146D01*
X356562Y169050D01*
Y167800D01*
X359061Y169883D02*
X358645Y170299D01*
X357812D01*
X357395Y169883D01*
Y168216D01*
X357812Y167800D01*
X358645D01*
X359061Y168216D01*
Y169050D01*
X358228D01*
X342400Y250299D02*
X344066D01*
X343233D01*
Y247800D01*
X345316D02*
X346149D01*
X346565Y248216D01*
Y249049D01*
X346149Y249466D01*
X345316D01*
X344899Y249049D01*
Y248216D01*
X345316Y247800D01*
X347398Y249466D02*
Y248216D01*
X347815Y247800D01*
X349065D01*
Y249466D01*
X349898Y250299D02*
Y249883D01*
X350731Y249049D01*
X351564Y249883D01*
Y250299D01*
X350731Y249049D02*
Y247800D01*
X352397Y249466D02*
Y248216D01*
X352813Y247800D01*
X354063D01*
Y249466D01*
X354896Y247800D02*
Y249466D01*
X356146D01*
X356562Y249049D01*
Y247800D01*
X359061Y249883D02*
X358645Y250299D01*
X357812D01*
X357395Y249883D01*
Y248216D01*
X357812Y247800D01*
X358645D01*
X359061Y248216D01*
Y249049D01*
X358228D01*
X342400Y330299D02*
X344066D01*
X343233D01*
Y327800D01*
X345316D02*
X346149D01*
X346565Y328216D01*
Y329049D01*
X346149Y329466D01*
X345316D01*
X344899Y329049D01*
Y328216D01*
X345316Y327800D01*
X347398Y329466D02*
Y328216D01*
X347815Y327800D01*
X349065D01*
Y329466D01*
X349898Y330299D02*
Y329883D01*
X350731Y329049D01*
X351564Y329883D01*
Y330299D01*
X350731Y329049D02*
Y327800D01*
X352397Y329466D02*
Y328216D01*
X352813Y327800D01*
X354063D01*
Y329466D01*
X354896Y327800D02*
Y329466D01*
X356146D01*
X356562Y329049D01*
Y327800D01*
X359061Y329883D02*
X358645Y330299D01*
X357812D01*
X357395Y329883D01*
Y328216D01*
X357812Y327800D01*
X358645D01*
X359061Y328216D01*
Y329049D01*
X358228D01*
X342400Y410299D02*
X344066D01*
X343233D01*
Y407800D01*
X345316D02*
X346149D01*
X346565Y408216D01*
Y409050D01*
X346149Y409466D01*
X345316D01*
X344899Y409050D01*
Y408216D01*
X345316Y407800D01*
X347398Y409466D02*
Y408216D01*
X347815Y407800D01*
X349065D01*
Y409466D01*
X349898Y410299D02*
Y409883D01*
X350731Y409050D01*
X351564Y409883D01*
Y410299D01*
X350731Y409050D02*
Y407800D01*
X352397Y409466D02*
Y408216D01*
X352813Y407800D01*
X354063D01*
Y409466D01*
X354896Y407800D02*
Y409466D01*
X356146D01*
X356562Y409050D01*
Y407800D01*
X359061Y409883D02*
X358645Y410299D01*
X357812D01*
X357395Y409883D01*
Y408216D01*
X357812Y407800D01*
X358645D01*
X359061Y408216D01*
Y409050D01*
X358228D01*
X342400Y490299D02*
X344066D01*
X343233D01*
Y487800D01*
X345316D02*
X346149D01*
X346565Y488216D01*
Y489049D01*
X346149Y489466D01*
X345316D01*
X344899Y489049D01*
Y488216D01*
X345316Y487800D01*
X347398Y489466D02*
Y488216D01*
X347815Y487800D01*
X349065D01*
Y489466D01*
X349898Y490299D02*
Y489883D01*
X350731Y489049D01*
X351564Y489883D01*
Y490299D01*
X350731Y489049D02*
Y487800D01*
X352397Y489466D02*
Y488216D01*
X352813Y487800D01*
X354063D01*
Y489466D01*
X354896Y487800D02*
Y489466D01*
X356146D01*
X356562Y489049D01*
Y487800D01*
X359061Y489883D02*
X358645Y490299D01*
X357812D01*
X357395Y489883D01*
Y488216D01*
X357812Y487800D01*
X358645D01*
X359061Y488216D01*
Y489049D01*
X358228D01*
X342400Y570299D02*
X344066D01*
X343233D01*
Y567800D01*
X345316D02*
X346149D01*
X346565Y568216D01*
Y569050D01*
X346149Y569466D01*
X345316D01*
X344899Y569050D01*
Y568216D01*
X345316Y567800D01*
X347398Y569466D02*
Y568216D01*
X347815Y567800D01*
X349065D01*
Y569466D01*
X349898Y570299D02*
Y569883D01*
X350731Y569050D01*
X351564Y569883D01*
Y570299D01*
X350731Y569050D02*
Y567800D01*
X352397Y569466D02*
Y568216D01*
X352813Y567800D01*
X354063D01*
Y569466D01*
X354896Y567800D02*
Y569466D01*
X356146D01*
X356562Y569050D01*
Y567800D01*
X359061Y569883D02*
X358645Y570299D01*
X357812D01*
X357395Y569883D01*
Y568216D01*
X357812Y567800D01*
X358645D01*
X359061Y568216D01*
Y569050D01*
X358228D01*
X342400Y650299D02*
X344066D01*
X343233D01*
Y647800D01*
X345316D02*
X346149D01*
X346565Y648216D01*
Y649050D01*
X346149Y649466D01*
X345316D01*
X344899Y649050D01*
Y648216D01*
X345316Y647800D01*
X347398Y649466D02*
Y648216D01*
X347815Y647800D01*
X349065D01*
Y649466D01*
X349898Y650299D02*
Y649883D01*
X350731Y649050D01*
X351564Y649883D01*
Y650299D01*
X350731Y649050D02*
Y647800D01*
X352397Y649466D02*
Y648216D01*
X352813Y647800D01*
X354063D01*
Y649466D01*
X354896Y647800D02*
Y649466D01*
X356146D01*
X356562Y649050D01*
Y647800D01*
X359061Y649883D02*
X358645Y650299D01*
X357812D01*
X357395Y649883D01*
Y648216D01*
X357812Y647800D01*
X358645D01*
X359061Y648216D01*
Y649050D01*
X358228D01*
X342400Y730299D02*
X344066D01*
X343233D01*
Y727800D01*
X345316D02*
X346149D01*
X346565Y728216D01*
Y729049D01*
X346149Y729466D01*
X345316D01*
X344899Y729049D01*
Y728216D01*
X345316Y727800D01*
X347398Y729466D02*
Y728216D01*
X347815Y727800D01*
X349065D01*
Y729466D01*
X349898Y730299D02*
Y729883D01*
X350731Y729049D01*
X351564Y729883D01*
Y730299D01*
X350731Y729049D02*
Y727800D01*
X352397Y729466D02*
Y728216D01*
X352813Y727800D01*
X354063D01*
Y729466D01*
X354896Y727800D02*
Y729466D01*
X356146D01*
X356562Y729049D01*
Y727800D01*
X359061Y729883D02*
X358645Y730299D01*
X357812D01*
X357395Y729883D01*
Y728216D01*
X357812Y727800D01*
X358645D01*
X359061Y728216D01*
Y729049D01*
X358228D01*
X342400Y810299D02*
X344066D01*
X343233D01*
Y807800D01*
X345316D02*
X346149D01*
X346565Y808216D01*
Y809050D01*
X346149Y809466D01*
X345316D01*
X344899Y809050D01*
Y808216D01*
X345316Y807800D01*
X347398Y809466D02*
Y808216D01*
X347815Y807800D01*
X349065D01*
Y809466D01*
X349898Y810299D02*
Y809883D01*
X350731Y809050D01*
X351564Y809883D01*
Y810299D01*
X350731Y809050D02*
Y807800D01*
X352397Y809466D02*
Y808216D01*
X352813Y807800D01*
X354063D01*
Y809466D01*
X354896Y807800D02*
Y809466D01*
X356146D01*
X356562Y809050D01*
Y807800D01*
X359061Y809883D02*
X358645Y810299D01*
X357812D01*
X357395Y809883D01*
Y808216D01*
X357812Y807800D01*
X358645D01*
X359061Y808216D01*
Y809050D01*
X358228D01*
X342400Y890299D02*
X344066D01*
X343233D01*
Y887800D01*
X345316D02*
X346149D01*
X346565Y888216D01*
Y889050D01*
X346149Y889466D01*
X345316D01*
X344899Y889050D01*
Y888216D01*
X345316Y887800D01*
X347398Y889466D02*
Y888216D01*
X347815Y887800D01*
X349065D01*
Y889466D01*
X349898Y890299D02*
Y889883D01*
X350731Y889050D01*
X351564Y889883D01*
Y890299D01*
X350731Y889050D02*
Y887800D01*
X352397Y889466D02*
Y888216D01*
X352813Y887800D01*
X354063D01*
Y889466D01*
X354896Y887800D02*
Y889466D01*
X356146D01*
X356562Y889050D01*
Y887800D01*
X359061Y889883D02*
X358645Y890299D01*
X357812D01*
X357395Y889883D01*
Y888216D01*
X357812Y887800D01*
X358645D01*
X359061Y888216D01*
Y889050D01*
X358228D01*
X342400Y970299D02*
X344066D01*
X343233D01*
Y967800D01*
X345316D02*
X346149D01*
X346565Y968216D01*
Y969049D01*
X346149Y969466D01*
X345316D01*
X344899Y969049D01*
Y968216D01*
X345316Y967800D01*
X347398Y969466D02*
Y968216D01*
X347815Y967800D01*
X349065D01*
Y969466D01*
X349898Y970299D02*
Y969883D01*
X350731Y969049D01*
X351564Y969883D01*
Y970299D01*
X350731Y969049D02*
Y967800D01*
X352397Y969466D02*
Y968216D01*
X352813Y967800D01*
X354063D01*
Y969466D01*
X354896Y967800D02*
Y969466D01*
X356146D01*
X356562Y969049D01*
Y967800D01*
X359061Y969883D02*
X358645Y970299D01*
X357812D01*
X357395Y969883D01*
Y968216D01*
X357812Y967800D01*
X358645D01*
X359061Y968216D01*
Y969049D01*
X358228D01*
X242400Y10299D02*
X244066D01*
X243233D01*
Y7800D01*
X245316D02*
X246149D01*
X246565Y8217D01*
Y9050D01*
X246149Y9466D01*
X245316D01*
X244899Y9050D01*
Y8217D01*
X245316Y7800D01*
X247398Y9466D02*
Y8217D01*
X247815Y7800D01*
X249064D01*
Y9466D01*
X249898Y10299D02*
Y9883D01*
X250731Y9050D01*
X251564Y9883D01*
Y10299D01*
X250731Y9050D02*
Y7800D01*
X252397Y9466D02*
Y8217D01*
X252813Y7800D01*
X254063D01*
Y9466D01*
X254896Y7800D02*
Y9466D01*
X256146D01*
X256562Y9050D01*
Y7800D01*
X259061Y9883D02*
X258645Y10299D01*
X257812D01*
X257395Y9883D01*
Y8217D01*
X257812Y7800D01*
X258645D01*
X259061Y8217D01*
Y9050D01*
X258228D01*
X242400Y90299D02*
X244066D01*
X243233D01*
Y87800D01*
X245316D02*
X246149D01*
X246565Y88217D01*
Y89050D01*
X246149Y89466D01*
X245316D01*
X244899Y89050D01*
Y88217D01*
X245316Y87800D01*
X247398Y89466D02*
Y88217D01*
X247815Y87800D01*
X249064D01*
Y89466D01*
X249898Y90299D02*
Y89883D01*
X250730Y89050D01*
X251564Y89883D01*
Y90299D01*
X250730Y89050D02*
Y87800D01*
X252397Y89466D02*
Y88217D01*
X252813Y87800D01*
X254063D01*
Y89466D01*
X254896Y87800D02*
Y89466D01*
X256145D01*
X256562Y89050D01*
Y87800D01*
X259061Y89883D02*
X258645Y90299D01*
X257812D01*
X257395Y89883D01*
Y88217D01*
X257812Y87800D01*
X258645D01*
X259061Y88217D01*
Y89050D01*
X258228D01*
X242400Y170299D02*
X244066D01*
X243233D01*
Y167800D01*
X245316D02*
X246149D01*
X246565Y168216D01*
Y169050D01*
X246149Y169466D01*
X245316D01*
X244899Y169050D01*
Y168216D01*
X245316Y167800D01*
X247398Y169466D02*
Y168216D01*
X247815Y167800D01*
X249064D01*
Y169466D01*
X249898Y170299D02*
Y169883D01*
X250730Y169050D01*
X251564Y169883D01*
Y170299D01*
X250730Y169050D02*
Y167800D01*
X252397Y169466D02*
Y168216D01*
X252813Y167800D01*
X254063D01*
Y169466D01*
X254896Y167800D02*
Y169466D01*
X256145D01*
X256562Y169050D01*
Y167800D01*
X259061Y169883D02*
X258645Y170299D01*
X257812D01*
X257395Y169883D01*
Y168216D01*
X257812Y167800D01*
X258645D01*
X259061Y168216D01*
Y169050D01*
X258228D01*
X242400Y250299D02*
X244066D01*
X243233D01*
Y247800D01*
X245316D02*
X246149D01*
X246565Y248216D01*
Y249049D01*
X246149Y249466D01*
X245316D01*
X244899Y249049D01*
Y248216D01*
X245316Y247800D01*
X247398Y249466D02*
Y248216D01*
X247815Y247800D01*
X249064D01*
Y249466D01*
X249898Y250299D02*
Y249883D01*
X250730Y249049D01*
X251564Y249883D01*
Y250299D01*
X250730Y249049D02*
Y247800D01*
X252397Y249466D02*
Y248216D01*
X252813Y247800D01*
X254063D01*
Y249466D01*
X254896Y247800D02*
Y249466D01*
X256145D01*
X256562Y249049D01*
Y247800D01*
X259061Y249883D02*
X258645Y250299D01*
X257812D01*
X257395Y249883D01*
Y248216D01*
X257812Y247800D01*
X258645D01*
X259061Y248216D01*
Y249049D01*
X258228D01*
X242400Y330299D02*
X244066D01*
X243233D01*
Y327800D01*
X245316D02*
X246149D01*
X246565Y328216D01*
Y329049D01*
X246149Y329466D01*
X245316D01*
X244899Y329049D01*
Y328216D01*
X245316Y327800D01*
X247398Y329466D02*
Y328216D01*
X247815Y327800D01*
X249064D01*
Y329466D01*
X249898Y330299D02*
Y329883D01*
X250730Y329049D01*
X251564Y329883D01*
Y330299D01*
X250730Y329049D02*
Y327800D01*
X252397Y329466D02*
Y328216D01*
X252813Y327800D01*
X254063D01*
Y329466D01*
X254896Y327800D02*
Y329466D01*
X256145D01*
X256562Y329049D01*
Y327800D01*
X259061Y329883D02*
X258645Y330299D01*
X257812D01*
X257395Y329883D01*
Y328216D01*
X257812Y327800D01*
X258645D01*
X259061Y328216D01*
Y329049D01*
X258228D01*
X242400Y410299D02*
X244066D01*
X243233D01*
Y407800D01*
X245316D02*
X246149D01*
X246565Y408216D01*
Y409050D01*
X246149Y409466D01*
X245316D01*
X244899Y409050D01*
Y408216D01*
X245316Y407800D01*
X247398Y409466D02*
Y408216D01*
X247815Y407800D01*
X249064D01*
Y409466D01*
X249898Y410299D02*
Y409883D01*
X250730Y409050D01*
X251564Y409883D01*
Y410299D01*
X250730Y409050D02*
Y407800D01*
X252397Y409466D02*
Y408216D01*
X252813Y407800D01*
X254063D01*
Y409466D01*
X254896Y407800D02*
Y409466D01*
X256145D01*
X256562Y409050D01*
Y407800D01*
X259061Y409883D02*
X258645Y410299D01*
X257812D01*
X257395Y409883D01*
Y408216D01*
X257812Y407800D01*
X258645D01*
X259061Y408216D01*
Y409050D01*
X258228D01*
X242400Y490299D02*
X244066D01*
X243233D01*
Y487800D01*
X245316D02*
X246149D01*
X246565Y488216D01*
Y489049D01*
X246149Y489466D01*
X245316D01*
X244899Y489049D01*
Y488216D01*
X245316Y487800D01*
X247398Y489466D02*
Y488216D01*
X247815Y487800D01*
X249064D01*
Y489466D01*
X249898Y490299D02*
Y489883D01*
X250730Y489049D01*
X251564Y489883D01*
Y490299D01*
X250730Y489049D02*
Y487800D01*
X252397Y489466D02*
Y488216D01*
X252813Y487800D01*
X254063D01*
Y489466D01*
X254896Y487800D02*
Y489466D01*
X256145D01*
X256562Y489049D01*
Y487800D01*
X259061Y489883D02*
X258645Y490299D01*
X257812D01*
X257395Y489883D01*
Y488216D01*
X257812Y487800D01*
X258645D01*
X259061Y488216D01*
Y489049D01*
X258228D01*
X242400Y570299D02*
X244066D01*
X243233D01*
Y567800D01*
X245316D02*
X246149D01*
X246565Y568216D01*
Y569050D01*
X246149Y569466D01*
X245316D01*
X244899Y569050D01*
Y568216D01*
X245316Y567800D01*
X247398Y569466D02*
Y568216D01*
X247815Y567800D01*
X249064D01*
Y569466D01*
X249898Y570299D02*
Y569883D01*
X250730Y569050D01*
X251564Y569883D01*
Y570299D01*
X250730Y569050D02*
Y567800D01*
X252397Y569466D02*
Y568216D01*
X252813Y567800D01*
X254063D01*
Y569466D01*
X254896Y567800D02*
Y569466D01*
X256145D01*
X256562Y569050D01*
Y567800D01*
X259061Y569883D02*
X258645Y570299D01*
X257812D01*
X257395Y569883D01*
Y568216D01*
X257812Y567800D01*
X258645D01*
X259061Y568216D01*
Y569050D01*
X258228D01*
X242400Y650299D02*
X244066D01*
X243233D01*
Y647800D01*
X245316D02*
X246149D01*
X246565Y648216D01*
Y649050D01*
X246149Y649466D01*
X245316D01*
X244899Y649050D01*
Y648216D01*
X245316Y647800D01*
X247398Y649466D02*
Y648216D01*
X247815Y647800D01*
X249064D01*
Y649466D01*
X249898Y650299D02*
Y649883D01*
X250730Y649050D01*
X251564Y649883D01*
Y650299D01*
X250730Y649050D02*
Y647800D01*
X252397Y649466D02*
Y648216D01*
X252813Y647800D01*
X254063D01*
Y649466D01*
X254896Y647800D02*
Y649466D01*
X256145D01*
X256562Y649050D01*
Y647800D01*
X259061Y649883D02*
X258645Y650299D01*
X257812D01*
X257395Y649883D01*
Y648216D01*
X257812Y647800D01*
X258645D01*
X259061Y648216D01*
Y649050D01*
X258228D01*
X242400Y730299D02*
X244066D01*
X243233D01*
Y727800D01*
X245316D02*
X246149D01*
X246565Y728216D01*
Y729049D01*
X246149Y729466D01*
X245316D01*
X244899Y729049D01*
Y728216D01*
X245316Y727800D01*
X247398Y729466D02*
Y728216D01*
X247815Y727800D01*
X249064D01*
Y729466D01*
X249898Y730299D02*
Y729883D01*
X250730Y729049D01*
X251564Y729883D01*
Y730299D01*
X250730Y729049D02*
Y727800D01*
X252397Y729466D02*
Y728216D01*
X252813Y727800D01*
X254063D01*
Y729466D01*
X254896Y727800D02*
Y729466D01*
X256145D01*
X256562Y729049D01*
Y727800D01*
X259061Y729883D02*
X258645Y730299D01*
X257812D01*
X257395Y729883D01*
Y728216D01*
X257812Y727800D01*
X258645D01*
X259061Y728216D01*
Y729049D01*
X258228D01*
X242400Y810299D02*
X244066D01*
X243233D01*
Y807800D01*
X245316D02*
X246149D01*
X246565Y808216D01*
Y809050D01*
X246149Y809466D01*
X245316D01*
X244899Y809050D01*
Y808216D01*
X245316Y807800D01*
X247398Y809466D02*
Y808216D01*
X247815Y807800D01*
X249064D01*
Y809466D01*
X249898Y810299D02*
Y809883D01*
X250730Y809050D01*
X251564Y809883D01*
Y810299D01*
X250730Y809050D02*
Y807800D01*
X252397Y809466D02*
Y808216D01*
X252813Y807800D01*
X254063D01*
Y809466D01*
X254896Y807800D02*
Y809466D01*
X256145D01*
X256562Y809050D01*
Y807800D01*
X259061Y809883D02*
X258645Y810299D01*
X257812D01*
X257395Y809883D01*
Y808216D01*
X257812Y807800D01*
X258645D01*
X259061Y808216D01*
Y809050D01*
X258228D01*
X242400Y890299D02*
X244066D01*
X243233D01*
Y887800D01*
X245316D02*
X246149D01*
X246565Y888216D01*
Y889050D01*
X246149Y889466D01*
X245316D01*
X244899Y889050D01*
Y888216D01*
X245316Y887800D01*
X247398Y889466D02*
Y888216D01*
X247815Y887800D01*
X249064D01*
Y889466D01*
X249898Y890299D02*
Y889883D01*
X250730Y889050D01*
X251564Y889883D01*
Y890299D01*
X250730Y889050D02*
Y887800D01*
X252397Y889466D02*
Y888216D01*
X252813Y887800D01*
X254063D01*
Y889466D01*
X254896Y887800D02*
Y889466D01*
X256145D01*
X256562Y889050D01*
Y887800D01*
X259061Y889883D02*
X258645Y890299D01*
X257812D01*
X257395Y889883D01*
Y888216D01*
X257812Y887800D01*
X258645D01*
X259061Y888216D01*
Y889050D01*
X258228D01*
X242400Y970299D02*
X244066D01*
X243233D01*
Y967800D01*
X245316D02*
X246149D01*
X246565Y968216D01*
Y969049D01*
X246149Y969466D01*
X245316D01*
X244899Y969049D01*
Y968216D01*
X245316Y967800D01*
X247398Y969466D02*
Y968216D01*
X247815Y967800D01*
X249064D01*
Y969466D01*
X249898Y970299D02*
Y969883D01*
X250730Y969049D01*
X251564Y969883D01*
Y970299D01*
X250730Y969049D02*
Y967800D01*
X252397Y969466D02*
Y968216D01*
X252813Y967800D01*
X254063D01*
Y969466D01*
X254896Y967800D02*
Y969466D01*
X256145D01*
X256562Y969049D01*
Y967800D01*
X259061Y969883D02*
X258645Y970299D01*
X257812D01*
X257395Y969883D01*
Y968216D01*
X257812Y967800D01*
X258645D01*
X259061Y968216D01*
Y969049D01*
X258228D01*
X542400Y10299D02*
X544066D01*
X543233D01*
Y7800D01*
X545316D02*
X546149D01*
X546565Y8217D01*
Y9050D01*
X546149Y9466D01*
X545316D01*
X544899Y9050D01*
Y8217D01*
X545316Y7800D01*
X547399Y9466D02*
Y8217D01*
X547815Y7800D01*
X549065D01*
Y9466D01*
X549898Y10299D02*
Y9883D01*
X550731Y9050D01*
X551564Y9883D01*
Y10299D01*
X550731Y9050D02*
Y7800D01*
X552397Y9466D02*
Y8217D01*
X552813Y7800D01*
X554063D01*
Y9466D01*
X554896Y7800D02*
Y9466D01*
X556146D01*
X556562Y9050D01*
Y7800D01*
X559061Y9883D02*
X558645Y10299D01*
X557812D01*
X557395Y9883D01*
Y8217D01*
X557812Y7800D01*
X558645D01*
X559061Y8217D01*
Y9050D01*
X558228D01*
X542400Y90299D02*
X544066D01*
X543233D01*
Y87800D01*
X545316D02*
X546149D01*
X546565Y88217D01*
Y89050D01*
X546149Y89466D01*
X545316D01*
X544899Y89050D01*
Y88217D01*
X545316Y87800D01*
X547399Y89466D02*
Y88217D01*
X547815Y87800D01*
X549065D01*
Y89466D01*
X549898Y90299D02*
Y89883D01*
X550731Y89050D01*
X551564Y89883D01*
Y90299D01*
X550731Y89050D02*
Y87800D01*
X552397Y89466D02*
Y88217D01*
X552813Y87800D01*
X554063D01*
Y89466D01*
X554896Y87800D02*
Y89466D01*
X556146D01*
X556562Y89050D01*
Y87800D01*
X559061Y89883D02*
X558645Y90299D01*
X557812D01*
X557395Y89883D01*
Y88217D01*
X557812Y87800D01*
X558645D01*
X559061Y88217D01*
Y89050D01*
X558228D01*
X542400Y170299D02*
X544066D01*
X543233D01*
Y167800D01*
X545316D02*
X546149D01*
X546565Y168216D01*
Y169050D01*
X546149Y169466D01*
X545316D01*
X544899Y169050D01*
Y168216D01*
X545316Y167800D01*
X547399Y169466D02*
Y168216D01*
X547815Y167800D01*
X549065D01*
Y169466D01*
X549898Y170299D02*
Y169883D01*
X550731Y169050D01*
X551564Y169883D01*
Y170299D01*
X550731Y169050D02*
Y167800D01*
X552397Y169466D02*
Y168216D01*
X552813Y167800D01*
X554063D01*
Y169466D01*
X554896Y167800D02*
Y169466D01*
X556146D01*
X556562Y169050D01*
Y167800D01*
X559061Y169883D02*
X558645Y170299D01*
X557812D01*
X557395Y169883D01*
Y168216D01*
X557812Y167800D01*
X558645D01*
X559061Y168216D01*
Y169050D01*
X558228D01*
X542400Y250299D02*
X544066D01*
X543233D01*
Y247800D01*
X545316D02*
X546149D01*
X546565Y248216D01*
Y249049D01*
X546149Y249466D01*
X545316D01*
X544899Y249049D01*
Y248216D01*
X545316Y247800D01*
X547399Y249466D02*
Y248216D01*
X547815Y247800D01*
X549065D01*
Y249466D01*
X549898Y250299D02*
Y249883D01*
X550731Y249049D01*
X551564Y249883D01*
Y250299D01*
X550731Y249049D02*
Y247800D01*
X552397Y249466D02*
Y248216D01*
X552813Y247800D01*
X554063D01*
Y249466D01*
X554896Y247800D02*
Y249466D01*
X556146D01*
X556562Y249049D01*
Y247800D01*
X559061Y249883D02*
X558645Y250299D01*
X557812D01*
X557395Y249883D01*
Y248216D01*
X557812Y247800D01*
X558645D01*
X559061Y248216D01*
Y249049D01*
X558228D01*
X542400Y330299D02*
X544066D01*
X543233D01*
Y327800D01*
X545316D02*
X546149D01*
X546565Y328216D01*
Y329049D01*
X546149Y329466D01*
X545316D01*
X544899Y329049D01*
Y328216D01*
X545316Y327800D01*
X547399Y329466D02*
Y328216D01*
X547815Y327800D01*
X549065D01*
Y329466D01*
X549898Y330299D02*
Y329883D01*
X550731Y329049D01*
X551564Y329883D01*
Y330299D01*
X550731Y329049D02*
Y327800D01*
X552397Y329466D02*
Y328216D01*
X552813Y327800D01*
X554063D01*
Y329466D01*
X554896Y327800D02*
Y329466D01*
X556146D01*
X556562Y329049D01*
Y327800D01*
X559061Y329883D02*
X558645Y330299D01*
X557812D01*
X557395Y329883D01*
Y328216D01*
X557812Y327800D01*
X558645D01*
X559061Y328216D01*
Y329049D01*
X558228D01*
X542400Y410299D02*
X544066D01*
X543233D01*
Y407800D01*
X545316D02*
X546149D01*
X546565Y408216D01*
Y409050D01*
X546149Y409466D01*
X545316D01*
X544899Y409050D01*
Y408216D01*
X545316Y407800D01*
X547399Y409466D02*
Y408216D01*
X547815Y407800D01*
X549065D01*
Y409466D01*
X549898Y410299D02*
Y409883D01*
X550731Y409050D01*
X551564Y409883D01*
Y410299D01*
X550731Y409050D02*
Y407800D01*
X552397Y409466D02*
Y408216D01*
X552813Y407800D01*
X554063D01*
Y409466D01*
X554896Y407800D02*
Y409466D01*
X556146D01*
X556562Y409050D01*
Y407800D01*
X559061Y409883D02*
X558645Y410299D01*
X557812D01*
X557395Y409883D01*
Y408216D01*
X557812Y407800D01*
X558645D01*
X559061Y408216D01*
Y409050D01*
X558228D01*
X542400Y490299D02*
X544066D01*
X543233D01*
Y487800D01*
X545316D02*
X546149D01*
X546565Y488216D01*
Y489049D01*
X546149Y489466D01*
X545316D01*
X544899Y489049D01*
Y488216D01*
X545316Y487800D01*
X547399Y489466D02*
Y488216D01*
X547815Y487800D01*
X549065D01*
Y489466D01*
X549898Y490299D02*
Y489883D01*
X550731Y489049D01*
X551564Y489883D01*
Y490299D01*
X550731Y489049D02*
Y487800D01*
X552397Y489466D02*
Y488216D01*
X552813Y487800D01*
X554063D01*
Y489466D01*
X554896Y487800D02*
Y489466D01*
X556146D01*
X556562Y489049D01*
Y487800D01*
X559061Y489883D02*
X558645Y490299D01*
X557812D01*
X557395Y489883D01*
Y488216D01*
X557812Y487800D01*
X558645D01*
X559061Y488216D01*
Y489049D01*
X558228D01*
X542400Y570299D02*
X544066D01*
X543233D01*
Y567800D01*
X545316D02*
X546149D01*
X546565Y568216D01*
Y569050D01*
X546149Y569466D01*
X545316D01*
X544899Y569050D01*
Y568216D01*
X545316Y567800D01*
X547399Y569466D02*
Y568216D01*
X547815Y567800D01*
X549065D01*
Y569466D01*
X549898Y570299D02*
Y569883D01*
X550731Y569050D01*
X551564Y569883D01*
Y570299D01*
X550731Y569050D02*
Y567800D01*
X552397Y569466D02*
Y568216D01*
X552813Y567800D01*
X554063D01*
Y569466D01*
X554896Y567800D02*
Y569466D01*
X556146D01*
X556562Y569050D01*
Y567800D01*
X559061Y569883D02*
X558645Y570299D01*
X557812D01*
X557395Y569883D01*
Y568216D01*
X557812Y567800D01*
X558645D01*
X559061Y568216D01*
Y569050D01*
X558228D01*
X542400Y650299D02*
X544066D01*
X543233D01*
Y647800D01*
X545316D02*
X546149D01*
X546565Y648216D01*
Y649050D01*
X546149Y649466D01*
X545316D01*
X544899Y649050D01*
Y648216D01*
X545316Y647800D01*
X547399Y649466D02*
Y648216D01*
X547815Y647800D01*
X549065D01*
Y649466D01*
X549898Y650299D02*
Y649883D01*
X550731Y649050D01*
X551564Y649883D01*
Y650299D01*
X550731Y649050D02*
Y647800D01*
X552397Y649466D02*
Y648216D01*
X552813Y647800D01*
X554063D01*
Y649466D01*
X554896Y647800D02*
Y649466D01*
X556146D01*
X556562Y649050D01*
Y647800D01*
X559061Y649883D02*
X558645Y650299D01*
X557812D01*
X557395Y649883D01*
Y648216D01*
X557812Y647800D01*
X558645D01*
X559061Y648216D01*
Y649050D01*
X558228D01*
X542400Y730299D02*
X544066D01*
X543233D01*
Y727800D01*
X545316D02*
X546149D01*
X546565Y728216D01*
Y729049D01*
X546149Y729466D01*
X545316D01*
X544899Y729049D01*
Y728216D01*
X545316Y727800D01*
X547399Y729466D02*
Y728216D01*
X547815Y727800D01*
X549065D01*
Y729466D01*
X549898Y730299D02*
Y729883D01*
X550731Y729049D01*
X551564Y729883D01*
Y730299D01*
X550731Y729049D02*
Y727800D01*
X552397Y729466D02*
Y728216D01*
X552813Y727800D01*
X554063D01*
Y729466D01*
X554896Y727800D02*
Y729466D01*
X556146D01*
X556562Y729049D01*
Y727800D01*
X559061Y729883D02*
X558645Y730299D01*
X557812D01*
X557395Y729883D01*
Y728216D01*
X557812Y727800D01*
X558645D01*
X559061Y728216D01*
Y729049D01*
X558228D01*
X542400Y810299D02*
X544066D01*
X543233D01*
Y807800D01*
X545316D02*
X546149D01*
X546565Y808216D01*
Y809050D01*
X546149Y809466D01*
X545316D01*
X544899Y809050D01*
Y808216D01*
X545316Y807800D01*
X547399Y809466D02*
Y808216D01*
X547815Y807800D01*
X549065D01*
Y809466D01*
X549898Y810299D02*
Y809883D01*
X550731Y809050D01*
X551564Y809883D01*
Y810299D01*
X550731Y809050D02*
Y807800D01*
X552397Y809466D02*
Y808216D01*
X552813Y807800D01*
X554063D01*
Y809466D01*
X554896Y807800D02*
Y809466D01*
X556146D01*
X556562Y809050D01*
Y807800D01*
X559061Y809883D02*
X558645Y810299D01*
X557812D01*
X557395Y809883D01*
Y808216D01*
X557812Y807800D01*
X558645D01*
X559061Y808216D01*
Y809050D01*
X558228D01*
X542400Y890299D02*
X544066D01*
X543233D01*
Y887800D01*
X545316D02*
X546149D01*
X546565Y888216D01*
Y889050D01*
X546149Y889466D01*
X545316D01*
X544899Y889050D01*
Y888216D01*
X545316Y887800D01*
X547399Y889466D02*
Y888216D01*
X547815Y887800D01*
X549065D01*
Y889466D01*
X549898Y890299D02*
Y889883D01*
X550731Y889050D01*
X551564Y889883D01*
Y890299D01*
X550731Y889050D02*
Y887800D01*
X552397Y889466D02*
Y888216D01*
X552813Y887800D01*
X554063D01*
Y889466D01*
X554896Y887800D02*
Y889466D01*
X556146D01*
X556562Y889050D01*
Y887800D01*
X559061Y889883D02*
X558645Y890299D01*
X557812D01*
X557395Y889883D01*
Y888216D01*
X557812Y887800D01*
X558645D01*
X559061Y888216D01*
Y889050D01*
X558228D01*
X542400Y970299D02*
X544066D01*
X543233D01*
Y967800D01*
X545316D02*
X546149D01*
X546565Y968216D01*
Y969049D01*
X546149Y969466D01*
X545316D01*
X544899Y969049D01*
Y968216D01*
X545316Y967800D01*
X547399Y969466D02*
Y968216D01*
X547815Y967800D01*
X549065D01*
Y969466D01*
X549898Y970299D02*
Y969883D01*
X550731Y969049D01*
X551564Y969883D01*
Y970299D01*
X550731Y969049D02*
Y967800D01*
X552397Y969466D02*
Y968216D01*
X552813Y967800D01*
X554063D01*
Y969466D01*
X554896Y967800D02*
Y969466D01*
X556146D01*
X556562Y969049D01*
Y967800D01*
X559061Y969883D02*
X558645Y970299D01*
X557812D01*
X557395Y969883D01*
Y968216D01*
X557812Y967800D01*
X558645D01*
X559061Y968216D01*
Y969049D01*
X558228D01*
X442400Y10299D02*
X444066D01*
X443233D01*
Y7800D01*
X445316D02*
X446149D01*
X446565Y8217D01*
Y9050D01*
X446149Y9466D01*
X445316D01*
X444899Y9050D01*
Y8217D01*
X445316Y7800D01*
X447398Y9466D02*
Y8217D01*
X447815Y7800D01*
X449064D01*
Y9466D01*
X449897Y10299D02*
Y9883D01*
X450731Y9050D01*
X451564Y9883D01*
Y10299D01*
X450731Y9050D02*
Y7800D01*
X452397Y9466D02*
Y8217D01*
X452813Y7800D01*
X454063D01*
Y9466D01*
X454896Y7800D02*
Y9466D01*
X456145D01*
X456562Y9050D01*
Y7800D01*
X459061Y9883D02*
X458645Y10299D01*
X457812D01*
X457395Y9883D01*
Y8217D01*
X457812Y7800D01*
X458645D01*
X459061Y8217D01*
Y9050D01*
X458228D01*
X442400Y90299D02*
X444066D01*
X443233D01*
Y87800D01*
X445316D02*
X446149D01*
X446565Y88217D01*
Y89050D01*
X446149Y89466D01*
X445316D01*
X444899Y89050D01*
Y88217D01*
X445316Y87800D01*
X447398Y89466D02*
Y88217D01*
X447815Y87800D01*
X449064D01*
Y89466D01*
X449897Y90299D02*
Y89883D01*
X450731Y89050D01*
X451564Y89883D01*
Y90299D01*
X450731Y89050D02*
Y87800D01*
X452397Y89466D02*
Y88217D01*
X452813Y87800D01*
X454063D01*
Y89466D01*
X454896Y87800D02*
Y89466D01*
X456145D01*
X456562Y89050D01*
Y87800D01*
X459061Y89883D02*
X458645Y90299D01*
X457812D01*
X457395Y89883D01*
Y88217D01*
X457812Y87800D01*
X458645D01*
X459061Y88217D01*
Y89050D01*
X458228D01*
X442400Y170299D02*
X444066D01*
X443233D01*
Y167800D01*
X445316D02*
X446149D01*
X446565Y168216D01*
Y169050D01*
X446149Y169466D01*
X445316D01*
X444899Y169050D01*
Y168216D01*
X445316Y167800D01*
X447398Y169466D02*
Y168216D01*
X447815Y167800D01*
X449064D01*
Y169466D01*
X449897Y170299D02*
Y169883D01*
X450731Y169050D01*
X451564Y169883D01*
Y170299D01*
X450731Y169050D02*
Y167800D01*
X452397Y169466D02*
Y168216D01*
X452813Y167800D01*
X454063D01*
Y169466D01*
X454896Y167800D02*
Y169466D01*
X456145D01*
X456562Y169050D01*
Y167800D01*
X459061Y169883D02*
X458645Y170299D01*
X457812D01*
X457395Y169883D01*
Y168216D01*
X457812Y167800D01*
X458645D01*
X459061Y168216D01*
Y169050D01*
X458228D01*
X442400Y250299D02*
X444066D01*
X443233D01*
Y247800D01*
X445316D02*
X446149D01*
X446565Y248216D01*
Y249049D01*
X446149Y249466D01*
X445316D01*
X444899Y249049D01*
Y248216D01*
X445316Y247800D01*
X447398Y249466D02*
Y248216D01*
X447815Y247800D01*
X449064D01*
Y249466D01*
X449897Y250299D02*
Y249883D01*
X450731Y249049D01*
X451564Y249883D01*
Y250299D01*
X450731Y249049D02*
Y247800D01*
X452397Y249466D02*
Y248216D01*
X452813Y247800D01*
X454063D01*
Y249466D01*
X454896Y247800D02*
Y249466D01*
X456145D01*
X456562Y249049D01*
Y247800D01*
X459061Y249883D02*
X458645Y250299D01*
X457812D01*
X457395Y249883D01*
Y248216D01*
X457812Y247800D01*
X458645D01*
X459061Y248216D01*
Y249049D01*
X458228D01*
X442400Y330299D02*
X444066D01*
X443233D01*
Y327800D01*
X445316D02*
X446149D01*
X446565Y328216D01*
Y329049D01*
X446149Y329466D01*
X445316D01*
X444899Y329049D01*
Y328216D01*
X445316Y327800D01*
X447398Y329466D02*
Y328216D01*
X447815Y327800D01*
X449064D01*
Y329466D01*
X449897Y330299D02*
Y329883D01*
X450731Y329049D01*
X451564Y329883D01*
Y330299D01*
X450731Y329049D02*
Y327800D01*
X452397Y329466D02*
Y328216D01*
X452813Y327800D01*
X454063D01*
Y329466D01*
X454896Y327800D02*
Y329466D01*
X456145D01*
X456562Y329049D01*
Y327800D01*
X459061Y329883D02*
X458645Y330299D01*
X457812D01*
X457395Y329883D01*
Y328216D01*
X457812Y327800D01*
X458645D01*
X459061Y328216D01*
Y329049D01*
X458228D01*
X442400Y410299D02*
X444066D01*
X443233D01*
Y407800D01*
X445316D02*
X446149D01*
X446565Y408216D01*
Y409050D01*
X446149Y409466D01*
X445316D01*
X444899Y409050D01*
Y408216D01*
X445316Y407800D01*
X447398Y409466D02*
Y408216D01*
X447815Y407800D01*
X449064D01*
Y409466D01*
X449897Y410299D02*
Y409883D01*
X450731Y409050D01*
X451564Y409883D01*
Y410299D01*
X450731Y409050D02*
Y407800D01*
X452397Y409466D02*
Y408216D01*
X452813Y407800D01*
X454063D01*
Y409466D01*
X454896Y407800D02*
Y409466D01*
X456145D01*
X456562Y409050D01*
Y407800D01*
X459061Y409883D02*
X458645Y410299D01*
X457812D01*
X457395Y409883D01*
Y408216D01*
X457812Y407800D01*
X458645D01*
X459061Y408216D01*
Y409050D01*
X458228D01*
X442400Y490299D02*
X444066D01*
X443233D01*
Y487800D01*
X445316D02*
X446149D01*
X446565Y488216D01*
Y489049D01*
X446149Y489466D01*
X445316D01*
X444899Y489049D01*
Y488216D01*
X445316Y487800D01*
X447398Y489466D02*
Y488216D01*
X447815Y487800D01*
X449064D01*
Y489466D01*
X449897Y490299D02*
Y489883D01*
X450731Y489049D01*
X451564Y489883D01*
Y490299D01*
X450731Y489049D02*
Y487800D01*
X452397Y489466D02*
Y488216D01*
X452813Y487800D01*
X454063D01*
Y489466D01*
X454896Y487800D02*
Y489466D01*
X456145D01*
X456562Y489049D01*
Y487800D01*
X459061Y489883D02*
X458645Y490299D01*
X457812D01*
X457395Y489883D01*
Y488216D01*
X457812Y487800D01*
X458645D01*
X459061Y488216D01*
Y489049D01*
X458228D01*
X442400Y570299D02*
X444066D01*
X443233D01*
Y567800D01*
X445316D02*
X446149D01*
X446565Y568216D01*
Y569050D01*
X446149Y569466D01*
X445316D01*
X444899Y569050D01*
Y568216D01*
X445316Y567800D01*
X447398Y569466D02*
Y568216D01*
X447815Y567800D01*
X449064D01*
Y569466D01*
X449897Y570299D02*
Y569883D01*
X450731Y569050D01*
X451564Y569883D01*
Y570299D01*
X450731Y569050D02*
Y567800D01*
X452397Y569466D02*
Y568216D01*
X452813Y567800D01*
X454063D01*
Y569466D01*
X454896Y567800D02*
Y569466D01*
X456145D01*
X456562Y569050D01*
Y567800D01*
X459061Y569883D02*
X458645Y570299D01*
X457812D01*
X457395Y569883D01*
Y568216D01*
X457812Y567800D01*
X458645D01*
X459061Y568216D01*
Y569050D01*
X458228D01*
X442400Y650299D02*
X444066D01*
X443233D01*
Y647800D01*
X445316D02*
X446149D01*
X446565Y648216D01*
Y649050D01*
X446149Y649466D01*
X445316D01*
X444899Y649050D01*
Y648216D01*
X445316Y647800D01*
X447398Y649466D02*
Y648216D01*
X447815Y647800D01*
X449064D01*
Y649466D01*
X449897Y650299D02*
Y649883D01*
X450731Y649050D01*
X451564Y649883D01*
Y650299D01*
X450731Y649050D02*
Y647800D01*
X452397Y649466D02*
Y648216D01*
X452813Y647800D01*
X454063D01*
Y649466D01*
X454896Y647800D02*
Y649466D01*
X456145D01*
X456562Y649050D01*
Y647800D01*
X459061Y649883D02*
X458645Y650299D01*
X457812D01*
X457395Y649883D01*
Y648216D01*
X457812Y647800D01*
X458645D01*
X459061Y648216D01*
Y649050D01*
X458228D01*
X442400Y730299D02*
X444066D01*
X443233D01*
Y727800D01*
X445316D02*
X446149D01*
X446565Y728216D01*
Y729049D01*
X446149Y729466D01*
X445316D01*
X444899Y729049D01*
Y728216D01*
X445316Y727800D01*
X447398Y729466D02*
Y728216D01*
X447815Y727800D01*
X449064D01*
Y729466D01*
X449897Y730299D02*
Y729883D01*
X450731Y729049D01*
X451564Y729883D01*
Y730299D01*
X450731Y729049D02*
Y727800D01*
X452397Y729466D02*
Y728216D01*
X452813Y727800D01*
X454063D01*
Y729466D01*
X454896Y727800D02*
Y729466D01*
X456145D01*
X456562Y729049D01*
Y727800D01*
X459061Y729883D02*
X458645Y730299D01*
X457812D01*
X457395Y729883D01*
Y728216D01*
X457812Y727800D01*
X458645D01*
X459061Y728216D01*
Y729049D01*
X458228D01*
X442400Y810299D02*
X444066D01*
X443233D01*
Y807800D01*
X445316D02*
X446149D01*
X446565Y808216D01*
Y809050D01*
X446149Y809466D01*
X445316D01*
X444899Y809050D01*
Y808216D01*
X445316Y807800D01*
X447398Y809466D02*
Y808216D01*
X447815Y807800D01*
X449064D01*
Y809466D01*
X449897Y810299D02*
Y809883D01*
X450731Y809050D01*
X451564Y809883D01*
Y810299D01*
X450731Y809050D02*
Y807800D01*
X452397Y809466D02*
Y808216D01*
X452813Y807800D01*
X454063D01*
Y809466D01*
X454896Y807800D02*
Y809466D01*
X456145D01*
X456562Y809050D01*
Y807800D01*
X459061Y809883D02*
X458645Y810299D01*
X457812D01*
X457395Y809883D01*
Y808216D01*
X457812Y807800D01*
X458645D01*
X459061Y808216D01*
Y809050D01*
X458228D01*
X442400Y890299D02*
X444066D01*
X443233D01*
Y887800D01*
X445316D02*
X446149D01*
X446565Y888216D01*
Y889050D01*
X446149Y889466D01*
X445316D01*
X444899Y889050D01*
Y888216D01*
X445316Y887800D01*
X447398Y889466D02*
Y888216D01*
X447815Y887800D01*
X449064D01*
Y889466D01*
X449897Y890299D02*
Y889883D01*
X450731Y889050D01*
X451564Y889883D01*
Y890299D01*
X450731Y889050D02*
Y887800D01*
X452397Y889466D02*
Y888216D01*
X452813Y887800D01*
X454063D01*
Y889466D01*
X454896Y887800D02*
Y889466D01*
X456145D01*
X456562Y889050D01*
Y887800D01*
X459061Y889883D02*
X458645Y890299D01*
X457812D01*
X457395Y889883D01*
Y888216D01*
X457812Y887800D01*
X458645D01*
X459061Y888216D01*
Y889050D01*
X458228D01*
X442400Y970299D02*
X444066D01*
X443233D01*
Y967800D01*
X445316D02*
X446149D01*
X446565Y968216D01*
Y969049D01*
X446149Y969466D01*
X445316D01*
X444899Y969049D01*
Y968216D01*
X445316Y967800D01*
X447398Y969466D02*
Y968216D01*
X447815Y967800D01*
X449064D01*
Y969466D01*
X449897Y970299D02*
Y969883D01*
X450731Y969049D01*
X451564Y969883D01*
Y970299D01*
X450731Y969049D02*
Y967800D01*
X452397Y969466D02*
Y968216D01*
X452813Y967800D01*
X454063D01*
Y969466D01*
X454896Y967800D02*
Y969466D01*
X456145D01*
X456562Y969049D01*
Y967800D01*
X459061Y969883D02*
X458645Y970299D01*
X457812D01*
X457395Y969883D01*
Y968216D01*
X457812Y967800D01*
X458645D01*
X459061Y968216D01*
Y969049D01*
X458228D01*
X642400Y10299D02*
X644066D01*
X643233D01*
Y7800D01*
X645316D02*
X646149D01*
X646565Y8217D01*
Y9050D01*
X646149Y9466D01*
X645316D01*
X644899Y9050D01*
Y8217D01*
X645316Y7800D01*
X647399Y9466D02*
Y8217D01*
X647815Y7800D01*
X649065D01*
Y9466D01*
X649898Y10299D02*
Y9883D01*
X650731Y9050D01*
X651564Y9883D01*
Y10299D01*
X650731Y9050D02*
Y7800D01*
X652397Y9466D02*
Y8217D01*
X652813Y7800D01*
X654063D01*
Y9466D01*
X654896Y7800D02*
Y9466D01*
X656146D01*
X656562Y9050D01*
Y7800D01*
X659061Y9883D02*
X658645Y10299D01*
X657812D01*
X657395Y9883D01*
Y8217D01*
X657812Y7800D01*
X658645D01*
X659061Y8217D01*
Y9050D01*
X658228D01*
X642400Y90299D02*
X644066D01*
X643233D01*
Y87800D01*
X645316D02*
X646149D01*
X646565Y88217D01*
Y89050D01*
X646149Y89466D01*
X645316D01*
X644899Y89050D01*
Y88217D01*
X645316Y87800D01*
X647399Y89466D02*
Y88217D01*
X647815Y87800D01*
X649065D01*
Y89466D01*
X649898Y90299D02*
Y89883D01*
X650731Y89050D01*
X651564Y89883D01*
Y90299D01*
X650731Y89050D02*
Y87800D01*
X652397Y89466D02*
Y88217D01*
X652813Y87800D01*
X654063D01*
Y89466D01*
X654896Y87800D02*
Y89466D01*
X656146D01*
X656562Y89050D01*
Y87800D01*
X659061Y89883D02*
X658645Y90299D01*
X657812D01*
X657395Y89883D01*
Y88217D01*
X657812Y87800D01*
X658645D01*
X659061Y88217D01*
Y89050D01*
X658228D01*
X642400Y170299D02*
X644066D01*
X643233D01*
Y167800D01*
X645316D02*
X646149D01*
X646565Y168216D01*
Y169050D01*
X646149Y169466D01*
X645316D01*
X644899Y169050D01*
Y168216D01*
X645316Y167800D01*
X647399Y169466D02*
Y168216D01*
X647815Y167800D01*
X649065D01*
Y169466D01*
X649898Y170299D02*
Y169883D01*
X650731Y169050D01*
X651564Y169883D01*
Y170299D01*
X650731Y169050D02*
Y167800D01*
X652397Y169466D02*
Y168216D01*
X652813Y167800D01*
X654063D01*
Y169466D01*
X654896Y167800D02*
Y169466D01*
X656146D01*
X656562Y169050D01*
Y167800D01*
X659061Y169883D02*
X658645Y170299D01*
X657812D01*
X657395Y169883D01*
Y168216D01*
X657812Y167800D01*
X658645D01*
X659061Y168216D01*
Y169050D01*
X658228D01*
X642400Y250299D02*
X644066D01*
X643233D01*
Y247800D01*
X645316D02*
X646149D01*
X646565Y248216D01*
Y249049D01*
X646149Y249466D01*
X645316D01*
X644899Y249049D01*
Y248216D01*
X645316Y247800D01*
X647399Y249466D02*
Y248216D01*
X647815Y247800D01*
X649065D01*
Y249466D01*
X649898Y250299D02*
Y249883D01*
X650731Y249049D01*
X651564Y249883D01*
Y250299D01*
X650731Y249049D02*
Y247800D01*
X652397Y249466D02*
Y248216D01*
X652813Y247800D01*
X654063D01*
Y249466D01*
X654896Y247800D02*
Y249466D01*
X656146D01*
X656562Y249049D01*
Y247800D01*
X659061Y249883D02*
X658645Y250299D01*
X657812D01*
X657395Y249883D01*
Y248216D01*
X657812Y247800D01*
X658645D01*
X659061Y248216D01*
Y249049D01*
X658228D01*
X642400Y330299D02*
X644066D01*
X643233D01*
Y327800D01*
X645316D02*
X646149D01*
X646565Y328216D01*
Y329049D01*
X646149Y329466D01*
X645316D01*
X644899Y329049D01*
Y328216D01*
X645316Y327800D01*
X647399Y329466D02*
Y328216D01*
X647815Y327800D01*
X649065D01*
Y329466D01*
X649898Y330299D02*
Y329883D01*
X650731Y329049D01*
X651564Y329883D01*
Y330299D01*
X650731Y329049D02*
Y327800D01*
X652397Y329466D02*
Y328216D01*
X652813Y327800D01*
X654063D01*
Y329466D01*
X654896Y327800D02*
Y329466D01*
X656146D01*
X656562Y329049D01*
Y327800D01*
X659061Y329883D02*
X658645Y330299D01*
X657812D01*
X657395Y329883D01*
Y328216D01*
X657812Y327800D01*
X658645D01*
X659061Y328216D01*
Y329049D01*
X658228D01*
X642400Y410299D02*
X644066D01*
X643233D01*
Y407800D01*
X645316D02*
X646149D01*
X646565Y408216D01*
Y409050D01*
X646149Y409466D01*
X645316D01*
X644899Y409050D01*
Y408216D01*
X645316Y407800D01*
X647399Y409466D02*
Y408216D01*
X647815Y407800D01*
X649065D01*
Y409466D01*
X649898Y410299D02*
Y409883D01*
X650731Y409050D01*
X651564Y409883D01*
Y410299D01*
X650731Y409050D02*
Y407800D01*
X652397Y409466D02*
Y408216D01*
X652813Y407800D01*
X654063D01*
Y409466D01*
X654896Y407800D02*
Y409466D01*
X656146D01*
X656562Y409050D01*
Y407800D01*
X659061Y409883D02*
X658645Y410299D01*
X657812D01*
X657395Y409883D01*
Y408216D01*
X657812Y407800D01*
X658645D01*
X659061Y408216D01*
Y409050D01*
X658228D01*
X642400Y490299D02*
X644066D01*
X643233D01*
Y487800D01*
X645316D02*
X646149D01*
X646565Y488216D01*
Y489049D01*
X646149Y489466D01*
X645316D01*
X644899Y489049D01*
Y488216D01*
X645316Y487800D01*
X647399Y489466D02*
Y488216D01*
X647815Y487800D01*
X649065D01*
Y489466D01*
X649898Y490299D02*
Y489883D01*
X650731Y489049D01*
X651564Y489883D01*
Y490299D01*
X650731Y489049D02*
Y487800D01*
X652397Y489466D02*
Y488216D01*
X652813Y487800D01*
X654063D01*
Y489466D01*
X654896Y487800D02*
Y489466D01*
X656146D01*
X656562Y489049D01*
Y487800D01*
X659061Y489883D02*
X658645Y490299D01*
X657812D01*
X657395Y489883D01*
Y488216D01*
X657812Y487800D01*
X658645D01*
X659061Y488216D01*
Y489049D01*
X658228D01*
X642400Y570299D02*
X644066D01*
X643233D01*
Y567800D01*
X645316D02*
X646149D01*
X646565Y568216D01*
Y569050D01*
X646149Y569466D01*
X645316D01*
X644899Y569050D01*
Y568216D01*
X645316Y567800D01*
X647399Y569466D02*
Y568216D01*
X647815Y567800D01*
X649065D01*
Y569466D01*
X649898Y570299D02*
Y569883D01*
X650731Y569050D01*
X651564Y569883D01*
Y570299D01*
X650731Y569050D02*
Y567800D01*
X652397Y569466D02*
Y568216D01*
X652813Y567800D01*
X654063D01*
Y569466D01*
X654896Y567800D02*
Y569466D01*
X656146D01*
X656562Y569050D01*
Y567800D01*
X659061Y569883D02*
X658645Y570299D01*
X657812D01*
X657395Y569883D01*
Y568216D01*
X657812Y567800D01*
X658645D01*
X659061Y568216D01*
Y569050D01*
X658228D01*
X642400Y650299D02*
X644066D01*
X643233D01*
Y647800D01*
X645316D02*
X646149D01*
X646565Y648216D01*
Y649050D01*
X646149Y649466D01*
X645316D01*
X644899Y649050D01*
Y648216D01*
X645316Y647800D01*
X647399Y649466D02*
Y648216D01*
X647815Y647800D01*
X649065D01*
Y649466D01*
X649898Y650299D02*
Y649883D01*
X650731Y649050D01*
X651564Y649883D01*
Y650299D01*
X650731Y649050D02*
Y647800D01*
X652397Y649466D02*
Y648216D01*
X652813Y647800D01*
X654063D01*
Y649466D01*
X654896Y647800D02*
Y649466D01*
X656146D01*
X656562Y649050D01*
Y647800D01*
X659061Y649883D02*
X658645Y650299D01*
X657812D01*
X657395Y649883D01*
Y648216D01*
X657812Y647800D01*
X658645D01*
X659061Y648216D01*
Y649050D01*
X658228D01*
X642400Y730299D02*
X644066D01*
X643233D01*
Y727800D01*
X645316D02*
X646149D01*
X646565Y728216D01*
Y729049D01*
X646149Y729466D01*
X645316D01*
X644899Y729049D01*
Y728216D01*
X645316Y727800D01*
X647399Y729466D02*
Y728216D01*
X647815Y727800D01*
X649065D01*
Y729466D01*
X649898Y730299D02*
Y729883D01*
X650731Y729049D01*
X651564Y729883D01*
Y730299D01*
X650731Y729049D02*
Y727800D01*
X652397Y729466D02*
Y728216D01*
X652813Y727800D01*
X654063D01*
Y729466D01*
X654896Y727800D02*
Y729466D01*
X656146D01*
X656562Y729049D01*
Y727800D01*
X659061Y729883D02*
X658645Y730299D01*
X657812D01*
X657395Y729883D01*
Y728216D01*
X657812Y727800D01*
X658645D01*
X659061Y728216D01*
Y729049D01*
X658228D01*
X642400Y810299D02*
X644066D01*
X643233D01*
Y807800D01*
X645316D02*
X646149D01*
X646565Y808216D01*
Y809050D01*
X646149Y809466D01*
X645316D01*
X644899Y809050D01*
Y808216D01*
X645316Y807800D01*
X647399Y809466D02*
Y808216D01*
X647815Y807800D01*
X649065D01*
Y809466D01*
X649898Y810299D02*
Y809883D01*
X650731Y809050D01*
X651564Y809883D01*
Y810299D01*
X650731Y809050D02*
Y807800D01*
X652397Y809466D02*
Y808216D01*
X652813Y807800D01*
X654063D01*
Y809466D01*
X654896Y807800D02*
Y809466D01*
X656146D01*
X656562Y809050D01*
Y807800D01*
X659061Y809883D02*
X658645Y810299D01*
X657812D01*
X657395Y809883D01*
Y808216D01*
X657812Y807800D01*
X658645D01*
X659061Y808216D01*
Y809050D01*
X658228D01*
X642400Y890299D02*
X644066D01*
X643233D01*
Y887800D01*
X645316D02*
X646149D01*
X646565Y888216D01*
Y889050D01*
X646149Y889466D01*
X645316D01*
X644899Y889050D01*
Y888216D01*
X645316Y887800D01*
X647399Y889466D02*
Y888216D01*
X647815Y887800D01*
X649065D01*
Y889466D01*
X649898Y890299D02*
Y889883D01*
X650731Y889050D01*
X651564Y889883D01*
Y890299D01*
X650731Y889050D02*
Y887800D01*
X652397Y889466D02*
Y888216D01*
X652813Y887800D01*
X654063D01*
Y889466D01*
X654896Y887800D02*
Y889466D01*
X656146D01*
X656562Y889050D01*
Y887800D01*
X659061Y889883D02*
X658645Y890299D01*
X657812D01*
X657395Y889883D01*
Y888216D01*
X657812Y887800D01*
X658645D01*
X659061Y888216D01*
Y889050D01*
X658228D01*
X642400Y970299D02*
X644066D01*
X643233D01*
Y967800D01*
X645316D02*
X646149D01*
X646565Y968216D01*
Y969049D01*
X646149Y969466D01*
X645316D01*
X644899Y969049D01*
Y968216D01*
X645316Y967800D01*
X647399Y969466D02*
Y968216D01*
X647815Y967800D01*
X649065D01*
Y969466D01*
X649898Y970299D02*
Y969883D01*
X650731Y969049D01*
X651564Y969883D01*
Y970299D01*
X650731Y969049D02*
Y967800D01*
X652397Y969466D02*
Y968216D01*
X652813Y967800D01*
X654063D01*
Y969466D01*
X654896Y967800D02*
Y969466D01*
X656146D01*
X656562Y969049D01*
Y967800D01*
X659061Y969883D02*
X658645Y970299D01*
X657812D01*
X657395Y969883D01*
Y968216D01*
X657812Y967800D01*
X658645D01*
X659061Y968216D01*
Y969049D01*
X658228D01*
D23*
X36000Y59000D02*
D03*
X36000Y139000D02*
D03*
Y219000D02*
D03*
Y299000D02*
D03*
Y379000D02*
D03*
Y459000D02*
D03*
Y539000D02*
D03*
Y619000D02*
D03*
Y699000D02*
D03*
Y779000D02*
D03*
Y859000D02*
D03*
Y939000D02*
D03*
Y1019000D02*
D03*
X136000Y59000D02*
D03*
X136000Y139000D02*
D03*
Y219000D02*
D03*
Y299000D02*
D03*
Y379000D02*
D03*
Y459000D02*
D03*
Y539000D02*
D03*
Y619000D02*
D03*
Y699000D02*
D03*
Y779000D02*
D03*
Y859000D02*
D03*
Y939000D02*
D03*
Y1019000D02*
D03*
X236000Y59000D02*
D03*
X236000Y139000D02*
D03*
Y219000D02*
D03*
Y299000D02*
D03*
Y379000D02*
D03*
Y459000D02*
D03*
Y539000D02*
D03*
Y619000D02*
D03*
Y699000D02*
D03*
Y779000D02*
D03*
Y859000D02*
D03*
Y939000D02*
D03*
Y1019000D02*
D03*
X336000Y59000D02*
D03*
X336000Y139000D02*
D03*
Y219000D02*
D03*
Y299000D02*
D03*
Y379000D02*
D03*
Y459000D02*
D03*
Y539000D02*
D03*
Y619000D02*
D03*
Y699000D02*
D03*
Y779000D02*
D03*
Y859000D02*
D03*
Y939000D02*
D03*
Y1019000D02*
D03*
X436000Y59000D02*
D03*
X436000Y139000D02*
D03*
Y219000D02*
D03*
Y299000D02*
D03*
Y379000D02*
D03*
Y459000D02*
D03*
Y539000D02*
D03*
Y619000D02*
D03*
Y699000D02*
D03*
Y779000D02*
D03*
Y859000D02*
D03*
Y939000D02*
D03*
Y1019000D02*
D03*
X536000Y59000D02*
D03*
X536000Y139000D02*
D03*
Y219000D02*
D03*
Y299000D02*
D03*
Y379000D02*
D03*
Y459000D02*
D03*
Y539000D02*
D03*
Y619000D02*
D03*
Y699000D02*
D03*
Y779000D02*
D03*
Y859000D02*
D03*
Y939000D02*
D03*
Y1019000D02*
D03*
X636000Y59000D02*
D03*
X636000Y139000D02*
D03*
Y219000D02*
D03*
Y299000D02*
D03*
Y379000D02*
D03*
Y459000D02*
D03*
Y539000D02*
D03*
Y619000D02*
D03*
Y699000D02*
D03*
Y779000D02*
D03*
Y859000D02*
D03*
Y939000D02*
D03*
Y1019000D02*
D03*
M02*
