G04 Layer_Color=8421504*
%FSLAX25Y25*%
%MOIN*%
G70*
G01*
G75*
%ADD10R,0.07700X0.04200*%
D10*
X21300Y10400D02*
D03*
Y18300D02*
D03*
Y26100D02*
D03*
Y34000D02*
D03*
Y41937D02*
D03*
Y49811D02*
D03*
Y57685D02*
D03*
Y65559D02*
D03*
X79634D02*
D03*
Y57685D02*
D03*
Y49811D02*
D03*
Y41937D02*
D03*
Y34000D02*
D03*
Y26100D02*
D03*
Y18300D02*
D03*
Y10400D02*
D03*
X79634Y90400D02*
D03*
Y98300D02*
D03*
Y106100D02*
D03*
Y114000D02*
D03*
Y121937D02*
D03*
Y129811D02*
D03*
Y137685D02*
D03*
Y145559D02*
D03*
X21300D02*
D03*
Y137685D02*
D03*
Y129811D02*
D03*
Y121937D02*
D03*
Y114000D02*
D03*
Y106100D02*
D03*
Y98300D02*
D03*
Y90400D02*
D03*
X79634Y170400D02*
D03*
Y178300D02*
D03*
Y186100D02*
D03*
Y194000D02*
D03*
Y201937D02*
D03*
Y209811D02*
D03*
Y217685D02*
D03*
Y225559D02*
D03*
X21300D02*
D03*
Y217685D02*
D03*
Y209811D02*
D03*
Y201937D02*
D03*
Y194000D02*
D03*
Y186100D02*
D03*
Y178300D02*
D03*
Y170400D02*
D03*
X79634Y250400D02*
D03*
Y258300D02*
D03*
Y266100D02*
D03*
Y274000D02*
D03*
Y281937D02*
D03*
Y289811D02*
D03*
Y297685D02*
D03*
Y305559D02*
D03*
X21300D02*
D03*
Y297685D02*
D03*
Y289811D02*
D03*
Y281937D02*
D03*
Y274000D02*
D03*
Y266100D02*
D03*
Y258300D02*
D03*
Y250400D02*
D03*
X79634Y330400D02*
D03*
Y338300D02*
D03*
Y346100D02*
D03*
Y354000D02*
D03*
Y361937D02*
D03*
Y369811D02*
D03*
Y377685D02*
D03*
Y385559D02*
D03*
X21300D02*
D03*
Y377685D02*
D03*
Y369811D02*
D03*
Y361937D02*
D03*
Y354000D02*
D03*
Y346100D02*
D03*
Y338300D02*
D03*
Y330400D02*
D03*
X79634Y410400D02*
D03*
Y418300D02*
D03*
Y426100D02*
D03*
Y434000D02*
D03*
Y441937D02*
D03*
Y449811D02*
D03*
Y457685D02*
D03*
Y465559D02*
D03*
X21300D02*
D03*
Y457685D02*
D03*
Y449811D02*
D03*
Y441937D02*
D03*
Y434000D02*
D03*
Y426100D02*
D03*
Y418300D02*
D03*
Y410400D02*
D03*
X79634Y490400D02*
D03*
Y498300D02*
D03*
Y506100D02*
D03*
Y514000D02*
D03*
Y521937D02*
D03*
Y529811D02*
D03*
Y537685D02*
D03*
Y545559D02*
D03*
X21300D02*
D03*
Y537685D02*
D03*
Y529811D02*
D03*
Y521937D02*
D03*
Y514000D02*
D03*
Y506100D02*
D03*
Y498300D02*
D03*
Y490400D02*
D03*
X79634Y570400D02*
D03*
Y578300D02*
D03*
Y586100D02*
D03*
Y594000D02*
D03*
Y601937D02*
D03*
Y609811D02*
D03*
Y617685D02*
D03*
Y625559D02*
D03*
X21300D02*
D03*
Y617685D02*
D03*
Y609811D02*
D03*
Y601937D02*
D03*
Y594000D02*
D03*
Y586100D02*
D03*
Y578300D02*
D03*
Y570400D02*
D03*
X79634Y650400D02*
D03*
Y658300D02*
D03*
Y666100D02*
D03*
Y674000D02*
D03*
Y681937D02*
D03*
Y689811D02*
D03*
Y697685D02*
D03*
Y705559D02*
D03*
X21300D02*
D03*
Y697685D02*
D03*
Y689811D02*
D03*
Y681937D02*
D03*
Y674000D02*
D03*
Y666100D02*
D03*
Y658300D02*
D03*
Y650400D02*
D03*
X79634Y730400D02*
D03*
Y738300D02*
D03*
Y746100D02*
D03*
Y754000D02*
D03*
Y761937D02*
D03*
Y769811D02*
D03*
Y777685D02*
D03*
Y785559D02*
D03*
X21300D02*
D03*
Y777685D02*
D03*
Y769811D02*
D03*
Y761937D02*
D03*
Y754000D02*
D03*
Y746100D02*
D03*
Y738300D02*
D03*
Y730400D02*
D03*
X79634Y810400D02*
D03*
Y818300D02*
D03*
Y826100D02*
D03*
Y834000D02*
D03*
Y841937D02*
D03*
Y849811D02*
D03*
Y857685D02*
D03*
Y865559D02*
D03*
X21300D02*
D03*
Y857685D02*
D03*
Y849811D02*
D03*
Y841937D02*
D03*
Y834000D02*
D03*
Y826100D02*
D03*
Y818300D02*
D03*
Y810400D02*
D03*
X79634Y890400D02*
D03*
Y898300D02*
D03*
Y906100D02*
D03*
Y914000D02*
D03*
Y921937D02*
D03*
Y929811D02*
D03*
Y937685D02*
D03*
Y945559D02*
D03*
X21300D02*
D03*
Y937685D02*
D03*
Y929811D02*
D03*
Y921937D02*
D03*
Y914000D02*
D03*
Y906100D02*
D03*
Y898300D02*
D03*
Y890400D02*
D03*
X79634Y970400D02*
D03*
Y978300D02*
D03*
Y986100D02*
D03*
Y994000D02*
D03*
Y1001937D02*
D03*
Y1009811D02*
D03*
Y1017685D02*
D03*
Y1025559D02*
D03*
X21300D02*
D03*
Y1017685D02*
D03*
Y1009811D02*
D03*
Y1001937D02*
D03*
Y994000D02*
D03*
Y986100D02*
D03*
Y978300D02*
D03*
Y970400D02*
D03*
X179634Y10400D02*
D03*
Y18300D02*
D03*
Y26100D02*
D03*
Y34000D02*
D03*
Y41937D02*
D03*
Y49811D02*
D03*
Y57685D02*
D03*
Y65559D02*
D03*
X121300D02*
D03*
Y57685D02*
D03*
Y49811D02*
D03*
Y41937D02*
D03*
Y34000D02*
D03*
Y26100D02*
D03*
Y18300D02*
D03*
Y10400D02*
D03*
X121300Y90400D02*
D03*
Y98300D02*
D03*
Y106100D02*
D03*
Y114000D02*
D03*
Y121937D02*
D03*
Y129811D02*
D03*
Y137685D02*
D03*
Y145559D02*
D03*
X179634D02*
D03*
Y137685D02*
D03*
Y129811D02*
D03*
Y121937D02*
D03*
Y114000D02*
D03*
Y106100D02*
D03*
Y98300D02*
D03*
Y90400D02*
D03*
X121300Y170400D02*
D03*
Y178300D02*
D03*
Y186100D02*
D03*
Y194000D02*
D03*
Y201937D02*
D03*
Y209811D02*
D03*
Y217685D02*
D03*
Y225559D02*
D03*
X179634D02*
D03*
Y217685D02*
D03*
Y209811D02*
D03*
Y201937D02*
D03*
Y194000D02*
D03*
Y186100D02*
D03*
Y178300D02*
D03*
Y170400D02*
D03*
X121300Y250400D02*
D03*
Y258300D02*
D03*
Y266100D02*
D03*
Y274000D02*
D03*
Y281937D02*
D03*
Y289811D02*
D03*
Y297685D02*
D03*
Y305559D02*
D03*
X179634D02*
D03*
Y297685D02*
D03*
Y289811D02*
D03*
Y281937D02*
D03*
Y274000D02*
D03*
Y266100D02*
D03*
Y258300D02*
D03*
Y250400D02*
D03*
X121300Y330400D02*
D03*
Y338300D02*
D03*
Y346100D02*
D03*
Y354000D02*
D03*
Y361937D02*
D03*
Y369811D02*
D03*
Y377685D02*
D03*
Y385559D02*
D03*
X179634D02*
D03*
Y377685D02*
D03*
Y369811D02*
D03*
Y361937D02*
D03*
Y354000D02*
D03*
Y346100D02*
D03*
Y338300D02*
D03*
Y330400D02*
D03*
X121300Y410400D02*
D03*
Y418300D02*
D03*
Y426100D02*
D03*
Y434000D02*
D03*
Y441937D02*
D03*
Y449811D02*
D03*
Y457685D02*
D03*
Y465559D02*
D03*
X179634D02*
D03*
Y457685D02*
D03*
Y449811D02*
D03*
Y441937D02*
D03*
Y434000D02*
D03*
Y426100D02*
D03*
Y418300D02*
D03*
Y410400D02*
D03*
X121300Y490400D02*
D03*
Y498300D02*
D03*
Y506100D02*
D03*
Y514000D02*
D03*
Y521937D02*
D03*
Y529811D02*
D03*
Y537685D02*
D03*
Y545559D02*
D03*
X179634D02*
D03*
Y537685D02*
D03*
Y529811D02*
D03*
Y521937D02*
D03*
Y514000D02*
D03*
Y506100D02*
D03*
Y498300D02*
D03*
Y490400D02*
D03*
X121300Y570400D02*
D03*
Y578300D02*
D03*
Y586100D02*
D03*
Y594000D02*
D03*
Y601937D02*
D03*
Y609811D02*
D03*
Y617685D02*
D03*
Y625559D02*
D03*
X179634D02*
D03*
Y617685D02*
D03*
Y609811D02*
D03*
Y601937D02*
D03*
Y594000D02*
D03*
Y586100D02*
D03*
Y578300D02*
D03*
Y570400D02*
D03*
X121300Y650400D02*
D03*
Y658300D02*
D03*
Y666100D02*
D03*
Y674000D02*
D03*
Y681937D02*
D03*
Y689811D02*
D03*
Y697685D02*
D03*
Y705559D02*
D03*
X179634D02*
D03*
Y697685D02*
D03*
Y689811D02*
D03*
Y681937D02*
D03*
Y674000D02*
D03*
Y666100D02*
D03*
Y658300D02*
D03*
Y650400D02*
D03*
X121300Y730400D02*
D03*
Y738300D02*
D03*
Y746100D02*
D03*
Y754000D02*
D03*
Y761937D02*
D03*
Y769811D02*
D03*
Y777685D02*
D03*
Y785559D02*
D03*
X179634D02*
D03*
Y777685D02*
D03*
Y769811D02*
D03*
Y761937D02*
D03*
Y754000D02*
D03*
Y746100D02*
D03*
Y738300D02*
D03*
Y730400D02*
D03*
X121300Y810400D02*
D03*
Y818300D02*
D03*
Y826100D02*
D03*
Y834000D02*
D03*
Y841937D02*
D03*
Y849811D02*
D03*
Y857685D02*
D03*
Y865559D02*
D03*
X179634D02*
D03*
Y857685D02*
D03*
Y849811D02*
D03*
Y841937D02*
D03*
Y834000D02*
D03*
Y826100D02*
D03*
Y818300D02*
D03*
Y810400D02*
D03*
X121300Y890400D02*
D03*
Y898300D02*
D03*
Y906100D02*
D03*
Y914000D02*
D03*
Y921937D02*
D03*
Y929811D02*
D03*
Y937685D02*
D03*
Y945559D02*
D03*
X179634D02*
D03*
Y937685D02*
D03*
Y929811D02*
D03*
Y921937D02*
D03*
Y914000D02*
D03*
Y906100D02*
D03*
Y898300D02*
D03*
Y890400D02*
D03*
X121300Y970400D02*
D03*
Y978300D02*
D03*
Y986100D02*
D03*
Y994000D02*
D03*
Y1001937D02*
D03*
Y1009811D02*
D03*
Y1017685D02*
D03*
Y1025559D02*
D03*
X179634D02*
D03*
Y1017685D02*
D03*
Y1009811D02*
D03*
Y1001937D02*
D03*
Y994000D02*
D03*
Y986100D02*
D03*
Y978300D02*
D03*
Y970400D02*
D03*
X279634Y10400D02*
D03*
Y18300D02*
D03*
Y26100D02*
D03*
Y34000D02*
D03*
Y41937D02*
D03*
Y49811D02*
D03*
Y57685D02*
D03*
Y65559D02*
D03*
X221300D02*
D03*
Y57685D02*
D03*
Y49811D02*
D03*
Y41937D02*
D03*
Y34000D02*
D03*
Y26100D02*
D03*
Y18300D02*
D03*
Y10400D02*
D03*
X221300Y90400D02*
D03*
Y98300D02*
D03*
Y106100D02*
D03*
Y114000D02*
D03*
Y121937D02*
D03*
Y129811D02*
D03*
Y137685D02*
D03*
Y145559D02*
D03*
X279634D02*
D03*
Y137685D02*
D03*
Y129811D02*
D03*
Y121937D02*
D03*
Y114000D02*
D03*
Y106100D02*
D03*
Y98300D02*
D03*
Y90400D02*
D03*
X221300Y170400D02*
D03*
Y178300D02*
D03*
Y186100D02*
D03*
Y194000D02*
D03*
Y201937D02*
D03*
Y209811D02*
D03*
Y217685D02*
D03*
Y225559D02*
D03*
X279634D02*
D03*
Y217685D02*
D03*
Y209811D02*
D03*
Y201937D02*
D03*
Y194000D02*
D03*
Y186100D02*
D03*
Y178300D02*
D03*
Y170400D02*
D03*
X221300Y250400D02*
D03*
Y258300D02*
D03*
Y266100D02*
D03*
Y274000D02*
D03*
Y281937D02*
D03*
Y289811D02*
D03*
Y297685D02*
D03*
Y305559D02*
D03*
X279634D02*
D03*
Y297685D02*
D03*
Y289811D02*
D03*
Y281937D02*
D03*
Y274000D02*
D03*
Y266100D02*
D03*
Y258300D02*
D03*
Y250400D02*
D03*
X221300Y330400D02*
D03*
Y338300D02*
D03*
Y346100D02*
D03*
Y354000D02*
D03*
Y361937D02*
D03*
Y369811D02*
D03*
Y377685D02*
D03*
Y385559D02*
D03*
X279634D02*
D03*
Y377685D02*
D03*
Y369811D02*
D03*
Y361937D02*
D03*
Y354000D02*
D03*
Y346100D02*
D03*
Y338300D02*
D03*
Y330400D02*
D03*
X221300Y410400D02*
D03*
Y418300D02*
D03*
Y426100D02*
D03*
Y434000D02*
D03*
Y441937D02*
D03*
Y449811D02*
D03*
Y457685D02*
D03*
Y465559D02*
D03*
X279634D02*
D03*
Y457685D02*
D03*
Y449811D02*
D03*
Y441937D02*
D03*
Y434000D02*
D03*
Y426100D02*
D03*
Y418300D02*
D03*
Y410400D02*
D03*
X221300Y490400D02*
D03*
Y498300D02*
D03*
Y506100D02*
D03*
Y514000D02*
D03*
Y521937D02*
D03*
Y529811D02*
D03*
Y537685D02*
D03*
Y545559D02*
D03*
X279634D02*
D03*
Y537685D02*
D03*
Y529811D02*
D03*
Y521937D02*
D03*
Y514000D02*
D03*
Y506100D02*
D03*
Y498300D02*
D03*
Y490400D02*
D03*
X221300Y570400D02*
D03*
Y578300D02*
D03*
Y586100D02*
D03*
Y594000D02*
D03*
Y601937D02*
D03*
Y609811D02*
D03*
Y617685D02*
D03*
Y625559D02*
D03*
X279634D02*
D03*
Y617685D02*
D03*
Y609811D02*
D03*
Y601937D02*
D03*
Y594000D02*
D03*
Y586100D02*
D03*
Y578300D02*
D03*
Y570400D02*
D03*
X221300Y650400D02*
D03*
Y658300D02*
D03*
Y666100D02*
D03*
Y674000D02*
D03*
Y681937D02*
D03*
Y689811D02*
D03*
Y697685D02*
D03*
Y705559D02*
D03*
X279634D02*
D03*
Y697685D02*
D03*
Y689811D02*
D03*
Y681937D02*
D03*
Y674000D02*
D03*
Y666100D02*
D03*
Y658300D02*
D03*
Y650400D02*
D03*
X221300Y730400D02*
D03*
Y738300D02*
D03*
Y746100D02*
D03*
Y754000D02*
D03*
Y761937D02*
D03*
Y769811D02*
D03*
Y777685D02*
D03*
Y785559D02*
D03*
X279634D02*
D03*
Y777685D02*
D03*
Y769811D02*
D03*
Y761937D02*
D03*
Y754000D02*
D03*
Y746100D02*
D03*
Y738300D02*
D03*
Y730400D02*
D03*
X221300Y810400D02*
D03*
Y818300D02*
D03*
Y826100D02*
D03*
Y834000D02*
D03*
Y841937D02*
D03*
Y849811D02*
D03*
Y857685D02*
D03*
Y865559D02*
D03*
X279634D02*
D03*
Y857685D02*
D03*
Y849811D02*
D03*
Y841937D02*
D03*
Y834000D02*
D03*
Y826100D02*
D03*
Y818300D02*
D03*
Y810400D02*
D03*
X221300Y890400D02*
D03*
Y898300D02*
D03*
Y906100D02*
D03*
Y914000D02*
D03*
Y921937D02*
D03*
Y929811D02*
D03*
Y937685D02*
D03*
Y945559D02*
D03*
X279634D02*
D03*
Y937685D02*
D03*
Y929811D02*
D03*
Y921937D02*
D03*
Y914000D02*
D03*
Y906100D02*
D03*
Y898300D02*
D03*
Y890400D02*
D03*
X221300Y970400D02*
D03*
Y978300D02*
D03*
Y986100D02*
D03*
Y994000D02*
D03*
Y1001937D02*
D03*
Y1009811D02*
D03*
Y1017685D02*
D03*
Y1025559D02*
D03*
X279634D02*
D03*
Y1017685D02*
D03*
Y1009811D02*
D03*
Y1001937D02*
D03*
Y994000D02*
D03*
Y986100D02*
D03*
Y978300D02*
D03*
Y970400D02*
D03*
X321300Y10400D02*
D03*
Y18300D02*
D03*
Y26100D02*
D03*
Y34000D02*
D03*
Y41937D02*
D03*
Y49811D02*
D03*
Y57685D02*
D03*
Y65559D02*
D03*
X379634D02*
D03*
Y57685D02*
D03*
Y49811D02*
D03*
Y41937D02*
D03*
Y34000D02*
D03*
Y26100D02*
D03*
Y18300D02*
D03*
Y10400D02*
D03*
X379634Y90400D02*
D03*
Y98300D02*
D03*
Y106100D02*
D03*
Y114000D02*
D03*
Y121937D02*
D03*
Y129811D02*
D03*
Y137685D02*
D03*
Y145559D02*
D03*
X321300D02*
D03*
Y137685D02*
D03*
Y129811D02*
D03*
Y121937D02*
D03*
Y114000D02*
D03*
Y106100D02*
D03*
Y98300D02*
D03*
Y90400D02*
D03*
X379634Y170400D02*
D03*
Y178300D02*
D03*
Y186100D02*
D03*
Y194000D02*
D03*
Y201937D02*
D03*
Y209811D02*
D03*
Y217685D02*
D03*
Y225559D02*
D03*
X321300D02*
D03*
Y217685D02*
D03*
Y209811D02*
D03*
Y201937D02*
D03*
Y194000D02*
D03*
Y186100D02*
D03*
Y178300D02*
D03*
Y170400D02*
D03*
X379634Y250400D02*
D03*
Y258300D02*
D03*
Y266100D02*
D03*
Y274000D02*
D03*
Y281937D02*
D03*
Y289811D02*
D03*
Y297685D02*
D03*
Y305559D02*
D03*
X321300D02*
D03*
Y297685D02*
D03*
Y289811D02*
D03*
Y281937D02*
D03*
Y274000D02*
D03*
Y266100D02*
D03*
Y258300D02*
D03*
Y250400D02*
D03*
X379634Y330400D02*
D03*
Y338300D02*
D03*
Y346100D02*
D03*
Y354000D02*
D03*
Y361937D02*
D03*
Y369811D02*
D03*
Y377685D02*
D03*
Y385559D02*
D03*
X321300D02*
D03*
Y377685D02*
D03*
Y369811D02*
D03*
Y361937D02*
D03*
Y354000D02*
D03*
Y346100D02*
D03*
Y338300D02*
D03*
Y330400D02*
D03*
X379634Y410400D02*
D03*
Y418300D02*
D03*
Y426100D02*
D03*
Y434000D02*
D03*
Y441937D02*
D03*
Y449811D02*
D03*
Y457685D02*
D03*
Y465559D02*
D03*
X321300D02*
D03*
Y457685D02*
D03*
Y449811D02*
D03*
Y441937D02*
D03*
Y434000D02*
D03*
Y426100D02*
D03*
Y418300D02*
D03*
Y410400D02*
D03*
X379634Y490400D02*
D03*
Y498300D02*
D03*
Y506100D02*
D03*
Y514000D02*
D03*
Y521937D02*
D03*
Y529811D02*
D03*
Y537685D02*
D03*
Y545559D02*
D03*
X321300D02*
D03*
Y537685D02*
D03*
Y529811D02*
D03*
Y521937D02*
D03*
Y514000D02*
D03*
Y506100D02*
D03*
Y498300D02*
D03*
Y490400D02*
D03*
X379634Y570400D02*
D03*
Y578300D02*
D03*
Y586100D02*
D03*
Y594000D02*
D03*
Y601937D02*
D03*
Y609811D02*
D03*
Y617685D02*
D03*
Y625559D02*
D03*
X321300D02*
D03*
Y617685D02*
D03*
Y609811D02*
D03*
Y601937D02*
D03*
Y594000D02*
D03*
Y586100D02*
D03*
Y578300D02*
D03*
Y570400D02*
D03*
X379634Y650400D02*
D03*
Y658300D02*
D03*
Y666100D02*
D03*
Y674000D02*
D03*
Y681937D02*
D03*
Y689811D02*
D03*
Y697685D02*
D03*
Y705559D02*
D03*
X321300D02*
D03*
Y697685D02*
D03*
Y689811D02*
D03*
Y681937D02*
D03*
Y674000D02*
D03*
Y666100D02*
D03*
Y658300D02*
D03*
Y650400D02*
D03*
X379634Y730400D02*
D03*
Y738300D02*
D03*
Y746100D02*
D03*
Y754000D02*
D03*
Y761937D02*
D03*
Y769811D02*
D03*
Y777685D02*
D03*
Y785559D02*
D03*
X321300D02*
D03*
Y777685D02*
D03*
Y769811D02*
D03*
Y761937D02*
D03*
Y754000D02*
D03*
Y746100D02*
D03*
Y738300D02*
D03*
Y730400D02*
D03*
X379634Y810400D02*
D03*
Y818300D02*
D03*
Y826100D02*
D03*
Y834000D02*
D03*
Y841937D02*
D03*
Y849811D02*
D03*
Y857685D02*
D03*
Y865559D02*
D03*
X321300D02*
D03*
Y857685D02*
D03*
Y849811D02*
D03*
Y841937D02*
D03*
Y834000D02*
D03*
Y826100D02*
D03*
Y818300D02*
D03*
Y810400D02*
D03*
X379634Y890400D02*
D03*
Y898300D02*
D03*
Y906100D02*
D03*
Y914000D02*
D03*
Y921937D02*
D03*
Y929811D02*
D03*
Y937685D02*
D03*
Y945559D02*
D03*
X321300D02*
D03*
Y937685D02*
D03*
Y929811D02*
D03*
Y921937D02*
D03*
Y914000D02*
D03*
Y906100D02*
D03*
Y898300D02*
D03*
Y890400D02*
D03*
X379634Y970400D02*
D03*
Y978300D02*
D03*
Y986100D02*
D03*
Y994000D02*
D03*
Y1001937D02*
D03*
Y1009811D02*
D03*
Y1017685D02*
D03*
Y1025559D02*
D03*
X321300D02*
D03*
Y1017685D02*
D03*
Y1009811D02*
D03*
Y1001937D02*
D03*
Y994000D02*
D03*
Y986100D02*
D03*
Y978300D02*
D03*
Y970400D02*
D03*
X479634Y10400D02*
D03*
Y18300D02*
D03*
Y26100D02*
D03*
Y34000D02*
D03*
Y41937D02*
D03*
Y49811D02*
D03*
Y57685D02*
D03*
Y65559D02*
D03*
X421300D02*
D03*
Y57685D02*
D03*
Y49811D02*
D03*
Y41937D02*
D03*
Y34000D02*
D03*
Y26100D02*
D03*
Y18300D02*
D03*
Y10400D02*
D03*
X421300Y90400D02*
D03*
Y98300D02*
D03*
Y106100D02*
D03*
Y114000D02*
D03*
Y121937D02*
D03*
Y129811D02*
D03*
Y137685D02*
D03*
Y145559D02*
D03*
X479634D02*
D03*
Y137685D02*
D03*
Y129811D02*
D03*
Y121937D02*
D03*
Y114000D02*
D03*
Y106100D02*
D03*
Y98300D02*
D03*
Y90400D02*
D03*
X421300Y170400D02*
D03*
Y178300D02*
D03*
Y186100D02*
D03*
Y194000D02*
D03*
Y201937D02*
D03*
Y209811D02*
D03*
Y217685D02*
D03*
Y225559D02*
D03*
X479634D02*
D03*
Y217685D02*
D03*
Y209811D02*
D03*
Y201937D02*
D03*
Y194000D02*
D03*
Y186100D02*
D03*
Y178300D02*
D03*
Y170400D02*
D03*
X421300Y250400D02*
D03*
Y258300D02*
D03*
Y266100D02*
D03*
Y274000D02*
D03*
Y281937D02*
D03*
Y289811D02*
D03*
Y297685D02*
D03*
Y305559D02*
D03*
X479634D02*
D03*
Y297685D02*
D03*
Y289811D02*
D03*
Y281937D02*
D03*
Y274000D02*
D03*
Y266100D02*
D03*
Y258300D02*
D03*
Y250400D02*
D03*
X421300Y330400D02*
D03*
Y338300D02*
D03*
Y346100D02*
D03*
Y354000D02*
D03*
Y361937D02*
D03*
Y369811D02*
D03*
Y377685D02*
D03*
Y385559D02*
D03*
X479634D02*
D03*
Y377685D02*
D03*
Y369811D02*
D03*
Y361937D02*
D03*
Y354000D02*
D03*
Y346100D02*
D03*
Y338300D02*
D03*
Y330400D02*
D03*
X421300Y410400D02*
D03*
Y418300D02*
D03*
Y426100D02*
D03*
Y434000D02*
D03*
Y441937D02*
D03*
Y449811D02*
D03*
Y457685D02*
D03*
Y465559D02*
D03*
X479634D02*
D03*
Y457685D02*
D03*
Y449811D02*
D03*
Y441937D02*
D03*
Y434000D02*
D03*
Y426100D02*
D03*
Y418300D02*
D03*
Y410400D02*
D03*
X421300Y490400D02*
D03*
Y498300D02*
D03*
Y506100D02*
D03*
Y514000D02*
D03*
Y521937D02*
D03*
Y529811D02*
D03*
Y537685D02*
D03*
Y545559D02*
D03*
X479634D02*
D03*
Y537685D02*
D03*
Y529811D02*
D03*
Y521937D02*
D03*
Y514000D02*
D03*
Y506100D02*
D03*
Y498300D02*
D03*
Y490400D02*
D03*
X421300Y570400D02*
D03*
Y578300D02*
D03*
Y586100D02*
D03*
Y594000D02*
D03*
Y601937D02*
D03*
Y609811D02*
D03*
Y617685D02*
D03*
Y625559D02*
D03*
X479634D02*
D03*
Y617685D02*
D03*
Y609811D02*
D03*
Y601937D02*
D03*
Y594000D02*
D03*
Y586100D02*
D03*
Y578300D02*
D03*
Y570400D02*
D03*
X421300Y650400D02*
D03*
Y658300D02*
D03*
Y666100D02*
D03*
Y674000D02*
D03*
Y681937D02*
D03*
Y689811D02*
D03*
Y697685D02*
D03*
Y705559D02*
D03*
X479634D02*
D03*
Y697685D02*
D03*
Y689811D02*
D03*
Y681937D02*
D03*
Y674000D02*
D03*
Y666100D02*
D03*
Y658300D02*
D03*
Y650400D02*
D03*
X421300Y730400D02*
D03*
Y738300D02*
D03*
Y746100D02*
D03*
Y754000D02*
D03*
Y761937D02*
D03*
Y769811D02*
D03*
Y777685D02*
D03*
Y785559D02*
D03*
X479634D02*
D03*
Y777685D02*
D03*
Y769811D02*
D03*
Y761937D02*
D03*
Y754000D02*
D03*
Y746100D02*
D03*
Y738300D02*
D03*
Y730400D02*
D03*
X421300Y810400D02*
D03*
Y818300D02*
D03*
Y826100D02*
D03*
Y834000D02*
D03*
Y841937D02*
D03*
Y849811D02*
D03*
Y857685D02*
D03*
Y865559D02*
D03*
X479634D02*
D03*
Y857685D02*
D03*
Y849811D02*
D03*
Y841937D02*
D03*
Y834000D02*
D03*
Y826100D02*
D03*
Y818300D02*
D03*
Y810400D02*
D03*
X421300Y890400D02*
D03*
Y898300D02*
D03*
Y906100D02*
D03*
Y914000D02*
D03*
Y921937D02*
D03*
Y929811D02*
D03*
Y937685D02*
D03*
Y945559D02*
D03*
X479634D02*
D03*
Y937685D02*
D03*
Y929811D02*
D03*
Y921937D02*
D03*
Y914000D02*
D03*
Y906100D02*
D03*
Y898300D02*
D03*
Y890400D02*
D03*
X421300Y970400D02*
D03*
Y978300D02*
D03*
Y986100D02*
D03*
Y994000D02*
D03*
Y1001937D02*
D03*
Y1009811D02*
D03*
Y1017685D02*
D03*
Y1025559D02*
D03*
X479634D02*
D03*
Y1017685D02*
D03*
Y1009811D02*
D03*
Y1001937D02*
D03*
Y994000D02*
D03*
Y986100D02*
D03*
Y978300D02*
D03*
Y970400D02*
D03*
X521300Y10400D02*
D03*
Y18300D02*
D03*
Y26100D02*
D03*
Y34000D02*
D03*
Y41937D02*
D03*
Y49811D02*
D03*
Y57685D02*
D03*
Y65559D02*
D03*
X579634D02*
D03*
Y57685D02*
D03*
Y49811D02*
D03*
Y41937D02*
D03*
Y34000D02*
D03*
Y26100D02*
D03*
Y18300D02*
D03*
Y10400D02*
D03*
X579634Y90400D02*
D03*
Y98300D02*
D03*
Y106100D02*
D03*
Y114000D02*
D03*
Y121937D02*
D03*
Y129811D02*
D03*
Y137685D02*
D03*
Y145559D02*
D03*
X521300D02*
D03*
Y137685D02*
D03*
Y129811D02*
D03*
Y121937D02*
D03*
Y114000D02*
D03*
Y106100D02*
D03*
Y98300D02*
D03*
Y90400D02*
D03*
X579634Y170400D02*
D03*
Y178300D02*
D03*
Y186100D02*
D03*
Y194000D02*
D03*
Y201937D02*
D03*
Y209811D02*
D03*
Y217685D02*
D03*
Y225559D02*
D03*
X521300D02*
D03*
Y217685D02*
D03*
Y209811D02*
D03*
Y201937D02*
D03*
Y194000D02*
D03*
Y186100D02*
D03*
Y178300D02*
D03*
Y170400D02*
D03*
X579634Y250400D02*
D03*
Y258300D02*
D03*
Y266100D02*
D03*
Y274000D02*
D03*
Y281937D02*
D03*
Y289811D02*
D03*
Y297685D02*
D03*
Y305559D02*
D03*
X521300D02*
D03*
Y297685D02*
D03*
Y289811D02*
D03*
Y281937D02*
D03*
Y274000D02*
D03*
Y266100D02*
D03*
Y258300D02*
D03*
Y250400D02*
D03*
X579634Y330400D02*
D03*
Y338300D02*
D03*
Y346100D02*
D03*
Y354000D02*
D03*
Y361937D02*
D03*
Y369811D02*
D03*
Y377685D02*
D03*
Y385559D02*
D03*
X521300D02*
D03*
Y377685D02*
D03*
Y369811D02*
D03*
Y361937D02*
D03*
Y354000D02*
D03*
Y346100D02*
D03*
Y338300D02*
D03*
Y330400D02*
D03*
X579634Y410400D02*
D03*
Y418300D02*
D03*
Y426100D02*
D03*
Y434000D02*
D03*
Y441937D02*
D03*
Y449811D02*
D03*
Y457685D02*
D03*
Y465559D02*
D03*
X521300D02*
D03*
Y457685D02*
D03*
Y449811D02*
D03*
Y441937D02*
D03*
Y434000D02*
D03*
Y426100D02*
D03*
Y418300D02*
D03*
Y410400D02*
D03*
X579634Y490400D02*
D03*
Y498300D02*
D03*
Y506100D02*
D03*
Y514000D02*
D03*
Y521937D02*
D03*
Y529811D02*
D03*
Y537685D02*
D03*
Y545559D02*
D03*
X521300D02*
D03*
Y537685D02*
D03*
Y529811D02*
D03*
Y521937D02*
D03*
Y514000D02*
D03*
Y506100D02*
D03*
Y498300D02*
D03*
Y490400D02*
D03*
X579634Y570400D02*
D03*
Y578300D02*
D03*
Y586100D02*
D03*
Y594000D02*
D03*
Y601937D02*
D03*
Y609811D02*
D03*
Y617685D02*
D03*
Y625559D02*
D03*
X521300D02*
D03*
Y617685D02*
D03*
Y609811D02*
D03*
Y601937D02*
D03*
Y594000D02*
D03*
Y586100D02*
D03*
Y578300D02*
D03*
Y570400D02*
D03*
X579634Y650400D02*
D03*
Y658300D02*
D03*
Y666100D02*
D03*
Y674000D02*
D03*
Y681937D02*
D03*
Y689811D02*
D03*
Y697685D02*
D03*
Y705559D02*
D03*
X521300D02*
D03*
Y697685D02*
D03*
Y689811D02*
D03*
Y681937D02*
D03*
Y674000D02*
D03*
Y666100D02*
D03*
Y658300D02*
D03*
Y650400D02*
D03*
X579634Y730400D02*
D03*
Y738300D02*
D03*
Y746100D02*
D03*
Y754000D02*
D03*
Y761937D02*
D03*
Y769811D02*
D03*
Y777685D02*
D03*
Y785559D02*
D03*
X521300D02*
D03*
Y777685D02*
D03*
Y769811D02*
D03*
Y761937D02*
D03*
Y754000D02*
D03*
Y746100D02*
D03*
Y738300D02*
D03*
Y730400D02*
D03*
X579634Y810400D02*
D03*
Y818300D02*
D03*
Y826100D02*
D03*
Y834000D02*
D03*
Y841937D02*
D03*
Y849811D02*
D03*
Y857685D02*
D03*
Y865559D02*
D03*
X521300D02*
D03*
Y857685D02*
D03*
Y849811D02*
D03*
Y841937D02*
D03*
Y834000D02*
D03*
Y826100D02*
D03*
Y818300D02*
D03*
Y810400D02*
D03*
X579634Y890400D02*
D03*
Y898300D02*
D03*
Y906100D02*
D03*
Y914000D02*
D03*
Y921937D02*
D03*
Y929811D02*
D03*
Y937685D02*
D03*
Y945559D02*
D03*
X521300D02*
D03*
Y937685D02*
D03*
Y929811D02*
D03*
Y921937D02*
D03*
Y914000D02*
D03*
Y906100D02*
D03*
Y898300D02*
D03*
Y890400D02*
D03*
X579634Y970400D02*
D03*
Y978300D02*
D03*
Y986100D02*
D03*
Y994000D02*
D03*
Y1001937D02*
D03*
Y1009811D02*
D03*
Y1017685D02*
D03*
Y1025559D02*
D03*
X521300D02*
D03*
Y1017685D02*
D03*
Y1009811D02*
D03*
Y1001937D02*
D03*
Y994000D02*
D03*
Y986100D02*
D03*
Y978300D02*
D03*
Y970400D02*
D03*
X679634Y10400D02*
D03*
Y18300D02*
D03*
Y26100D02*
D03*
Y34000D02*
D03*
Y41937D02*
D03*
Y49811D02*
D03*
Y57685D02*
D03*
Y65559D02*
D03*
X621300D02*
D03*
Y57685D02*
D03*
Y49811D02*
D03*
Y41937D02*
D03*
Y34000D02*
D03*
Y26100D02*
D03*
Y18300D02*
D03*
Y10400D02*
D03*
X621300Y90400D02*
D03*
Y98300D02*
D03*
Y106100D02*
D03*
Y114000D02*
D03*
Y121937D02*
D03*
Y129811D02*
D03*
Y137685D02*
D03*
Y145559D02*
D03*
X679634D02*
D03*
Y137685D02*
D03*
Y129811D02*
D03*
Y121937D02*
D03*
Y114000D02*
D03*
Y106100D02*
D03*
Y98300D02*
D03*
Y90400D02*
D03*
X621300Y170400D02*
D03*
Y178300D02*
D03*
Y186100D02*
D03*
Y194000D02*
D03*
Y201937D02*
D03*
Y209811D02*
D03*
Y217685D02*
D03*
Y225559D02*
D03*
X679634D02*
D03*
Y217685D02*
D03*
Y209811D02*
D03*
Y201937D02*
D03*
Y194000D02*
D03*
Y186100D02*
D03*
Y178300D02*
D03*
Y170400D02*
D03*
X621300Y250400D02*
D03*
Y258300D02*
D03*
Y266100D02*
D03*
Y274000D02*
D03*
Y281937D02*
D03*
Y289811D02*
D03*
Y297685D02*
D03*
Y305559D02*
D03*
X679634D02*
D03*
Y297685D02*
D03*
Y289811D02*
D03*
Y281937D02*
D03*
Y274000D02*
D03*
Y266100D02*
D03*
Y258300D02*
D03*
Y250400D02*
D03*
X621300Y330400D02*
D03*
Y338300D02*
D03*
Y346100D02*
D03*
Y354000D02*
D03*
Y361937D02*
D03*
Y369811D02*
D03*
Y377685D02*
D03*
Y385559D02*
D03*
X679634D02*
D03*
Y377685D02*
D03*
Y369811D02*
D03*
Y361937D02*
D03*
Y354000D02*
D03*
Y346100D02*
D03*
Y338300D02*
D03*
Y330400D02*
D03*
X621300Y410400D02*
D03*
Y418300D02*
D03*
Y426100D02*
D03*
Y434000D02*
D03*
Y441937D02*
D03*
Y449811D02*
D03*
Y457685D02*
D03*
Y465559D02*
D03*
X679634D02*
D03*
Y457685D02*
D03*
Y449811D02*
D03*
Y441937D02*
D03*
Y434000D02*
D03*
Y426100D02*
D03*
Y418300D02*
D03*
Y410400D02*
D03*
X621300Y490400D02*
D03*
Y498300D02*
D03*
Y506100D02*
D03*
Y514000D02*
D03*
Y521937D02*
D03*
Y529811D02*
D03*
Y537685D02*
D03*
Y545559D02*
D03*
X679634D02*
D03*
Y537685D02*
D03*
Y529811D02*
D03*
Y521937D02*
D03*
Y514000D02*
D03*
Y506100D02*
D03*
Y498300D02*
D03*
Y490400D02*
D03*
X621300Y570400D02*
D03*
Y578300D02*
D03*
Y586100D02*
D03*
Y594000D02*
D03*
Y601937D02*
D03*
Y609811D02*
D03*
Y617685D02*
D03*
Y625559D02*
D03*
X679634D02*
D03*
Y617685D02*
D03*
Y609811D02*
D03*
Y601937D02*
D03*
Y594000D02*
D03*
Y586100D02*
D03*
Y578300D02*
D03*
Y570400D02*
D03*
X621300Y650400D02*
D03*
Y658300D02*
D03*
Y666100D02*
D03*
Y674000D02*
D03*
Y681937D02*
D03*
Y689811D02*
D03*
Y697685D02*
D03*
Y705559D02*
D03*
X679634D02*
D03*
Y697685D02*
D03*
Y689811D02*
D03*
Y681937D02*
D03*
Y674000D02*
D03*
Y666100D02*
D03*
Y658300D02*
D03*
Y650400D02*
D03*
X621300Y730400D02*
D03*
Y738300D02*
D03*
Y746100D02*
D03*
Y754000D02*
D03*
Y761937D02*
D03*
Y769811D02*
D03*
Y777685D02*
D03*
Y785559D02*
D03*
X679634D02*
D03*
Y777685D02*
D03*
Y769811D02*
D03*
Y761937D02*
D03*
Y754000D02*
D03*
Y746100D02*
D03*
Y738300D02*
D03*
Y730400D02*
D03*
X621300Y810400D02*
D03*
Y818300D02*
D03*
Y826100D02*
D03*
Y834000D02*
D03*
Y841937D02*
D03*
Y849811D02*
D03*
Y857685D02*
D03*
Y865559D02*
D03*
X679634D02*
D03*
Y857685D02*
D03*
Y849811D02*
D03*
Y841937D02*
D03*
Y834000D02*
D03*
Y826100D02*
D03*
Y818300D02*
D03*
Y810400D02*
D03*
X621300Y890400D02*
D03*
Y898300D02*
D03*
Y906100D02*
D03*
Y914000D02*
D03*
Y921937D02*
D03*
Y929811D02*
D03*
Y937685D02*
D03*
Y945559D02*
D03*
X679634D02*
D03*
Y937685D02*
D03*
Y929811D02*
D03*
Y921937D02*
D03*
Y914000D02*
D03*
Y906100D02*
D03*
Y898300D02*
D03*
Y890400D02*
D03*
X621300Y970400D02*
D03*
Y978300D02*
D03*
Y986100D02*
D03*
Y994000D02*
D03*
Y1001937D02*
D03*
Y1009811D02*
D03*
Y1017685D02*
D03*
Y1025559D02*
D03*
X679634D02*
D03*
Y1017685D02*
D03*
Y1009811D02*
D03*
Y1001937D02*
D03*
Y994000D02*
D03*
Y986100D02*
D03*
Y978300D02*
D03*
Y970400D02*
D03*
M02*
