M48
;Layer_Color=9474304
;FILE_FORMAT=2:5
INCH,TZ
;TYPE=PLATED
T1F00S00C0.03543
%
T01
X5000Y5000
Y15000
X95000
Y5000
X105000
Y15000
X195000
X205000Y15000
Y5000
X195000Y5000
X295000Y5000
Y15000
X305000
Y5000
X395000
X405000
Y15000
X395000
X495000
Y5000
X505000
Y15000
X595000
Y5000
X605000
Y15000
X695000
Y5000
Y25000
Y35000
Y45000
Y55000
Y65000
Y75000
X695000Y85000
Y95000
Y105000
Y115000
Y125000
Y135000
Y145000
Y155000
Y165000
X605000
Y155000
X595000
Y165000
Y145000
Y135000
Y125000
Y115000
Y105000
Y95000
Y85000
X605000
Y95000
Y105000
Y115000
Y125000
Y135000
Y145000
X605000Y75000
X595000
Y65000
Y55000
Y45000
Y35000
Y25000
X605000
Y35000
Y45000
Y55000
Y65000
X505000
Y55000
Y45000
Y35000
Y25000
Y75000
X505000Y85000
Y95000
Y105000
Y115000
Y125000
Y135000
Y145000
Y155000
Y165000
X495000
Y155000
Y145000
Y135000
Y125000
Y115000
Y105000
Y95000
Y85000
X495000Y75000
Y65000
Y55000
Y45000
Y35000
Y25000
X405000
X395000
Y35000
X405000
Y45000
X395000
Y55000
X405000
Y65000
X395000
Y75000
X405000
X405000Y85000
X395000
Y95000
X405000
Y105000
X395000
Y115000
X405000
Y125000
X395000
Y135000
X405000
Y145000
X395000
Y155000
X405000
Y165000
X395000
X305000
Y155000
Y145000
Y135000
Y125000
Y115000
Y105000
Y95000
Y85000
X305000Y75000
Y65000
Y55000
Y45000
Y35000
Y25000
X295000
Y35000
Y45000
Y55000
Y65000
Y75000
X295000Y85000
Y95000
Y105000
Y115000
Y125000
Y135000
Y145000
Y155000
Y165000
X205000
X195000Y165000
Y155000
X205000Y155000
Y145000
X195000Y145000
Y135000
X205000Y135000
Y125000
X195000Y125000
Y115000
X205000Y115000
Y105000
X195000Y105000
Y95000
X205000Y95000
Y85000
X195000Y85000
X195000Y75000
X205000Y75000
Y65000
X195000Y65000
Y55000
X205000Y55000
Y45000
X195000Y45000
Y35000
X205000Y35000
Y25000
X195000Y25000
X105000
Y35000
Y45000
Y55000
Y65000
Y75000
X105000Y85000
Y95000
Y105000
Y115000
Y125000
Y135000
Y145000
Y155000
Y165000
X95000
Y155000
Y145000
Y135000
Y125000
Y115000
Y105000
Y95000
Y85000
X95000Y75000
Y65000
Y55000
Y45000
Y35000
Y25000
X5000
Y35000
Y45000
Y55000
Y65000
Y75000
X5000Y85000
Y95000
Y105000
Y115000
Y125000
Y135000
Y145000
Y155000
Y165000
Y175000
Y185000
Y195000
Y205000
Y215000
Y225000
Y235000
Y245000
Y255000
Y265000
Y275000
Y285000
Y295000
Y305000
Y315000
Y325000
X95000
Y315000
Y305000
Y295000
Y285000
Y275000
Y265000
Y255000
Y245000
Y235000
Y225000
Y215000
Y205000
Y195000
Y185000
Y175000
X105000
Y185000
Y195000
Y205000
Y215000
Y225000
Y235000
Y245000
Y255000
Y265000
Y275000
Y285000
Y295000
Y305000
Y315000
Y325000
X195000
X205000Y325000
Y315000
X195000Y315000
Y305000
X205000Y305000
Y295000
X195000Y295000
Y285000
X205000Y285000
Y275000
X195000Y275000
Y265000
X205000Y265000
Y255000
X195000Y255000
Y245000
X205000Y245000
Y235000
X195000Y235000
Y225000
X205000Y225000
Y215000
X195000Y215000
Y205000
X205000Y205000
Y195000
X195000Y195000
Y185000
X205000Y185000
Y175000
X195000Y175000
X295000Y175000
Y185000
Y195000
Y205000
Y215000
Y225000
Y235000
Y245000
Y255000
Y265000
Y275000
Y285000
Y295000
Y305000
Y315000
Y325000
X305000
Y315000
Y305000
Y295000
Y285000
Y275000
Y265000
Y255000
Y245000
Y235000
Y225000
Y215000
Y205000
Y195000
Y185000
Y175000
X395000
X405000
Y185000
X395000
Y195000
X405000
Y205000
X395000
Y215000
X405000
Y225000
X395000
Y235000
X405000
Y245000
X395000
Y255000
X405000
Y265000
X395000
Y275000
X405000
Y285000
X395000
Y295000
X405000
Y305000
X395000
Y315000
X405000
Y325000
X395000
X495000
Y315000
Y305000
Y295000
Y285000
Y275000
Y265000
Y255000
Y245000
Y235000
Y225000
Y215000
Y205000
Y195000
Y185000
Y175000
X505000
Y185000
Y195000
Y205000
Y215000
Y225000
Y235000
Y245000
Y255000
Y265000
Y275000
Y285000
Y295000
Y305000
Y315000
Y325000
X595000
Y315000
Y305000
Y295000
Y285000
Y275000
Y265000
Y255000
Y245000
Y235000
Y225000
Y215000
Y205000
Y195000
Y185000
Y175000
X605000
Y185000
Y195000
Y205000
Y215000
Y225000
Y235000
Y245000
Y255000
Y265000
Y275000
Y285000
Y295000
Y305000
Y315000
Y325000
X695000
Y315000
Y305000
Y295000
Y285000
Y275000
Y265000
Y255000
Y245000
Y235000
Y225000
Y215000
Y205000
Y195000
Y185000
Y175000
Y335000
Y345000
Y355000
Y365000
Y375000
Y385000
Y395000
Y405000
Y415000
Y425000
Y435000
Y445000
Y455000
Y465000
Y475000
X605000
X595000
Y465000
Y455000
Y445000
Y435000
Y425000
Y415000
Y405000
Y395000
Y385000
Y375000
Y365000
Y355000
Y345000
Y335000
X605000
Y345000
Y355000
Y365000
Y375000
Y385000
Y395000
Y405000
Y415000
Y425000
Y435000
Y445000
Y455000
Y465000
X505000
Y475000
Y455000
Y445000
Y435000
Y425000
Y415000
Y405000
Y395000
Y385000
Y375000
Y365000
Y355000
Y345000
Y335000
X495000
Y345000
Y355000
Y365000
Y375000
Y385000
Y395000
Y405000
Y415000
Y425000
Y435000
Y445000
Y455000
Y465000
Y475000
X405000
X395000
Y465000
X405000
Y455000
X395000
Y445000
X405000
Y435000
X395000
Y425000
X405000
Y415000
X395000
Y405000
X405000
Y395000
X395000
Y385000
X405000
Y375000
X395000
Y365000
X405000
Y355000
X395000
Y345000
X405000
Y335000
X395000
X305000
Y345000
Y355000
Y365000
Y375000
Y385000
Y395000
Y405000
Y415000
Y425000
Y435000
Y445000
Y455000
Y465000
Y475000
X295000
Y465000
Y455000
Y445000
Y435000
Y425000
Y415000
Y405000
Y395000
Y385000
Y375000
Y365000
Y355000
Y345000
Y335000
X205000
X195000Y335000
Y345000
X205000Y345000
Y355000
X195000Y355000
Y365000
X205000Y365000
Y375000
X195000Y375000
Y385000
X205000Y385000
Y395000
X195000Y395000
Y405000
X205000Y405000
Y415000
X195000Y415000
Y425000
X205000Y425000
Y435000
X195000Y435000
Y445000
X205000Y445000
Y455000
X195000Y455000
Y465000
X205000Y465000
Y475000
X195000Y475000
X105000
Y465000
Y455000
Y445000
Y435000
Y425000
Y415000
Y405000
Y395000
Y385000
Y375000
Y365000
Y355000
Y345000
Y335000
X95000
Y345000
Y355000
Y365000
Y375000
Y385000
Y395000
Y405000
Y415000
Y425000
Y435000
Y445000
Y455000
Y465000
Y475000
X5000
Y465000
Y455000
Y445000
Y435000
Y425000
Y415000
Y405000
Y395000
Y385000
Y375000
Y365000
Y355000
Y345000
Y335000
Y485000
Y495000
Y505000
Y515000
Y525000
Y535000
Y545000
Y555000
Y565000
Y575000
Y585000
Y595000
Y605000
Y615000
Y625000
Y635000
X95000
Y625000
Y615000
Y605000
Y595000
Y585000
Y575000
Y565000
Y555000
Y545000
Y535000
Y525000
Y515000
Y505000
Y495000
Y485000
X105000
Y495000
Y505000
Y515000
Y525000
Y535000
Y545000
Y555000
Y565000
Y575000
Y585000
Y595000
Y605000
Y615000
Y625000
Y635000
X195000
X205000Y635000
Y625000
X195000Y625000
Y615000
X205000Y615000
Y605000
X195000Y605000
Y595000
X205000Y595000
Y585000
X195000Y585000
Y575000
X205000Y575000
Y565000
X195000Y565000
Y555000
X205000Y555000
Y545000
X195000Y545000
Y535000
X205000Y535000
Y525000
X195000Y525000
Y515000
X205000Y515000
Y505000
X195000Y505000
Y495000
X205000Y495000
Y485000
X195000Y485000
X295000Y485000
Y495000
Y505000
Y515000
Y525000
Y535000
Y545000
Y555000
Y565000
Y575000
Y585000
Y595000
Y605000
Y615000
Y625000
Y635000
X305000
Y625000
Y615000
Y605000
Y595000
Y585000
Y575000
Y565000
Y555000
Y545000
Y535000
Y525000
Y515000
Y505000
Y495000
Y485000
X395000
X405000
Y495000
X395000
Y505000
X405000
Y515000
X395000
Y525000
X405000
Y535000
X395000
Y545000
X405000
Y555000
X395000
Y565000
X405000
Y575000
X395000
Y585000
X405000
Y595000
X395000
Y605000
X405000
Y615000
X395000
Y625000
X405000
Y635000
X395000
X495000
Y625000
Y615000
Y605000
Y595000
Y585000
Y575000
Y565000
Y555000
Y545000
Y535000
Y525000
Y515000
Y505000
Y495000
Y485000
X505000
Y495000
Y505000
Y515000
Y525000
Y535000
Y545000
Y555000
Y565000
Y575000
Y585000
Y595000
Y605000
Y615000
Y625000
Y635000
X595000
Y625000
Y615000
Y605000
Y595000
Y585000
Y575000
Y565000
Y555000
Y545000
Y535000
Y525000
Y515000
Y505000
Y495000
Y485000
X605000
Y495000
Y505000
Y515000
Y525000
Y535000
Y545000
Y555000
Y565000
Y575000
Y585000
Y595000
Y605000
Y615000
Y625000
Y635000
X695000
Y625000
Y615000
Y605000
Y595000
Y585000
Y575000
Y565000
Y555000
Y545000
Y535000
Y525000
Y515000
Y505000
Y495000
Y485000
Y645000
Y655000
Y665000
Y675000
Y685000
Y695000
Y705000
Y715000
Y725000
Y735000
Y745000
Y755000
Y765000
Y775000
Y785000
Y795000
X605000
X595000
Y785000
Y775000
Y765000
Y755000
Y745000
Y735000
Y725000
Y715000
Y705000
Y695000
Y685000
Y675000
Y665000
Y655000
Y645000
X605000
Y655000
Y665000
Y675000
Y685000
Y695000
Y705000
Y715000
Y725000
Y735000
Y745000
Y755000
Y765000
Y775000
Y785000
X505000
Y795000
Y775000
Y765000
Y755000
Y745000
Y735000
Y725000
Y715000
Y705000
Y695000
Y685000
Y675000
Y665000
Y655000
Y645000
X495000
Y655000
Y665000
Y675000
Y685000
Y695000
Y705000
Y715000
Y725000
Y735000
Y745000
Y755000
Y765000
Y775000
Y785000
Y795000
X405000
X395000
Y785000
X405000
Y775000
X395000
Y765000
X405000
Y755000
X395000
Y745000
X405000
Y735000
X395000
Y725000
X405000
Y715000
X395000
Y705000
X405000
Y695000
X395000
Y685000
X405000
Y675000
X395000
Y665000
X405000
Y655000
X395000
Y645000
X405000
X305000
Y655000
Y665000
Y675000
Y685000
Y695000
Y705000
Y715000
Y725000
Y735000
Y745000
Y755000
Y765000
Y775000
Y785000
Y795000
X295000
Y785000
Y775000
Y765000
Y755000
Y745000
Y735000
Y725000
Y715000
Y705000
Y695000
Y685000
Y675000
Y665000
Y655000
Y645000
X205000
X195000Y645000
Y655000
X205000Y655000
Y665000
X195000Y665000
Y675000
X205000Y675000
Y685000
X195000Y685000
Y695000
X205000Y695000
Y705000
X195000Y705000
Y715000
X205000Y715000
Y725000
X195000Y725000
Y735000
X205000Y735000
Y745000
X195000Y745000
Y755000
X205000Y755000
Y765000
X195000Y765000
Y775000
X205000Y775000
Y785000
X195000Y785000
Y795000
X205000Y795000
X105000Y795000
Y785000
Y775000
Y765000
Y755000
Y745000
Y735000
Y725000
Y715000
Y705000
Y695000
Y685000
Y675000
Y665000
Y655000
Y645000
X95000
Y655000
Y665000
Y675000
Y685000
Y695000
Y705000
Y715000
Y725000
Y735000
Y745000
Y755000
Y765000
Y775000
Y785000
Y795000
X5000
Y785000
Y775000
Y765000
Y755000
Y745000
Y735000
Y725000
Y715000
Y705000
Y695000
Y685000
Y675000
Y665000
Y655000
Y645000
Y805000
Y815000
Y825000
Y835000
Y845000
Y855000
Y865000
Y875000
Y885000
Y895000
Y905000
Y915000
Y925000
Y935000
Y945000
X95000
Y935000
Y925000
Y915000
Y905000
Y895000
Y885000
Y875000
Y865000
Y855000
Y845000
Y835000
Y825000
Y815000
Y805000
X105000
Y815000
Y825000
Y835000
Y845000
Y855000
Y865000
Y875000
Y885000
Y895000
Y905000
Y915000
Y925000
Y935000
Y945000
X195000
X205000Y945000
Y935000
X195000Y935000
Y925000
X205000Y925000
Y915000
X195000Y915000
Y905000
X205000Y905000
Y895000
X195000Y895000
Y885000
X205000Y885000
Y875000
X195000Y875000
Y865000
X205000Y865000
Y855000
X195000Y855000
Y845000
X205000Y845000
Y835000
X195000Y835000
Y825000
X205000Y825000
Y815000
X195000Y815000
Y805000
X205000Y805000
X295000
Y815000
Y825000
Y835000
Y845000
Y855000
Y865000
Y875000
Y885000
Y895000
Y905000
Y915000
Y925000
Y935000
Y945000
X305000
Y935000
Y925000
Y915000
Y905000
Y895000
Y885000
Y875000
Y865000
Y855000
Y845000
Y835000
Y825000
Y815000
Y805000
X395000
X405000
Y815000
X395000
Y825000
X405000
Y835000
X395000
Y845000
X405000
Y855000
X395000
Y865000
X405000
Y875000
X395000
Y885000
X405000
Y895000
X395000
Y905000
X405000
Y915000
X395000
Y925000
X405000
Y935000
X395000
Y945000
X405000
X495000
Y935000
Y925000
Y915000
Y905000
Y895000
Y885000
Y875000
Y865000
Y855000
Y845000
Y835000
Y825000
Y815000
Y805000
X505000
Y815000
Y825000
Y835000
Y845000
Y855000
Y865000
Y875000
Y885000
Y895000
Y905000
Y915000
Y925000
Y935000
Y945000
X595000
Y935000
Y925000
Y915000
Y905000
Y895000
Y885000
Y875000
Y865000
Y855000
Y845000
Y835000
Y825000
Y815000
Y805000
X605000
Y815000
Y825000
Y835000
Y845000
Y855000
Y865000
Y875000
Y885000
Y895000
Y905000
Y915000
Y925000
Y935000
Y945000
X695000
Y935000
Y925000
Y915000
Y905000
Y895000
Y885000
Y875000
Y865000
Y855000
Y845000
Y835000
Y825000
Y815000
Y805000
Y955000
Y965000
Y975000
Y985000
Y995000
Y1005000
Y1015000
Y1025000
Y1035000
X605000
X595000
Y1025000
Y1015000
Y1005000
Y995000
Y985000
Y975000
Y965000
Y955000
X605000
Y965000
Y975000
Y985000
Y995000
Y1005000
Y1015000
Y1025000
X505000
Y1035000
Y1015000
Y1005000
Y995000
Y985000
Y975000
Y965000
Y955000
X495000
Y965000
Y975000
Y985000
Y995000
Y1005000
Y1015000
Y1025000
Y1035000
X405000
X395000
Y1025000
X405000
Y1015000
X395000
Y1005000
X405000
Y995000
X395000
Y985000
X405000
Y975000
X395000
Y965000
X405000
Y955000
X395000
X305000
Y965000
Y975000
Y985000
Y995000
Y1005000
Y1015000
Y1025000
Y1035000
X295000
Y1025000
Y1015000
Y1005000
Y995000
Y985000
Y975000
Y965000
Y955000
X205000
X195000Y955000
Y965000
X205000Y965000
Y975000
X195000Y975000
Y985000
X205000Y985000
Y995000
X195000Y995000
Y1005000
X205000Y1005000
Y1015000
X195000Y1015000
Y1025000
X205000Y1025000
Y1035000
X195000Y1035000
X105000
Y1025000
Y1015000
Y1005000
Y995000
Y985000
Y975000
Y965000
Y955000
X95000
Y965000
Y975000
Y985000
Y995000
Y1005000
Y1015000
Y1025000
Y1035000
X5000
Y1025000
Y1015000
Y1005000
Y995000
Y985000
Y975000
Y965000
Y955000
M30
